<svg id="Camada_1" data-name="Camada 1" xmlns="http://www.w3.org/2000/svg" viewBox="0 0 839.63 355"><defs><style>.cls-1{fill:#64b44e;}.cls-2{fill:#65b34f;}.cls-3{fill:#63b450;}.cls-4{fill:#657b78;}.cls-5{fill:#667b78;}.cls-6{fill:#667977;}.cls-7{fill:#6b7978;}.cls-8{fill:#7e8081;}.cls-9{fill:#ddf7d4;}.cls-10{fill:#dbe6e7;}.cls-11{fill:#7eac71;}.cls-12{fill:#647b79;}.cls-13{fill:#657b79;}.cls-14{fill:none;}.cls-15{fill:#637c78;}.cls-16{fill:#67b151;}.cls-17{fill:#fcfcfc;}.cls-18{fill:#74a765;}</style></defs><path class="cls-1" d="M535.59,239.12a90.35,90.35,0,0,1-21.33-3.73,5.63,5.63,0,0,0-2-.32c-12.9.78-25.1-3.86-37.79-4.83-7.3-.56-14.63.2-21.87-.61-6.84-.76-13.64-1.67-20.54-1.44-.84,0-1.66-.24-2.4.36-5.58,2.18-11-.62-16.54-.62-7.51,0-14.85-2.47-22.43-2.3a10.4,10.4,0,0,1-1.67-.18,17.47,17.47,0,0,0-7.8-1.63c-2.17-.35-4.44-.1-6.46-1.2l-1.83-.16c-11.24-1.82-22.55-.39-33.83-.71a35,35,0,0,1-5,0c-5.28-.88-10.34.44-15.35,1.91a68.62,68.62,0,0,1-11.64.37c-3.26-.07-4.85-1.76-5-5.07-.27-5.21-.15-10.42-1.17-15.62-.73-3.71,1.42-4.79,6.95-4.21,11.14-.62,22.24.77,33.37.59a43.47,43.47,0,0,1,12,1.52c6.17,1.94,12.71.34,18.93,1.94a10.49,10.49,0,0,1,1.67.43c8.56,2,17.22,3.21,25.94,4.35,9.24,1.21,18.43,1.7,27.69,2,6.22.23,12.13,2.55,18.31,3.11,9.6.86,19.31.84,28.73,3,8.36,1.93,17.22,1.32,25.22,5.18,2.87,1.38,6.35.31,9.41,1.4h0c26.08,2.93,52.19,4.31,78.4,2,3.63-.32,5.94,1.09,6.25,4.93a15.79,15.79,0,0,0,1.91,6.28c1.26,7.54,1.06,11,.66,17.68-1.24,3.43-2.88,4.5-6.46,3.25-7.23-2.52-14.43-5.11-21.58-7.84l0,0c-3.8-1.43-7.56-3-11.64-3.43-5.26-3.61-11.67-3.29-17.46-5.07A14.44,14.44,0,0,1,535.59,239.12Z"/><path class="cls-2" d="M222.86,222.51c-19,.61-38,1.1-56.92,1.8-14.16.52-28.29,1.17-42.38,2.61a39.34,39.34,0,0,0-11.65,2.59c-8.43,2.41-17.22,2.42-25.82,3.57-7.51,1-14.65,3.54-22.35,3.87-12.85.54-25.68,1-38.53.93-4.84,0-5.7-4.08-7.62-7.13.12-7.52,2-9.45,9.13-9.55,4.71-.07,9.37.16,13.93-1.8,3.42-1.47,7.28-1.34,11-1.28a259.58,259.58,0,0,0,52.49-4.44c9.54-2.21,19.47-1.29,29-3.55,3.89-.93,7.6,1.78,11.45.3l0,0c5.88-2.11,12.09-1.33,18-1.3,8.63,0,17.07-1.69,25.66-1.65A211.51,211.51,0,0,0,216,205.83c13.66-1.77,27.43-2.43,41.07-4.34,3.88-.54,7.74-.63,11.62-.83,5.4-.28,10.41-1.41,13.42-6.59,3.9-3,6.56-2.25,10.5,3,2.09,2.5,1.71,5.89,3.17,8.63,2,3.66,5.31,7.46,2.93,11.69s-7.34,3.46-11.51,3.64c-18.43.8-36.86.43-55.29.64A38.67,38.67,0,0,0,222.86,222.51Z"/><path class="cls-3" d="M731.14,270.58c.43.9,1.32.82,2.1,1,9,1.13,17,5.36,25.47,8.08.2.27.42.52.61.79,1.27,1.89-2.54,3.87-.62,4.86a11.28,11.28,0,0,0,8.85.28c3.81-1.5,6.84-.82,10.54.51,6,2.16,13.34,3.16,17.95,6.58,7.41,5.49,16.37,2.76,23.46,7.27,1.91,1.22,3.79,1.92,1.42,4.31-1.1.91-2.63.6-3.79,1.24-4.55,2.53-8.66,1.88-12.46-1.53h0a3.57,3.57,0,0,0-4.24-.34c-6.69,4.25-13.46,4.2-20.34.52a1.17,1.17,0,0,0-.75-.23c-10.28-6.38-10.93-6.58-22.75-7a8.36,8.36,0,0,1-1-.12c-6.65-1.45-12.63-5.2-19.43-6-4.9-.57-7.39-3.81-9.49-7.48-1.86-3.24-3.42-3.58-5.38-.31-.93,1.57-2.71,2.44-3.15,4.49-.26,1.21-1.37,2.46-3,1.25H715c-1.58-3.59-3.2-7-8.07-3.85a2.74,2.74,0,0,1-3.61-.93c-1.34-1.72-3.41-2.05-5.08-3.12-5.89-2.05-10.71-6-17.46-6.91-9.43-1.25-18.79-.94-28.17-1.4a3.64,3.64,0,0,1-2.74-1.09h0c-12.53-1.12-24.93-3.18-37.31-5.35a8.32,8.32,0,0,0-6.35.93c-1.68,1.1-3.51,3.19-5.82,1-2.12-2-4-4.95-2.35-7.21,5.63-7.82,0-15.32-.06-22.91,0-5.53-1-10.87-5.89-15.08-2.64-2.29.24-5.62,1.62-8.23s3.65-1.64,5.34-.81c2.85,1.38,6,2.9,6,6.83-.12,6.27,4.79,9.56,9,10.7,7.41,2,14.17,5.53,21.51,7.51l.06,0c7.27,1.18,13.7,5.32,21.16,5.92,2.88.23,5.51,1.63,8.08,2.93,7,3.55,14,7.07,21.73,8.86a18.18,18.18,0,0,1,6,2.76h0c2.45,1.68,5.24,2.16,8.12,2.5,10,1.18,19.68,4.08,29.23,7.27A2.42,2.42,0,0,1,731.14,270.58Z"/><path class="cls-4" d="M187,146.11c2.49-2.73,5-5.49,7.49-8.19.95-1,2.18-2,3.55-.91,3.29,2.61,3.58.21,3.8-2.2a32.78,32.78,0,0,0,.26-6.55c-.24-2-.1-4.85-2.91-5.32-6.19-1-2.45-3-.5-4.65,2.28-2,4.32-3.79,5.61-6.8,3.22-7.51,9.1-9.84,17.8-7.35-6.62,5.66-6.34,14.41-10.72,21.25-3.23,5-3.11,12.24-4.41,18.5-.22,1.08-.74,2.53.65,3.17s1.83-1,2.62-1.73c9.71-9.27,17.24-20.48,26.69-30,1.77-1.77,3.53-4.07,5.9-2.35,2.64,1.91,7.7,2.1,6.37,7.7-.77,3.22-.76,6.63-1,10-.08,1.17-.09,2.63,1.31,3,1.18.31,1.48-1.08,2.15-1.77,5.75-5.93,11.05-12.31,18-17,4.44-3,8.69-1.39,10.38,3.76,2.78,8.48,1.74,17.1,1,25.66-.29,3.36.91,6.31,1.3,9.45.29,2.42,2,2.57,4.05.94,3.88-3.07,6.56-7.27,10.28-10.45,1.64-1.41,3.31-4.54,5.8-2.32s.35,4.65-1.4,6.55c-4.53,4.92-10.76,8.31-13.25,15.08-.59,1.6-2.45,1-3.67.73-2.61-.49-5.18-1.25-7.75-1.94a1.77,1.77,0,0,1-1.2-2.42,10.23,10.23,0,0,0-3.07-10.56,3.39,3.39,0,0,1-1.17-3.16c1.07-7-1.9-13.2-3.68-19.64-.25-.9-.15-2.23-1.44-2.36s-1.4,1.14-2,1.92c-6.24,8.14-11,17.17-15.52,26.29-.65,1.31-.64,2.95-1,4.42-1.14,4.73-6.72,9.76-11.15,9.5-1.87-.12-4.26-1.51-4.12-3.75.18-3,.41-6.61,2.15-8.66,4.32-5.09,3.7-11.46,5.5-17.14,1.12-3.53-1.62-7.29-2.58-10.86-.41-1.5-4.62,1.29-5.66,2.95-6.07,9.6-14,17.65-20.78,26.66-2.07,2.77-4.65,6.44-1.21,10.35.78.89.28,1.92-.33,2.75a5.44,5.44,0,0,1-1.44,1.43c-2.93,1.77-2.57,7.37-6.51,7-3.07-.27-2.86-5.7-6.83-6.78-1.59-.43-.85-3.18.32-4.88,4.9-7.1,6.23-15,4.9-23.64-4.27.64-4.83,5.65-8.22,7.33A6.69,6.69,0,0,1,187,146.11Z"/><path class="cls-5" d="M641.28,179.66c-2,1.43-4,3-6.16,4.27s-3.72-.23-4.45-1.67a21.29,21.29,0,0,1-1.84-14.69c1.89-8.69,4.13-17.35,4.27-26.34a1.54,1.54,0,0,0-.9-1.55c-1.46-.9-2.39.08-3.62.73-8.87,4.71-14.06,12.91-19.63,20.68-3.3,4.62-6.76,9.14-8.55,14.83-1.28,4.05-5.59,6-9.22,8a3,3,0,0,1-3.37-.41c-1.25-1.08-.3-2.34.15-3.23,5-9.81,5-20.92,8.16-31.21.92-3,0-6.75-.63-10-.5-2.39-2.83-2.07-4.61-1.32a5.43,5.43,0,0,0-2.16,2.07c-1.18,1.79-3.06,2-4.85,2.24-.79.09-1.43-.87-1.5-1.79-.17-2.37,2.06-2.48,3.37-3.21,6.41-3.54,11.23-9.07,17.08-13.29a6.49,6.49,0,0,1,2.58-1.53c1.78-.2,4-1.3,5.3.19,1.39,1.64.16,3.58-.57,5.56-3.94,10.63-9.65,20.76-9.67,32.64,3.42-1.85,5.5-5.24,7.65-8.18,7.07-9.69,17.43-15.69,25.89-23.79,2.41-2.32,6.2-3.41,9.55-4.49s3.07,1.78,2.74,3.65c-1.16,6.66-2.71,13.24-3.78,19.91-1,6.32-.4,12.69.33,19,.3,2.63,1.84,3.26,3.71,1.15,3.13-3.52,7.53-4.94,11.41-7.23,1.55-1.08,3.22-1.25,4.39.32,1,1.35.25,2.9-.46,4.26a9,9,0,0,1-2.71,3.59C653.3,172.57,648.22,177.68,641.28,179.66Z"/><path class="cls-6" d="M668.94,166.56c6.49-6.29,13.09-12.47,19.42-18.93,4.27-4.35,8.23-9,12.16-13.67,2-2.39,1.06-5.39-1.56-5.55-7-.43-14.11-.8-20.84,2-1.13.47-2.48.95-2.13,2.4.82,3.48-2.08,4.65-3.76,6.61-1.41,1.63-3.54,3.41-5.12,2.12s-1-4.9.29-5.94c2.11-1.71,1.86-3.07,1.25-5.07-.82-2.68,1.3-3.93,2.87-5.44,6.59-6.35,14.92-7,23.22-6.26,6.77.57,13.5.64,20.27.66,2.17,0,4.6-.06,5.53,2.6,1,2.9-1.86,3.21-3.23,4.38-8.28,7.08-15.29,15.44-23.43,22.69-7.88,7-14.91,15-22.33,22.49-1.5,1.52-2.61,3.13.3,4.09,8.83,2.92,18,3.85,27.23,3.94,3.39,0,6-.93,7.81-4.93,2-4.29,6.77-6.3,11.82-6.54,1.92-.09,2.44,1,2.07,2.56s-.59,3.31-1.59,4.17c-7,6.09-14,12.19-24.17,12.26-8.61.05-17.22.47-25.83.73-5,.14-9.81-2.64-15,.17-2,1.08-3.7-1.55-3.87-4-.38-5.26,2-9.07,6.41-11.66C660.62,170.14,664.89,168.58,668.94,166.56Z"/><path class="cls-7" d="M396,91a2.63,2.63,0,0,1-2.63-1.57c-.53-1.08-1-2.34.08-3.28,7.9-6.9,14-15.39,20.91-23.22,1.59-1.81,3.56-4.28,6.23-2,2.29,1.94,4.12,4.45,2.6,8-1.05,2.47-2.86,3.93-4.93,5.51-7,5.37-15.65,8.63-21.2,15.94A2.93,2.93,0,0,1,396,91Z"/><path class="cls-8" d="M397.36,267c0-7.68,3.61-10.15,10.68-6.89,1.95.9,2.72-.17,4-.66,3.8-1.41,6.34.17,6.65,4.24.21,2.69.11,5.41.12,8.12,0,1,.13,2.24-1.23,2.38-1.58.15-1.91-1.17-2-2.37-.12-2.19-.08-4.4-.14-6.59,0-1.37-.05-3-1.93-2.95a3,3,0,0,0-3.3,2.54c-.31,2.35-.34,4.72-.53,7.08-.07,1,0,2.23-1.36,2.3-1.62.09-1.84-1.16-1.86-2.41,0-2,0-4.07,0-6.1,0-1.84-.26-3.58-2.63-3.4-2,.15-2.91,1.46-2.85,3.48,0,1.7,0,3.39-.07,5.08-.08,1.44.35,3.44-1.95,3.36-1.9-.07-1.59-1.84-1.64-3.14S397.36,268.38,397.36,267Z"/><path class="cls-8" d="M295.91,270.94l-5.27-8.45c-.57-.91-2.12-1.76-.58-2.89,1.22-.89,2.21.15,3,1a14.71,14.71,0,0,1,1.18,1.63c3.24,4.67,3.21,4.65,5.78-.23.66-1.26,1.11-3.39,3.07-2.61,2.38.95.49,2.51-.06,3.7q-3.36,7.35-6.87,14.64c-.76,1.57-1.23,4.48-3.42,3.54s0-3,.53-4.52A63.14,63.14,0,0,1,295.91,270.94Z"/><path class="cls-8" d="M45.65,259a24.85,24.85,0,0,1,3,.39c1.18.3,1.47,1.27,1.35,2.37-.18,1.66-1.15,1.09-2.14.81-2.45-.68-4.74-.55-6.21,1.91a4.44,4.44,0,0,0,0,4.8c1.51,2.58,3.77,2.52,6.18,1.69,1.11-.38,2-.56,2.15.94s-.84,2.09-2,2.55c-3.31,1.33-8.33-.72-9.78-4.25-1.59-3.85-.74-7.28,2.68-9.81A7.59,7.59,0,0,1,45.65,259Z"/><path class="cls-8" d="M247.94,255.13c1.72,1.12,1.7,4.08,4.08,5.27.77.38-.73,1.4-1.48,2-2.62,2.27-.72,5.37-1.26,8.05-.28,1.39.48,3.53-1.59,3.71-2.6.21-1.84-2.19-2.17-3.71-.64-2.93,1.58-6.39-1.83-8.88C242.84,261,246.38,255.05,247.94,255.13Z"/><path class="cls-8" d="M375.64,267c1.56-2.72,2.62-4.76,3.87-6.69.54-.84,1.5-1.51,2.55-.69.88.68.23,1.52,0,2.29a2.35,2.35,0,0,1-.22.45c-2.18,3.63-2.79,10.4-6.34,10.33-3.11-.05-4-7-6.34-10.64-.55-.85-.86-2,.34-2.61s1.88.17,2.43,1.14C373,262.49,374.09,264.36,375.64,267Z"/><path class="cls-8" d="M476.27,274.3c-1.85,0-1.52-1.38-1.72-2.51-.63-3.57,1.73-7.78-2.27-10.84-.23-.18,1.7-4.3,3.4-5.55s1.41,1.36,2.11,2.24c1.67,2.11,4.42,3.37.18,6.11-1.24.81-.2,5.13-.2,7.84C477.77,272.78,477.87,274,476.27,274.3Z"/><path class="cls-8" d="M96.13,254.5c2.19,2.08,2.4,4.71,4.8,5.95,1.15.59-.78,1.63-1.85,2-1.64.54-1,1.93-1.06,3-.1,2.18,0,4.37-.06,6.55,0,1.22-.26,2.51-1.88,2.36-1.3-.13-1.22-1.34-1.37-2.33-.55-3.63,1.12-7.53-1.91-11C92.24,260.35,94.79,257,96.13,254.5Z"/><path class="cls-8" d="M230.1,266.8v-1.52c0-4.95,2.74-7.36,7.47-6.53A2.24,2.24,0,0,1,239,260a1.47,1.47,0,0,1-1.11,1.95c-5.18.69-4.45,4.54-4.59,8.07-.06,1.5.93,4.14-1.38,4.2-2.84.08-1.48-2.77-1.78-4.37A16.11,16.11,0,0,1,230.1,266.8Z"/><path class="cls-8" d="M106.14,266.61c0-1.17,0-2.35,0-3.52,0-2.25-.58-4.79,3.3-2.74,1.49.78,4-3,5.16-.4s-2.71,2-3.94,3.4c-1.8,2-.73,4.49-1.31,6.68-.39,1.45.83,4.12-1.53,4.06-2.61,0-1.53-2.79-1.72-4.46a27.64,27.64,0,0,1,0-3Z"/><path class="cls-8" d="M79.32,260.2c6.24-2.41,8.49-.94,8.55,5.6a24.86,24.86,0,0,1-.05,4.05c-.25,1.59,1.22,4.51-1.66,4.36-2.6-.13-1.21-3-1.5-4.64-.41-2.41,1-5.11-1.18-7.24C82.5,260.81,79.49,263.27,79.32,260.2Z"/><path class="cls-8" d="M164,273.3a2.31,2.31,0,0,0-.08-2.86c-1.14-2.52-.93-5.14-.57-7.77,2.22-3.58.14-7.79,1.69-11.47h0c1.46-1,2.4-.28,2.36,1.17-.2,7.31.93,14.65-.6,21.91C165.57,274.77,164.89,273.74,164,273.3Z"/><path class="cls-8" d="M324.75,273.51c-1.84,2.12-2.57.8-2.84-1a34.6,34.6,0,0,1-.11-4.56c0-8.82,2.55-10.66,11.2-7.82a4.79,4.79,0,0,0,2.93,0c1.7.76,5.24-.7,4.16,3.43-2-2.32-3.84-.56-5.74.12l-.67-.08a4.52,4.52,0,0,1-2.08-1.88,3.54,3.54,0,0,0-.31-.37c-.2.09-.19.32,0,.71,0,.45-.2.64-.63.62-2.45-.89-4.28,0-5.66,2C323.41,266.77,323.34,269.11,324.75,273.51Z"/><path class="cls-8" d="M340.09,263.47c.17-3-3.48-1.44-4.16-3.43,5-1.73,7-.56,7.23,4.36.12,2.67,0,5.36,0,8,0,1.11-.45,2-1.76,1.89-1.07-.08-1.27-1-1.29-1.82C340.07,269.5,340.09,266.48,340.09,263.47Z"/><path class="cls-8" d="M461.26,259.15c4.71-.56,6.48,1.87,6.4,6.23,0,1.69.08,3.39,0,5.07-.08,1.37.84,3.65-1.32,3.7-2.48.06-1.65-2.41-1.85-3.94-.35-2.61.79-5.43-1.13-7.81C463,261.1,457.92,262.81,461.26,259.15Z"/><path class="cls-8" d="M428.09,267.94c-.79,1.71,1.92,5.94-1.34,5.93-3.66,0-1.23-4.34-1.8-6.69a14.28,14.28,0,0,1-.09-4c.08-1.36-.82-3.46,1.53-3.56s1.78,1.85,1.71,3.34S428.09,266,428.09,267.94Z"/><path class="cls-8" d="M391.19,267.18c-.77,1.91,1.65,6.85-1.46,6.77-3.43-.1-1.19-5-1.71-7.7a18.87,18.87,0,0,1-.06-4.05c0-1.31-.28-3,1.88-2.75,1.86.21,1.85,1.56,1.65,3C391.3,263.82,391.31,265.18,391.19,267.18Z"/><path class="cls-8" d="M461.26,259.15c-1.58,2.53,1.77,1.92,2.08,3.25l-5,1c-2.07.74-2.07.74-2.09,5,.09-3.4.09-3.4,2.1-5,0,2.85,0,5.7-.06,8.55,0,1.48-.45,2.74-2.25,2.62-1.5-.1-1.81-1.24-1.82-2.52,0-1.85,0-3.69,0-5.54C454.22,259.54,454.22,259.54,461.26,259.15Z"/><path class="cls-8" d="M79.32,260.2c.8,1.85,3.2.58,4.16,2.13a8,8,0,0,0-4.82,1.17c-2.27.42-2.27.42-2.29,4.52.18-3.44.18-3.44,2.19-4.47,0,2.35,0,4.71-.14,7.05-.08,1.52.78,3.83-1.83,3.89-2.92.07-2.13-2.42-2.19-4.12-.09-2.52,0-5-.05-7.56C74.23,258.49,75.8,257.52,79.32,260.2Z"/><path class="cls-8" d="M324.75,273.51c-3.33-1.1-1.56-3.88-1.83-5.9a49.52,49.52,0,0,1-.06-6.46c2.62.3,1.63,2.3,2.15,3.47Q324.89,269.07,324.75,273.51Z"/><path class="cls-8" d="M334.35,263.59c-.05,2.83-.08,5.66-.17,8.49,0,1.22-.35,2.46-1.92,2.28-1.22-.14-1.39-1.26-1.41-2.3-.07-3.15-.12-6.31-.18-9.47l.36-.32c3.42,3,.41,6.45,1.41,9.17,1.55-2-1.9-5.91,1.44-8.16C334,263.38,334.2,263.48,334.35,263.59Z"/><path class="cls-9" d="M446,128.83c.06.78.13,1.57.19,2.35-.06,1.25-.11,2.49-.16,3.74-1,2.36-.21,4.84-.51,7.25-.14,1.15.7,2.77-1.31,3.17l-.42-.32c.08-4.05.14-8.1.25-12.15C444.08,131.24,443.62,129.34,446,128.83Z"/><path class="cls-8" d="M392.06,255c-.46,1.26-1.15,2.19-2.6,1.84a2.47,2.47,0,0,1-2.13-2.93A2.15,2.15,0,0,1,390,252.1,2.45,2.45,0,0,1,392.06,255Z"/><path class="cls-10" d="M310.48,69.75c4.5.28,5.42,2.07,3.24,6.27C311.31,74.61,312.9,71.15,310.48,69.75Z"/><path class="cls-8" d="M426.65,256.73c-1.46-.36-2.22-1.2-2.08-2.53a1.94,1.94,0,0,1,2.48-1.8,1.91,1.91,0,0,1,1.68,2.14C428.59,255.77,428,256.72,426.65,256.73Z"/><path class="cls-8" d="M165,251.2c-.23,4.14,1.2,8.46-1.37,12.34-.61-1-1.14-.78-1.77-1.21a1.71,1.71,0,0,0,.9-1.81C165.66,257.92,162.48,253.87,165,251.2Z"/><path class="cls-10" d="M313.74,76c-.42,3.36,1.93,6.76-.11,10.1C314.25,82.73,310.78,79.32,313.74,76Z"/><path class="cls-11" d="M444,94.46,440.15,94c.31-3,3-2.35,4.78-3.09C444.6,92.11,444.28,93.29,444,94.46Z"/><path class="cls-4" d="M423.57,150.28c-1.94-.31-2.11-1.93-2.16-3.52-.4-11.21.32-22.29,4.06-33,1.9-5.41,1.33-6-4.46-5.09-1.64.25-2.69,1.2-4,1.91-3.93,2.11-5.44,6.33-8.42,9.27-5.36,5.31-10.42,10.92-15.62,16.39-4.63,4.88-9.25,9.77-13.95,14.58-.78.8-1.86,1.83-3.1,1.3-1.58-.67-.35-2.07-.44-3.14a70.43,70.43,0,0,0-.66-7.58c-2.44-12.28,4.39-22.12,8.52-32.66.73-1.85,2.73-3.79,1.39-5.55-1.53-2-4.38-1.28-6,.06-5.22,4.4-12.24,4.35-17.85,7.69-1.38.81-3,.62-4.76-.22-4.39-2.06-9-5.54-13.69-4.59-6.56,1.32-13.06.74-19.54,1.48-3.66.41-6.63,2.57-5.88-4.18.88-7.8,2.16-15.53,3.48-23.23,1.4-8.13,4.86-15.76,8.22-23.32,1.18-2.65,2.71-6,.39-8.08-2.61-2.38-5.21,1-7.85,1.77a2.33,2.33,0,0,0-1.26.82c-5.32,7.77-13.6,11.91-20.92,17.24-2.23,1.63-4.85,4.06-2.73,6.61s6,2.38,8.8.29c2.07-1.54,3.57-3.84,5.32-5.79,3.61.78,4.64,2.9,3.24,6.27l0,0c-2.1,3.34,2,6.76-.11,10.1-.89,6.29-1.53,12.63-2.72,18.86-1.58,8.19-4.37,16.09-3.45,24.75.43,4-.14,8.37-.33,12.53-.23,5.05-2.61,9.38-3.26,14.3-.75,5.63-4.94,10.44-8.51,15-.83,1.08-3.54,1.1-2.75,3.28.65,1.81,2.68.62,4.09.81a4.2,4.2,0,0,0,3.65-1.38c4.2-4.16,9.42-7,14.06-10.49a182.84,182.84,0,0,0,37-38c2.76-3.75,4.27-9.3,10.94-7.32.55.17,1.41-.75,2.14-1.13,1-.5,1.66-2,3-1.07s.77,2.33.52,3.7c-1,5.64-2.33,11.23-2.5,17a7.38,7.38,0,0,1-1.25,3.81c-4.31,6.1-4.39,13-3.62,19.9.62,5.53,8,9.75,11.33,6.41,1.82-1.81,3.89-3.12,5.79-4.69,10.12-8.35,16.57-20,26.07-28.87,1.09-1,1.19-4,3.41-2.75a5.88,5.88,0,0,1,2.94,5c-.13,7,1.46,14.18-2.66,20.78a4.91,4.91,0,0,0,.73,6.17c1.65,1.48,3.36.12,5.11-.58,4.32-1.72,7.77-4.56,11.07-7.7C426.46,152.49,427.6,150.93,423.57,150.28Zm-85-18c-6.81,7.63-13.18,15.71-20.86,22.52-1,.91-1.66,3.19-3.42,2.3-1.51-.76-.57-2.75-.74-4.19a21.49,21.49,0,0,1,0-2.54c1.74-8.62.94-17.32,1-26,0-1.87.25-3.61,3.65-3.1,4.09.61,7.84-2.44,12.32-2.7s8.29.33,10.69,3.67C343.82,126,340.78,129.79,338.57,132.28Z"/><path class="cls-12" d="M588.91,156.28c-1.66-1.94-3-.95-4.54.66-3.25,3.4-6.71,6.61-10.21,9.77-4.41,4-5.49,3.54-7.76-1.85C562,154.28,562.8,143,561.55,132c-.39-3.43-.27-6.65,3.67-8.35a3.39,3.39,0,0,0,2-3.31c-.08-1.36-1.09-1.57-2.14-1.64-13.78-1-27.24-.89-37.72,10.22a10.12,10.12,0,0,0-4.8,6.24c-2.82,9.17-7,17.94-8.15,27.61a12.83,12.83,0,0,1-1.22,5.4c-2,5.28-3,10.68-1.66,16.36,1,4.26,3.24,5.55,7.1,3.49a11.84,11.84,0,0,0,3.8-3.31q11.49-15.37,22.76-30.91c.83-1.15,1.45-2.48,3-2.13s1.17,1.8,1.4,2.93c1.76,8.69,2.63,17.56,8.2,25.14,4.41,6,7.74,6.61,11.95.45,5.08-7.42,12.86-12.15,18.3-19.21C589.43,159.18,590.39,158,588.91,156.28Zm-40.82-23.42c-1,4-1.43,8.56-3.61,11.88-6.3,9.57-13.34,18.64-20.12,27.89-.25.34-.78.47-1.56.93-1.39-5.78,1-10.83,2.06-15.91,1.79-8.79,6.93-16.37,9.89-24.79,1.62-4.6,8.65-6.21,12.34-3.21A3,3,0,0,1,548.09,132.86Z"/><path class="cls-13" d="M800.47,156c-1.51-1.62-2.86-.7-4.25.7-3.68,3.71-7.49,7.3-11.33,10.84-2.79,2.57-4.43,2.3-6.29-1.57-4.56-9.52-4.08-19.79-5.17-29.79-.53-4.86-1.76-10.35,4.31-13.68,2.09-1.15,2-3.5-1.33-4a29.66,29.66,0,0,0-9.8-.2c-2.17.19-3.52.33-4.88.42-6.62.42-12.75,1.66-18,6.52a36.14,36.14,0,0,0-10,14.73c-1.91,5.28-2.25,11-5.94,16.12-2.22,3.08-1.87,9-3.31,13.46-1.32,4.14-2.83,8.26-1.42,12.79.66,2.14-.33,5.27,2.27,6.18,2.89,1,5.62-.43,7.73-2.68,4.56-4.86,8.25-10.46,12.33-15.66s7.86-11.21,11.74-16.86c.71-1,1.49-2,2.86-1.59s.91,1.6,1.12,2.55c1.94,9,2.89,18.28,8.75,26.07,3.85,5.12,7.76,5.79,11.27.39,5.11-7.89,13.19-12.78,19-19.95C801.67,158.89,801.87,157.52,800.47,156ZM759.84,133.3c-.54,3.65-1.28,7.81-3,10.53-6.54,10.32-14.11,20-21.29,29.9l-1.45-.73c.24-10.43,3.39-20.16,7.66-29.58a94.55,94.55,0,0,0,4.27-9.65,8.48,8.48,0,0,1,12.43-4.43C760.18,130.34,760.07,131.8,759.84,133.3Z"/><path class="cls-12" d="M187,146.11c-.93.73-1.86,1.45-2.78,2.2-4.85,3.94-5.63,3.58-8.18-2-4.69-10.23-3.47-21.23-4.59-31.92-.4-3.77-.48-7.44,3.87-9.4a3,3,0,0,0,1.68-3.43c-.46-2-2.2-.94-3.37-1.25-5.89-1.58-11.82-.23-17.59.39-10.76,1.17-19.24,7.19-22.75,17.29s-7.95,20.06-10,30.75c-1.13,5.75-3.55,11.13-2,17.29,1,4.13,2.42,5.45,6.38,3.94a11.63,11.63,0,0,0,5.35-4.53c5.9-8.61,12.73-16.51,18.57-25.17,1.71-2.54,3.11-7.87,6.25-6.71,2.82,1,2.85,6.43,3,10,.34,8.27,4.74,14.62,9,21.09,1.3,2,2.72,2.35,5.05.76,6.51-4.44,10.67-11.17,16.49-16.25A5.19,5.19,0,0,0,187,146.11ZM157.9,114.47c-.9,3.91-1.06,8.39-3.15,11.57-6.55,10-13.86,19.43-20.87,29.09l-1.38-.5c-.88-5.74,1.36-11.15,2.53-16.6,1.82-8.47,6.8-15.74,9.74-23.83,1.59-4.37,8.38-5.76,12.11-2.93A3,3,0,0,1,157.9,114.47Z"/><path class="cls-14" d="M468.12,99.5l-.33-.15c-2.15-1-2.89,1-3.36,2.9A5.27,5.27,0,0,1,468.12,99.5Z"/><path class="cls-14" d="M461.83,116.93c.44-2.34.8-4.7,1.1-7.06C462.53,112.21,462.16,114.57,461.83,116.93Z"/><path class="cls-14" d="M488.22,107.39c-5.54-3.51-12.07-4.7-18.1-7,3.25,2.82,7.73,2.53,10.86,5.47C482.89,107.6,485.67,107,488.22,107.39Z"/><path class="cls-14" d="M456.25,143.83c.07-.2.14-.4.2-.6C456.39,143.43,456.32,143.63,456.25,143.83Z"/><path class="cls-14" d="M456.9,141.37c-.08.48-.19.95-.32,1.43a19.09,19.09,0,0,0,.5-2.59Z"/><path class="cls-15" d="M109.27,115.74c-7.74-1.22-14.26-6.26-22.08-7.15-3.8-.43-7-2.09-10.75-3.88,6.55-6.25,13.91-10.61,19.44-17,1.35-1.58,3.64-3.1,2.52-5.52-1.21-2.62-3-5-6.45-5a23.89,23.89,0,0,1-8.4-1.79,118.72,118.72,0,0,1-14.9-6.62C62.53,65.69,55.54,67.63,49.11,65c-9-3.72-10-2.82-15.45,5.32-1.61,2.42-1.67,3.35,1.7,4.37,4.45,1.36,8.83.32,13.21.94,2.5.35,3,1.39,3.6,3.76,1.42,5.7-2.94,10.66-1.48,16.22.75,2.86.9,6.06-1,8.17-3.51,3.81-2.7,8-2.4,12.37.69,10-.68,19.81-5.27,28.84-1.62,3.17-3.12,6-3.32,9.79s-1.71,7.49-3.17,11c-.69,1.67-2.6,3-.95,4.88,1.5,1.67,3.41.5,5.22.13,5.54-1.13,9.46-5.62,14.76-7.1a204.57,204.57,0,0,0,51.64-22.55c5.08-3.09,9.17-7.31,13.38-11.37,1.17-1.12,1.76-2.36.51-5C117.65,119.67,111.09,120.68,109.27,115.74ZM58.11,98.84C59.6,94.36,60.55,88.73,63,83.51a3.66,3.66,0,0,1,4-2.27c5.9.58,11.56,1.87,16.17,6,1.74,1.56,1.79,2.7-.37,3.79-7.36,3.71-14.69,7.48-22.08,11.12C58.39,103.33,57.73,102,58.11,98.84Zm49.06,35.56c-10.26,6.32-20.47,12.63-32.28,16-6.59,1.89-12.81,5-19.64,6.35-5.18,1-6.13.69-4.49-4.42,1.84-5.72,2.3-11.77,4.92-17.32,1.52-3.2.23-7-.51-10.46-1.13-5.22,1.83-6.46,6.41-7.15,12.61-.73,24.72,2.12,36.64,5.49,3.53,1,6.59,4,9.58,6.44C109.81,131,109.26,133.12,107.17,134.4Z"/><path class="cls-16" d="M518,125.49c-1.56-4.49-1.78-9.32-6-13-2.63-2.3-5.61-5-7.38-7.93-2.58-4.26-6.14-5.79-10.33-7.33-5.67-2.08-9.93-7.15-16.31-7.9-.49-.06-.67-1.12-1.11-1.63-4.49-2.87-9.63-4-14.62-5.55-2.52-.06-5.05-.06-7.57-.19-6.53-.34-10.06,2.88-9.74,9-.6,1-1.91,1.68-1.64,3.15,1.49,3.28,5.54,6.11,1.79,10.29-2,3.29.78,5.81,1.4,8.67,1.16,6.08,1.36,12.09-1.22,17.92a24.85,24.85,0,0,0-.21,4.31,128.21,128.21,0,0,1-1.7,24,10.58,10.58,0,0,0-.34,1.58c-.17,1.37-.36,2.83.53,3.93a6,6,0,0,0,3.94,1.87c1.19.18,1.63-1.22,1.51-2.19-.69-5.79,3-10.07,5-15a21.45,21.45,0,0,1,1.67-4.21,13,13,0,0,0,.62-1.44c.07-.2.14-.4.2-.6l.13-.43c.13-.48.24-1,.32-1.43l.18-1.16c.4-3.21.22-6.56,1.12-9.71a43.32,43.32,0,0,1,2-6.19c.65-2.44,1.18-4.91,1.64-7.38s.7-4.72,1.1-7.06c.1-.75.21-1.5.29-2.26a15,15,0,0,1,1-4.93c.07-.15.15-.29.23-.43.47-1.91,1.21-3.89,3.36-2.9l.33.15a2.3,2.3,0,0,1,1.77.64l.23.2c6,2.35,12.56,3.54,18.1,7a6.15,6.15,0,0,1,2.85,1c5,1.27,8.22,5.2,12,8.25,1.88,2.6,3.91,5.11,5.08,8.16h0a30.58,30.58,0,0,1,1.84,5.24,15.52,15.52,0,0,0,1.12,1.77c1.26,1.22,2.82,2.65,4.31,1C517.21,130.84,519,128.42,518,125.49Z"/><path class="cls-17" d="M461.83,116.93c-.46,2.47-1,4.94-1.64,7.38a43.32,43.32,0,0,0-2,6.19c-.9,3.15-.72,6.5-1.12,9.71.94-6.13,1.71-12.28,4-18.1C461.36,120.38,461.59,118.65,461.83,116.93Z"/><path class="cls-17" d="M464.43,102.25c-.08.14-.16.28-.23.43a15,15,0,0,0-1,4.93c-.08.76-.19,1.51-.29,2.26.42-2.45.87-4.88,1.43-7.3C464.38,102.46,464.41,102.36,464.43,102.25Z"/><path class="cls-17" d="M469.89,100.14a2.3,2.3,0,0,0-1.77-.64c.66.3,1.32.57,2,.84Z"/><path class="cls-17" d="M456.25,143.83a13,13,0,0,1-.62,1.44,21.45,21.45,0,0,0-1.67,4.21,16.41,16.41,0,0,0,.66-1.94A26.59,26.59,0,0,0,456.25,143.83Z"/><path class="cls-17" d="M456.45,143.23l.13-.43Z"/><path class="cls-11" d="M448,111.72c-3.48-.88-6.65,1.76-10.13.9,1.33-4.11,4.53-6.36,8.16-8.18C444.36,107.51,446.35,109.57,448,111.72Z"/><path class="cls-18" d="M444.21,145.34c1.61-3.3-.22-7.2,1.82-10.42-.14,8.56,1,17.22-2.07,25.55Q444.1,152.91,444.21,145.34Z"/><path class="cls-8" d="M223.15,267.42c-1.08,1.94,2.29,6.31-2,6.77-10,1.08-14.22-1.37-14.36-7.06a7.74,7.74,0,0,1,7.36-8C223.13,259,223.13,259,223.15,267.42Zm-3.12-.37c.28-3.14-1.57-4.69-4.54-4.85s-5,1.32-4.86,4.47c.09,2.79,1.4,4.85,5.76,5C218.67,272,219.77,269.82,220,267.05Z"/><path class="cls-8" d="M441.94,274.84c-4-.12-7-2.09-7.7-6.31-.72-4.07.86-7.57,4.83-9s7.42-.36,9.51,3.52c1.31,2.45,1.66,4.67-2.39,4.47a51.79,51.79,0,0,0-5.57.14c-1.06.06-2.64-.5-2.7,1.34,0,1.35,1,2,2.24,2.39a7,7,0,0,0,5-.32c1.07-.47,2-1.62,2.76.16.55,1.28-.71,1.69-1.42,2.33C445.24,274.65,443.69,274.66,441.94,274.84Zm4-10.24c-4-3.21-4.5-3.21-8.05,0A17.25,17.25,0,0,0,446,264.6Z"/><path class="cls-8" d="M177.2,267.55c1.4,5.23,4.72,4.5,8,3.28,1.1-.42,2.07-.71,2.62.23s-.42,1.8-1.26,2.4c-3.36,2.4-9.11,1.47-11.42-1.85s-1.27-8.86,2.15-11.38c3.11-2.29,8.33-1.31,10.81,2.06.92,1.24,1.82,2.61,1.09,4.18s-2.33,1-3.62,1.06C182.89,267.59,180.22,267.55,177.2,267.55Zm8.3-3.77c.05-1.59-2.24-1.69-3.73-1.72-1.68-.05-4,.13-4,2,0,2,2.42.83,3.76,1.25C182.89,264.78,185.42,266.24,185.5,263.78Z"/><path class="cls-8" d="M264.31,259.06a6.41,6.41,0,0,1,5.77,2.9c.91,1.36,2.18,2.93,1.41,4.64s-2.72.65-4.12.92-2.7-.08-4,.08-3.2-.86-3.4,1,1.34,2.95,3.31,3c1.35,0,2.7.21,3.92-.64,1-.72,2.29-1.25,2.91.3s-.89,2-1.85,2.57c-3.33,1.89-6.57,1.31-9.44-.9-3.16-2.44-3-6-1.94-9.23S260.56,259,264.31,259.06Zm.79,3.17c-1.67-.23-3.35-.38-4.6,1.08-.25.29-.38,1.11-.2,1.29,1.25,1.14,2.83.48,4.26.54,1.08.05,2.37.38,3.06-1A2.65,2.65,0,0,0,265.1,262.23Z"/><path class="cls-8" d="M62.82,271.66c.4-.09,1.07-.19,1.72-.36,1.26-.34,2.95-2.2,3.57.22.44,1.7-1.67,2.28-3,2.78a8,8,0,0,1-10.3-4.68,8.17,8.17,0,0,1,4.29-10.14,7.84,7.84,0,0,1,10.16,4.08c1,2.28,1,4-2.26,3.91a27.41,27.41,0,0,0-5.05.15c-1.33.22-3.88-1.27-3.7,1.52C58.34,271.36,60.62,271.61,62.82,271.66Zm3.56-7.14c-3.08-3.68-5.56-3.33-9.27.1C60.87,265.25,63.36,265.51,66.38,264.52Z"/><path class="cls-8" d="M134.52,266.64a7.9,7.9,0,0,1-7.45,8.07,7.65,7.65,0,0,1-8.29-7.61c-.06-4.79,3.13-8.06,7.81-8A7.83,7.83,0,0,1,134.52,266.64Zm-3.12.42c.16-3.14-1.77-4.73-4.6-4.88s-4.84,1.48-4.9,4.54,1.43,4.74,3.69,4.84C129.51,271.6,131.23,270.1,131.4,267.06Z"/><path class="cls-8" d="M356.39,259.18a7.88,7.88,0,0,1,8,7.95,8.08,8.08,0,0,1-16.14-.24C348.26,262.42,351.7,259.15,356.39,259.18Zm-.25,3.05c-2.86.08-4.8,1.62-4.72,4.68.08,3.26,2,4.8,5.24,4.65s4.29-2.16,4.65-5A4.72,4.72,0,0,0,356.14,262.23Z"/><path class="cls-8" d="M491.68,259.18a7.88,7.88,0,0,1,8,7.95,8.08,8.08,0,0,1-16.14-.24C483.55,262.42,487,259.15,491.68,259.18Zm-.25,3.05c-2.86.08-4.8,1.62-4.72,4.68.08,3.26,2,4.8,5.24,4.65s4.29-2.16,4.65-5A4.72,4.72,0,0,0,491.43,262.23Z"/><path class="cls-8" d="M164,270.28l-.06.16c-2.44,1.25-4.92,2.27-7.24-.13a4.6,4.6,0,0,1-1.17-5.46c1.33-3.08,3.94-2.49,6.39-2.52l.63.43c.73-.61,1.12-1.3.27-2.24-2.8-1.59-5.64-2.31-8.37.08a7.87,7.87,0,0,0-2.59,7.78c1.07,5.71,5.89,7.64,12.16,4.92C166,272.05,165.26,271.13,164,270.28Z"/><path class="cls-8" d="M167.67,251.21c0-1.16-1.72-1.4-2.64,0,1.83.09,2.11,1.27,2.08,2.79-.13,6.77-.22,13.53-.32,20.29C169.51,266.7,167.83,258.91,167.67,251.21Z"/><path class="cls-8" d="M333.88,263.28c-2,2.85-.07,6.3-1.35,9.53-1.52-3.57.79-7.37-1.5-10.54l-2.35-1.71C331.39,259.82,332.82,261.2,333.88,263.28Z"/><path class="cls-8" d="M458.35,263.4c-2.54,2.85.1,6.61-2.35,10.77-1.24-4.9-.61-8.9-.53-12.83,0-.23.77-.69,1.11-.63,1.46.27,1.67,1.47,1.76,2.69Z"/><path class="cls-8" d="M78.56,263.55c-2.6,2.79.07,6.56-2.35,10.6-1.34-4.69-.59-8.59-.69-12.38a1,1,0,0,1,1.31-1c1.36.4,1.56,1.62,1.83,2.77Z"/><path class="cls-18" d="M441.76,161.66c-.45,3,.69,4.8,4.16,5.33-2.94-7.54,3.82-12.18,5.22-18.46,2.22,6.19-.19,11.84-2,17.56-1,2.47-1.85,5-2.78,7.55-.43,1.15-1.8,2.46-.38,3.6,1.11.9,2.57.38,3.83-.19a15.08,15.08,0,0,0,1.76-1,19.73,19.73,0,0,1,6.11-2.25c6-.7,10.3-5.1,15.67-7.16a7.05,7.05,0,0,1,1.21-.65c3.12-1.21,6.39-2.09,9-4.33a7,7,0,0,1,1.15-.69,7.51,7.51,0,0,0,3.26-2.12,6.51,6.51,0,0,1,1.64-1.21c3.85-1.73,6.68-4.88,10-7.28.32-.32.67-.61,1-.91A23.7,23.7,0,0,0,506,142.6c.2-.41.42-.81.65-1.21,2.48-2.62,1.2-6.29,2.56-9.22,1.18.38,2.86,2.56,3.24,1.29.68-2.28,3.18-3.72,2.34-6.82-2.18-8-7.43-13.69-12.59-19.86a20.47,20.47,0,0,0-11.83-7.34c-2.28-.56-5.11-1.28-6-4.56-.65-2.38-3.18-1.07-4.87-1.42-2.4-.49-5.82.26-5-4.11,4-2,7.14-.38,10,2.39,9.63,4.06,16.93,11.29,24.6,18,3,4.59,7.54,8.3,8,14.3.14.65.27,1.3.4,2,2.17,6.32-1,11.85-3,17.34-2.5,6.66-7.79,11.27-13.58,15.23l0,0a86.22,86.22,0,0,1-17.69,11.57A111.62,111.62,0,0,1,470.35,175L453,183c-2,1.91-4.88,1.79-7.16,3.06v0c-3.5.92-5.77,4.09-9.24,5.08-3.88,3.26-6.57,8.71-13.08,7.18-2.68-6.81-1.89-10.64,4.24-14.38,6.58-4,10.26-9.41,11.19-17C439.18,165.06,438.82,162.33,441.76,161.66Z"/></svg>