<?xml version="1.0" encoding="utf-8"?>
<!-- Generator: Adobe Illustrator 24.3.0, SVG Export Plug-In . SVG Version: 6.00 Build 0)  -->
<svg version="1.1" id="Camada_1" xmlns="http://www.w3.org/2000/svg" xmlns:xlink="http://www.w3.org/1999/xlink" x="0px" y="0px"
	 viewBox="0 0 143.6 112.8" style="enable-background:new 0 0 143.6 112.8;" xml:space="preserve">
<style type="text/css">
	.st0{fill:#496D50;}
</style>
<image style="overflow:visible;enable-background:new    ;" width="1919" height="257" xlink:href="EBC589B2.png"  transform="matrix(1 0 0 1 -1021 -471)">
</image>
<path d="M-637.3-95c-0.1-1.7-0.2-3.7-0.2-5.2h0c-0.4,1.4-0.9,2.9-1.5,4.6l-2.2,5.9h-1.2l-2-5.8c-0.6-1.7-1.1-3.3-1.4-4.7l0,0
	c0,1.5-0.1,3.5-0.2,5.4l-0.3,5.2h-1.5l0.9-12.1h2l2.1,5.9c0.5,1.5,0.9,2.8,1.2,4.1h0.1c0.3-1.2,0.7-2.5,1.3-4.1l2.2-5.9h2l0.8,12.1
	h-1.5L-637.3-95z"/>
<path d="M-631.1-100.9c0,0.6-0.4,1-1,1s-1-0.4-1-1s0.4-1,1-1c0.5,0,1,0.4,1,0.9C-631.1-100.9-631.1-100.9-631.1-100.9z M-632.9-89.7
	v-8.7h1.6v8.7H-632.9z"/>
<path d="M-617-94.1c0.2,2.3-1.5,4.4-3.9,4.6c-0.2,0-0.3,0-0.5,0c-2.3,0-4.2-1.8-4.2-4.1c0-0.1,0-0.3,0-0.4c0-2.9,1.9-4.6,4.3-4.6
	S-617-96.8-617-94.1z M-623.9-94c0,1.9,1.1,3.4,2.6,3.4c1.5,0,2.7-1.4,2.7-3.4c0-1.5-0.7-3.4-2.6-3.4S-623.9-95.7-623.9-94
	L-623.9-94z"/>
<path d="M-611.8-102.2l-2.2,2.6h-1.1l1.6-2.6H-611.8z M-615-89.7v-8.7h1.6v8.7H-615z"/>
<path d="M-603.3-102.5V-92c0,0.8,0,1.7,0.1,2.2h-1.4l-0.1-1.5l0,0c-0.6,1.1-1.8,1.8-3,1.7c-2.1,0-3.7-1.8-3.7-4.4
	c0-2.9,1.8-4.7,3.9-4.7c1-0.1,2.1,0.4,2.6,1.3l0,0v-5.2L-603.3-102.5z M-604.8-94.9c0-0.2,0-0.4-0.1-0.7c-0.2-1.1-1.2-1.8-2.3-1.8
	c-1.6,0-2.6,1.4-2.6,3.4c0,1.8,0.9,3.2,2.6,3.2c1.1,0,2.1-0.8,2.3-1.9c0.1-0.2,0.1-0.5,0.1-0.7V-94.9z"/>
<path d="M-592.7-94.1c0.2,2.3-1.5,4.4-3.9,4.6c-0.2,0-0.3,0-0.5,0c-2.3,0-4.2-1.8-4.2-4.1c0-0.1,0-0.3,0-0.4c0-2.9,1.9-4.6,4.3-4.6
	c2.3,0,4.2,1.8,4.2,4C-592.7-94.4-592.7-94.3-592.7-94.1z M-599.7-94c0,1.9,1.1,3.4,2.7,3.4s2.7-1.4,2.7-3.4c0-1.5-0.7-3.4-2.6-3.4
	S-599.7-95.7-599.7-94L-599.7-94z"/>
<path d="M-586-93.8c-0.1,1.5,1,2.9,2.6,3c0.1,0,0.3,0,0.4,0c0.8,0,1.6-0.1,2.4-0.5l0.3,1.1c-0.9,0.4-1.9,0.6-2.9,0.5
	c-2.2,0.2-4.1-1.5-4.3-3.7c0-0.2,0-0.5,0-0.7c0-2.6,1.5-4.7,4.1-4.7c2.9,0,3.6,2.5,3.6,4.1c0,0.2,0,0.5-0.1,0.7L-586-93.8z
	 M-581.3-94.9c0.2-1.2-0.7-2.4-1.9-2.6c-0.1,0-0.2,0-0.3,0c-1.4,0.1-2.4,1.2-2.4,2.6H-581.3z"/>
<path d="M-578.1-91.3c0.6,0.4,1.3,0.6,2.1,0.6c1.2,0,1.7-0.6,1.7-1.3s-0.5-1.2-1.6-1.6c-1.6-0.5-2.3-1.4-2.3-2.5
	c0-1.4,1.1-2.6,3-2.6c0.8,0,1.5,0.2,2.2,0.5l-0.4,1.1c-0.5-0.3-1.2-0.5-1.8-0.5c-0.9,0-1.5,0.5-1.5,1.2s0.5,1,1.7,1.5
	c1.5,0.6,2.3,1.3,2.3,2.6c0,1.5-1.2,2.6-3.3,2.6c-0.9,0-1.7-0.2-2.5-0.6L-578.1-91.3z"/>
<path d="M-564.6-90c-0.8,0.3-1.6,0.5-2.5,0.5c-2.3,0.1-4.2-1.6-4.3-3.9c0-0.2,0-0.3,0-0.5c-0.1-2.4,1.8-4.5,4.2-4.6
	c0.2,0,0.3,0,0.5,0c0.8,0,1.5,0.1,2.2,0.5l-0.4,1.2c-0.6-0.3-1.2-0.4-1.8-0.4c-1.7-0.1-3,1.2-3.1,2.9c0,0.1,0,0.3,0,0.4
	c-0.1,1.7,1.1,3.1,2.7,3.2c0.1,0,0.2,0,0.3,0c0.7,0,1.4-0.1,2-0.4L-564.6-90z"/>
<path d="M-555.4-92.1c0,0.9,0,1.7,0.1,2.4h-1.4l-0.1-1.4l0,0c-0.6,1-1.7,1.6-2.9,1.6c-1.4,0-3-0.8-3-3.8v-5.1h1.6v4.8
	c0,1.7,0.5,2.8,1.9,2.8c0.9,0,1.7-0.6,2.1-1.4c0.1-0.3,0.1-0.5,0.2-0.8v-5.4h1.6L-555.4-92.1z"/>
<path d="M-546.6-90c-0.8,0.3-1.6,0.5-2.5,0.5c-2.3,0.1-4.2-1.6-4.3-3.9c0-0.2,0-0.4,0-0.5c-0.1-2.4,1.8-4.5,4.2-4.6
	c0.2,0,0.3,0,0.5,0c0.8,0,1.5,0.1,2.2,0.5l-0.4,1.2c-0.6-0.3-1.2-0.4-1.8-0.4c-1.7-0.1-3,1.2-3.1,2.9c0,0.1,0,0.3,0,0.4
	c-0.1,1.7,1.1,3.1,2.7,3.2c0.1,0,0.2,0,0.3,0c0.7,0,1.3-0.1,2-0.4L-546.6-90z"/>
<path d="M-544.7-102.5h1.6v5.5l0,0c0.3-0.5,0.7-0.9,1.1-1.1c0.5-0.3,1.1-0.4,1.6-0.5c1.2,0,3.1,0.7,3.1,3.7v5.2h-1.6v-5
	c0-1.4-0.5-2.6-2-2.6c-1,0-1.8,0.7-2.1,1.6c-0.1,0.2-0.1,0.5-0.1,0.8v5.3h-1.6L-544.7-102.5z"/>
<path d="M-529.9-89.7l-0.1-1.1h0c-0.6,0.8-1.6,1.3-2.7,1.3c-1.4,0.1-2.6-0.9-2.7-2.3c0-0.1,0-0.1,0-0.2c0-2.1,1.9-3.3,5.2-3.2v-0.2
	c0.1-1-0.6-1.9-1.6-2c-0.1,0-0.3,0-0.4,0c-0.8,0-1.6,0.2-2.3,0.6l-0.4-1c0.9-0.5,1.9-0.8,2.9-0.8c2.7,0,3.3,1.8,3.3,3.6v3.2
	c0,0.7,0,1.4,0.2,2.1L-529.9-89.7z M-530.2-94.1c-1.7,0-3.7,0.3-3.7,2c-0.1,0.8,0.5,1.4,1.3,1.5c0.1,0,0.1,0,0.2,0
	c0.9,0,1.8-0.6,2.1-1.5c0.1-0.2,0.1-0.3,0.1-0.5V-94.1z"/>
<path d="M-637.3-73.4c-0.1-1.7-0.2-3.7-0.2-5.2h0c-0.4,1.4-0.9,2.9-1.5,4.6l-2.2,5.9h-1.2l-2-5.8c-0.6-1.7-1.1-3.3-1.4-4.7l0,0
	c0,1.5-0.1,3.5-0.2,5.4l-0.3,5.2h-1.5l0.9-12.1h2l2.1,5.9c0.5,1.5,0.9,2.8,1.2,4.1h0.1c0.3-1.2,0.7-2.5,1.3-4.1l2.2-5.9h2l0.8,12.1
	h-1.5L-637.3-73.4z"/>
<path d="M-631.1-79.3c0,0.6-0.4,1-1,1s-1-0.4-1-1s0.4-1,1-1c0.5,0,1,0.4,1,0.9C-631.1-79.3-631.1-79.3-631.1-79.3z M-632.9-68.1
	v-8.7h1.6v8.7H-632.9z"/>
<path d="M-618.7-68.4c-0.8,0.3-1.6,0.5-2.5,0.5c-2.3,0.1-4.2-1.6-4.3-3.9c0-0.2,0-0.3,0-0.5c-0.1-2.4,1.8-4.5,4.2-4.6
	c0.2,0,0.3,0,0.5,0c0.8,0,1.5,0.1,2.2,0.5l-0.4,1.2c-0.6-0.3-1.2-0.4-1.8-0.4c-1.7-0.1-3,1.2-3.1,2.9c0,0.1,0,0.3,0,0.4
	c-0.1,1.7,1.1,3.1,2.7,3.2c0.1,0,0.2,0,0.3,0c0.7,0,1.3-0.1,2-0.4L-618.7-68.4z"/>
<path d="M-609-72.5c0.2,2.3-1.5,4.4-3.9,4.6c-0.2,0-0.3,0-0.5,0c-2.3,0-4.2-1.8-4.2-4.1c0-0.1,0-0.3,0-0.4c0-2.9,1.9-4.6,4.3-4.6
	c2.3,0,4.2,1.8,4.2,4C-609-72.8-609-72.7-609-72.5z M-615.9-72.4c0,1.9,1.1,3.4,2.7,3.4s2.7-1.4,2.7-3.4c0-1.5-0.7-3.4-2.6-3.4
	S-616-74.1-615.9-72.4L-615.9-72.4z"/>
<path d="M-607-74.1c0-1,0-1.9-0.1-2.7h1.4l0,1.7h0.1c0.3-1.1,1.3-1.9,2.4-1.9c0.2,0,0.3,0,0.5,0v1.5c-1.2-0.3-2.3,0.4-2.6,1.6
	c0,0.1,0,0.3-0.1,0.4c0,0.2-0.1,0.5-0.1,0.7v4.6h-1.6V-74.1z"/>
<path d="M-596.4-68.1l-0.1-1.1h-0.1c-0.6,0.8-1.6,1.3-2.7,1.3c-1.4,0.1-2.6-0.9-2.7-2.3c0-0.1,0-0.1,0-0.2c0-2.1,1.9-3.3,5.2-3.2
	v-0.2c0.1-1-0.6-1.9-1.6-2c-0.1,0-0.3,0-0.4,0c-0.8,0-1.6,0.2-2.3,0.6l-0.4-1c0.9-0.5,1.9-0.8,2.9-0.8c2.7,0,3.3,1.8,3.3,3.6v3.2
	c0,0.7,0,1.4,0.1,2.1L-596.4-68.1z M-596.7-72.5c-1.7,0-3.7,0.3-3.7,2c-0.1,0.8,0.5,1.4,1.3,1.5c0.1,0,0.1,0,0.2,0
	c0.9,0,1.8-0.6,2.1-1.5c0.1-0.2,0.1-0.3,0.1-0.5V-72.5z"/>
<path d="M-593.6-69l4-5.1c0.4-0.5,0.7-0.9,1.1-1.4l0,0h-4.7v-1.3h6.6v1l-3.9,5.1c-0.4,0.5-0.7,0.9-1.1,1.4l0,0h5.1v1.3h-7.1
	L-593.6-69z"/>
<path d="M-577.1-72.5c0.2,2.3-1.5,4.4-3.9,4.6c-0.2,0-0.3,0-0.5,0c-2.3,0-4.2-1.8-4.2-4.1c0-0.1,0-0.3,0-0.4c0-2.9,1.9-4.6,4.3-4.6
	S-577.1-75.2-577.1-72.5z M-584-72.4c0,1.9,1.1,3.4,2.7,3.4c1.5,0,2.6-1.4,2.6-3.4c0-1.5-0.7-3.4-2.6-3.4S-584-74.1-584-72.4
	L-584-72.4z M-579-80.6l-2.2,2.6h-1.1l1.6-2.6H-579z"/>
<path d="M-575.1-74.5c0-0.9,0-1.6-0.1-2.4h1.4l0.1,1.4l0,0c0.6-1,1.7-1.7,2.9-1.6c1.2,0,3.1,0.7,3.1,3.7v5.2h-1.6v-5
	c0-1.4-0.5-2.6-2-2.6c-1,0-1.8,0.7-2.1,1.6c-0.1,0.2-0.1,0.5-0.1,0.7v5.2h-1.6L-575.1-74.5z"/>
<path d="M-561.3-74c0-1.1,0-2-0.1-2.8h1.4l0.1,1.5l0,0c0.6-1.1,1.8-1.7,3.1-1.7c2.1,0,3.7,1.8,3.7,4.4c0,3.1-1.9,4.7-4,4.7
	c-1.1,0.1-2.1-0.5-2.7-1.4l0,0v4.7h-1.5V-74z M-559.7-71.7c0,0.2,0,0.4,0.1,0.6c0.3,1.1,1.3,1.9,2.4,1.9c1.7,0,2.6-1.4,2.6-3.4
	c0-1.7-0.9-3.2-2.6-3.2c-1.2,0-2.2,0.9-2.4,2c-0.1,0.2-0.1,0.4-0.1,0.6V-71.7z"/>
<path d="M-546.2-68.1l-0.1-1.1h-0.1c-0.6,0.8-1.6,1.3-2.7,1.3c-1.4,0.1-2.6-0.9-2.7-2.3c0-0.1,0-0.1,0-0.2c0-2.1,1.9-3.3,5.2-3.2
	v-0.2c0.1-1-0.6-1.9-1.6-2c-0.1,0-0.3,0-0.4,0c-0.8,0-1.6,0.2-2.3,0.6l-0.4-1c0.9-0.5,1.9-0.8,2.9-0.8c2.7,0,3.3,1.8,3.3,3.6v3.2
	c0,0.7,0,1.4,0.1,2.1L-546.2-68.1z M-546.5-72.5c-1.7,0-3.7,0.3-3.7,2c-0.1,0.8,0.5,1.5,1.3,1.5c0.1,0,0.1,0,0.2,0
	c0.9,0,1.8-0.6,2.1-1.5c0.1-0.2,0.1-0.3,0.1-0.5V-72.5z"/>
<path d="M-542.4-80.9h1.6v12.8h-1.6V-80.9z"/>
<path d="M-538.1-74c0-1.1,0-2-0.1-2.8h1.4l0.1,1.5l0,0c0.6-1.1,1.8-1.7,3.1-1.7c2.1,0,3.7,1.8,3.7,4.4c0,3.1-1.9,4.7-4,4.7
	c-1.1,0.1-2.1-0.5-2.7-1.4l0,0v4.7h-1.6L-538.1-74z M-536.6-71.7c0,0.2,0,0.4,0.1,0.6c0.3,1.1,1.3,1.9,2.4,1.9
	c1.7,0,2.7-1.4,2.7-3.4c0-1.7-0.9-3.2-2.6-3.2c-1.2,0-2.2,0.9-2.4,2c-0.1,0.2-0.1,0.4-0.1,0.6V-71.7z"/>
<path d="M-526.1-79.3c0,0.6-0.4,1-1,1s-1-0.4-1-1s0.4-1,1-1c0.5,0,1,0.4,1,0.9C-526.1-79.3-526.1-79.3-526.1-79.3z M-527.9-68.1
	v-8.7h1.6v8.7H-527.9z"/>
<path d="M-521.8-79.3v2.5h2.3v1.2h-2.3v4.7c0,1.1,0.3,1.7,1.2,1.7c0.3,0,0.6,0,0.9-0.1l0.1,1.2c-0.5,0.2-0.9,0.2-1.4,0.2
	c-0.6,0-1.3-0.2-1.7-0.7c-0.5-0.7-0.7-1.5-0.6-2.3v-4.8h-1.4v-1.2h1.4v-2.1L-521.8-79.3z"/>
<path d="M-512.9-68.1l-0.1-1.1h-0.1c-0.6,0.8-1.6,1.3-2.7,1.3c-1.4,0.1-2.6-0.9-2.7-2.3c0-0.1,0-0.1,0-0.2c0-2.1,1.9-3.3,5.2-3.2
	v-0.2c0.1-1-0.6-1.9-1.6-2c-0.1,0-0.3,0-0.4,0c-0.8,0-1.6,0.2-2.3,0.6l-0.4-1c0.9-0.5,1.9-0.8,2.9-0.8c2.7,0,3.3,1.8,3.3,3.6v3.2
	c0,0.7,0,1.4,0.1,2.1L-512.9-68.1z M-513.1-72.5c-1.7,0-3.7,0.3-3.7,2c-0.1,0.8,0.5,1.4,1.3,1.5c0.1,0,0.1,0,0.2,0
	c0.9,0,1.8-0.6,2.1-1.5c0.1-0.2,0.1-0.3,0.1-0.5V-72.5z"/>
<path d="M-641.2-52.2h-4.8v4.4h5.3v1.3h-6.8v-12.1h6.6v1.3h-5v3.8h4.7L-641.2-52.2z"/>
<path d="M-638.7-59.3h1.6v12.8h-1.6V-59.3z"/>
<path d="M-625.8-46.5l-0.1-1.1h0c-0.6,0.8-1.6,1.3-2.7,1.3c-1.4,0.1-2.5-0.9-2.7-2.3c0-0.1,0-0.2,0-0.2c0-2.1,1.9-3.3,5.2-3.2v-0.2
	c0.1-1-0.6-1.9-1.6-2c-0.1,0-0.3,0-0.4,0c-0.8,0-1.6,0.2-2.3,0.6l-0.4-1c0.9-0.5,1.9-0.8,2.9-0.8c2.7,0,3.3,1.8,3.3,3.6v3.2
	c0,0.7,0,1.4,0.1,2.1L-625.8-46.5z M-626.1-50.9c-1.7,0-3.7,0.3-3.7,2c-0.1,0.8,0.5,1.4,1.3,1.5c0.1,0,0.1,0,0.2,0
	c0.9,0,1.8-0.6,2.1-1.5c0.1-0.2,0.1-0.3,0.1-0.5L-626.1-50.9z"/>
<path d="M-622-59.3h1.6v12.8h-1.6V-59.3z"/>
<path d="M-617.8-52.9c0-0.9,0-1.6-0.1-2.4h1.4l0.1,1.4h0c0.5-1,1.6-1.6,2.7-1.6c1.1,0,2.1,0.7,2.5,1.8l0,0c0.2-0.4,0.6-0.8,1-1.1
	c0.6-0.4,1.2-0.6,1.9-0.6c1.1,0,2.9,0.8,2.9,3.8v5.1h-1.5v-4.9c0-1.7-0.6-2.7-1.9-2.7c-0.9,0-1.6,0.6-1.9,1.4
	c-0.1,0.3-0.1,0.5-0.1,0.8v5.4h-1.6v-5.2c0-1.4-0.6-2.4-1.8-2.4c-0.9,0-1.7,0.7-2,1.6c-0.1,0.3-0.1,0.5-0.1,0.8v5.2h-1.6
	L-617.8-52.9z"/>
<path d="M-597.9-46.5l-0.1-1.1l0,0c-0.6,0.8-1.6,1.3-2.7,1.3c-1.4,0.1-2.6-0.9-2.7-2.3c0-0.1,0-0.1,0-0.2c0-2.1,1.9-3.3,5.2-3.2
	v-0.2c0.1-1-0.6-1.9-1.6-2c-0.1,0-0.3,0-0.4,0c-0.8,0-1.6,0.2-2.3,0.6l-0.4-1c0.9-0.5,1.9-0.8,2.9-0.8c2.7,0,3.3,1.8,3.3,3.6v3.2
	c0,0.7,0,1.4,0.1,2.1L-597.9-46.5z M-598.1-50.9c-1.7,0-3.7,0.3-3.7,2c-0.1,0.8,0.5,1.4,1.3,1.5c0.1,0,0.1,0,0.2,0
	c0.9,0,1.8-0.6,2.1-1.5c0.1-0.2,0.1-0.3,0.1-0.5V-50.9z"/>
<path d="M-582.7-59.3v10.5c0,0.8,0,1.7,0.1,2.2h-1.4l-0.1-1.5l0,0c-0.6,1.1-1.8,1.8-3,1.7c-2.1,0-3.7-1.8-3.7-4.4
	c0-2.9,1.8-4.7,3.9-4.7c1.1-0.1,2.1,0.4,2.6,1.3l0,0v-5.2L-582.7-59.3z M-584.3-51.7c0-0.2,0-0.4-0.1-0.7c-0.2-1.1-1.2-1.8-2.3-1.8
	c-1.6,0-2.6,1.4-2.6,3.4c0,1.8,0.9,3.2,2.6,3.2c1.1,0,2.1-0.8,2.3-1.9c0.1-0.2,0.1-0.5,0.1-0.7V-51.7z"/>
<path d="M-579.2-50.6c-0.1,1.5,1,2.9,2.6,3c0.1,0,0.3,0,0.4,0c0.8,0,1.6-0.1,2.4-0.5l0.3,1.1c-0.9,0.4-1.9,0.6-2.9,0.5
	c-2.2,0.2-4.1-1.5-4.3-3.7c0-0.2,0-0.5,0-0.7c0-2.6,1.5-4.7,4.1-4.7c2.8,0,3.6,2.5,3.6,4.1c0,0.2,0,0.5-0.1,0.7L-579.2-50.6z
	 M-574.6-51.7c0.2-1.2-0.7-2.4-1.9-2.6c-0.1,0-0.2,0-0.3,0c-1.4,0.1-2.4,1.2-2.4,2.6H-574.6z"/>
<path d="M-571.3-48.1c0.6,0.4,1.3,0.6,2.1,0.6c1.1,0,1.7-0.6,1.7-1.3s-0.5-1.2-1.6-1.6c-1.6-0.5-2.3-1.4-2.3-2.5
	c0-1.4,1.1-2.6,3-2.6c0.8,0,1.5,0.2,2.1,0.5l-0.4,1.1c-0.5-0.3-1.2-0.5-1.8-0.5c-0.9,0-1.5,0.5-1.5,1.2s0.5,1,1.7,1.5
	c1.5,0.6,2.3,1.3,2.3,2.6c0,1.5-1.2,2.6-3.3,2.6c-0.9,0-1.7-0.2-2.5-0.6L-571.3-48.1z"/>
<path d="M-564-52.4c0-1.1,0-2-0.1-2.8h1.4l0.1,1.5l0,0c0.6-1.1,1.8-1.7,3.1-1.7c2.1,0,3.7,1.8,3.7,4.4c0,3.1-1.9,4.7-4,4.7
	c-1.1,0.1-2.1-0.5-2.7-1.4l0,0v4.7h-1.6L-564-52.4z M-562.4-50c0,0.2,0,0.4,0.1,0.6c0.3,1.1,1.3,1.9,2.4,1.9c1.7,0,2.6-1.4,2.6-3.4
	c0-1.7-0.9-3.2-2.6-3.2c-1.2,0-2.1,0.9-2.4,2c-0.1,0.2-0.1,0.4-0.1,0.6V-50z"/>
<path d="M-551.9-57.7c0,0.6-0.4,1-1,1s-1-0.4-1-1s0.4-1,1-1c0.5,0,1,0.4,1,0.9C-551.9-57.7-551.9-57.7-551.9-57.7z M-553.7-46.5
	v-8.7h1.6v8.7H-553.7z"/>
<path d="M-548.6-50.6c-0.1,1.5,1,2.9,2.6,3c0.1,0,0.3,0,0.4,0c0.8,0,1.6-0.1,2.4-0.5l0.3,1.1c-0.9,0.4-1.9,0.6-2.9,0.5
	c-2.2,0.2-4.1-1.5-4.3-3.7c0-0.2,0-0.5,0-0.7c0-2.6,1.5-4.7,4.1-4.7c2.8,0,3.6,2.5,3.6,4.1c0,0.2,0,0.5-0.1,0.7L-548.6-50.6z
	 M-544-51.7c0.2-1.2-0.7-2.4-1.9-2.6c-0.1,0-0.2,0-0.3,0c-1.4,0.1-2.4,1.2-2.4,2.6H-544z"/>
<path d="M-540.5-52.5c0-1,0-1.9-0.1-2.7h1.4l0,1.7h0.1c0.3-1.1,1.3-1.9,2.4-1.9c0.2,0,0.3,0,0.4,0v1.5c-0.2,0-0.4-0.1-0.5-0.1
	c-1.1,0-2,0.9-2.1,2c0,0.2-0.1,0.5-0.1,0.7v4.6h-1.6L-540.5-52.5z"/>
<path d="M-532.2-57.7v2.5h2.2v1.2h-2.3v4.7c0,1.1,0.3,1.7,1.2,1.7c0.3,0,0.6,0,0.9-0.1l0.1,1.2c-0.5,0.2-0.9,0.2-1.4,0.2
	c-0.6,0-1.3-0.2-1.7-0.7c-0.5-0.7-0.7-1.5-0.6-2.3V-54h-1.3v-1.2h1.3v-2.1L-532.2-57.7z"/>
<path d="M-523.4-46.5l-0.1-1.1h0c-0.6,0.8-1.6,1.3-2.7,1.3c-1.4,0.1-2.6-0.9-2.7-2.3c0-0.1,0-0.1,0-0.2c0-2.1,1.9-3.3,5.2-3.2v-0.2
	c0.1-1-0.6-1.9-1.6-2c-0.1,0-0.3,0-0.4,0c-0.8,0-1.6,0.2-2.3,0.6l-0.4-1c0.9-0.5,1.9-0.8,2.9-0.8c2.7,0,3.3,1.8,3.3,3.6v3.2
	c0,0.7,0,1.4,0.1,2.1L-523.4-46.5z M-523.6-50.9c-1.7,0-3.7,0.3-3.7,2c-0.1,0.8,0.5,1.5,1.3,1.5c0.1,0,0.1,0,0.2,0
	c0.9,0,1.8-0.6,2.1-1.5c0.1-0.2,0.1-0.3,0.1-0.5V-50.9z"/>
<path d="M-637.3-30.2c-0.1-1.7-0.2-3.7-0.2-5.2h0c-0.4,1.4-0.9,2.9-1.5,4.6l-2.2,5.9h-1.2l-2-5.8c-0.6-1.7-1.1-3.3-1.4-4.7l0,0
	c0,1.5-0.1,3.5-0.2,5.4l-0.3,5.2h-1.5L-647-37h2l2.1,5.9c0.5,1.5,0.9,2.8,1.2,4.1h0c0.3-1.2,0.7-2.5,1.3-4.1l2.2-5.9h2l0.8,12.1
	h-1.6L-637.3-30.2z"/>
<path d="M-631.1-36.1c0,0.6-0.4,1-1,1s-1-0.4-1-1s0.4-1,1-1c0.5,0,1,0.4,1,0.9C-631.1-36.1-631.1-36.1-631.1-36.1z M-632.9-24.9
	v-8.7h1.6v8.7H-632.9z"/>
<path d="M-618.7-25.2c-0.8,0.3-1.6,0.5-2.5,0.5c-2.3,0.1-4.2-1.6-4.3-3.9c0-0.2,0-0.3,0-0.5c-0.1-2.4,1.8-4.5,4.2-4.6
	c0.2,0,0.3,0,0.5,0c0.8,0,1.5,0.1,2.2,0.5l-0.4,1.2c-0.6-0.3-1.2-0.4-1.8-0.4c-1.7-0.1-3,1.2-3.1,2.9c0,0.1,0,0.3,0,0.4
	c-0.1,1.7,1.1,3.1,2.7,3.2c0.1,0,0.2,0,0.3,0c0.7,0,1.3-0.1,2-0.4L-618.7-25.2z"/>
<path d="M-609.5-27.3c0,0.9,0,1.7,0.1,2.4h-1.4l-0.1-1.4l0,0c-0.6,1-1.7,1.6-2.9,1.6c-1.4,0-3-0.8-3-3.8v-5.1h1.6v4.8
	c0,1.7,0.5,2.8,1.9,2.8c0.9,0,1.7-0.6,2.1-1.4c0.1-0.3,0.1-0.5,0.1-0.8v-5.4h1.6L-609.5-27.3z"/>
<path d="M-606-29c-0.1,1.5,1,2.9,2.6,3c0.1,0,0.3,0,0.4,0c0.8,0,1.6-0.1,2.4-0.5l0.3,1.1c-0.9,0.4-1.9,0.6-2.9,0.5
	c-2.2,0.2-4.1-1.5-4.3-3.7c0-0.2,0-0.5,0-0.7c0-2.6,1.5-4.7,4.1-4.7c2.9,0,3.6,2.5,3.6,4.1c0,0.2,0,0.5,0,0.7L-606-29z M-601.4-30.1
	c0.2-1.2-0.7-2.4-1.9-2.6c-0.1,0-0.2,0-0.3,0c-1.4,0.1-2.4,1.2-2.5,2.6L-601.4-30.1z"/>
<path d="M-597.9-30.9c0-1,0-1.9-0.1-2.7h1.4l0,1.7h0.1c0.3-1.1,1.3-1.9,2.4-1.9c0.2,0,0.3,0,0.5,0v1.5c-0.2,0-0.4-0.1-0.5-0.1
	c-1.1,0-2,0.9-2.1,2c0,0.2-0.1,0.5-0.1,0.7v4.6h-1.6V-30.9z"/>
<path d="M-591.9-30.8c0-1.1,0-2-0.1-2.8h1.4l0.1,1.5l0,0c0.6-1.1,1.8-1.7,3.1-1.7c2.1,0,3.7,1.8,3.7,4.4c0,3.1-1.9,4.7-4,4.7
	c-1.1,0-2.1-0.5-2.7-1.4l0,0v4.7h-1.6L-591.9-30.8z M-590.3-28.4c0,0.2,0,0.4,0.1,0.6c0.3,1.1,1.3,1.9,2.4,1.9
	c1.7,0,2.6-1.4,2.6-3.4c0-1.7-0.9-3.2-2.6-3.2c-1.2,0-2.2,0.9-2.4,2c-0.1,0.2-0.1,0.4-0.1,0.6V-28.4z"/>
<path d="M-573.8-29.3c0.2,2.3-1.5,4.4-3.9,4.6c-0.2,0-0.3,0-0.5,0c-2.3,0-4.2-1.8-4.2-4.1c0-0.1,0-0.3,0-0.4c0-2.9,1.9-4.6,4.3-4.6
	C-575.6-33.8-573.8-32-573.8-29.3z M-580.7-29.2c0,1.9,1.1,3.4,2.6,3.4s2.6-1.4,2.6-3.4c0-1.5-0.7-3.4-2.6-3.4
	S-580.7-30.9-580.7-29.2z"/>
<path d="M-561.8-25.2c-0.8,0.4-1.6,0.5-2.5,0.5c-2.3,0.1-4.2-1.6-4.3-3.9c0-0.2,0-0.3,0-0.5c-0.1-2.4,1.8-4.5,4.2-4.6
	c0.2,0,0.3,0,0.5,0c0.8,0,1.5,0.1,2.2,0.5l-0.4,1.2c-0.6-0.3-1.2-0.4-1.8-0.4c-1.8,0.2-3.1,1.7-3,3.5c0.1,1.6,1.4,2.8,2.9,3
	c0.7,0,1.3-0.1,1.9-0.4L-561.8-25.2z"/>
<path d="M-552.1-29.3c0.2,2.3-1.5,4.4-3.9,4.6c-0.2,0-0.3,0-0.5,0c-2.3,0-4.2-1.8-4.2-4.1c0-0.1,0-0.3,0-0.4c0-2.9,1.9-4.6,4.3-4.6
	S-552.1-32-552.1-29.3z M-559.1-29.2c0,1.9,1.1,3.4,2.7,3.4s2.6-1.4,2.6-3.4c0-1.5-0.7-3.4-2.6-3.4S-559-30.9-559.1-29.2
	L-559.1-29.2z"/>
<path d="M-550.2-24.9c0-0.6,0.1-1.5,0.1-2.2v-10.5h1.6v5.5l0,0c0.6-1.1,1.8-1.7,3-1.6c2.2,0,3.7,1.8,3.7,4.5c0,3.1-2,4.7-3.9,4.7
	c-1.2,0.1-2.3-0.6-2.9-1.6l0,0l-0.1,1.4H-550.2z M-548.6-28.4c0,0.2,0,0.4,0.1,0.6c0.3,1.1,1.2,1.9,2.4,1.9c1.7,0,2.7-1.4,2.7-3.4
	c0-1.7-0.9-3.2-2.6-3.2c-1.2,0-2.1,0.8-2.4,2c-0.1,0.2-0.1,0.4-0.1,0.6V-28.4z"/>
<path d="M-539.9-30.9c0-1,0-1.9-0.1-2.7h1.4l0,1.7h0.1c0.3-1.1,1.3-1.9,2.4-1.9c0.2,0,0.3,0,0.5,0v1.5c-0.2,0-0.4-0.1-0.5-0.1
	c-1.1,0-2,0.9-2.1,2c0,0.2-0.1,0.5-0.1,0.7v4.6h-1.6V-30.9z"/>
<path d="M-529.3-24.9l-0.1-1.1h-0.1c-0.6,0.8-1.6,1.3-2.7,1.3c-1.4,0.1-2.6-0.9-2.7-2.3c0-0.1,0-0.1,0-0.2c0-2.1,1.9-3.3,5.2-3.2
	v-0.2c0.1-1-0.6-1.9-1.6-2c-0.1,0-0.3,0-0.4,0c-0.8,0-1.6,0.2-2.3,0.6l-0.4-1c0.9-0.5,1.9-0.8,2.9-0.8c2.7,0,3.3,1.8,3.3,3.6v3.2
	c0,0.7,0,1.4,0.1,2.1L-529.3-24.9z M-529.5-29.3c-1.7,0-3.7,0.3-3.7,2c-0.1,0.8,0.5,1.4,1.3,1.5c0.1,0,0.1,0,0.2,0
	c0.9,0,1.8-0.6,2.1-1.5c0.1-0.2,0.1-0.3,0.1-0.5V-29.3z"/>
<path d="M-521-33.6l1.7,4.9c0.3,0.7,0.5,1.5,0.7,2.2h0.1c0.2-0.7,0.5-1.4,0.7-2.2l1.7-4.9h1.6l-3.4,8.7h-1.5l-3.3-8.7H-521z"/>
<path d="M-511.2-36.1c0,0.6-0.4,1-1,1c-0.6,0-1-0.4-1-1s0.4-1,1-1c0.5,0,1,0.4,1,0.9C-511.2-36.1-511.2-36.1-511.2-36.1z M-513-24.9
	v-8.7h1.6v8.7H-513z"/>
<path d="M-501.2-37.7v10.5c0,0.8,0,1.7,0.1,2.2h-1.4l-0.1-1.5l0,0c-0.6,1.1-1.8,1.8-3,1.7c-2.1,0-3.7-1.8-3.7-4.4
	c0-2.9,1.8-4.7,3.9-4.7c1-0.1,2.1,0.4,2.6,1.3l0,0v-5.2L-501.2-37.7z M-502.8-30.1c0-0.2,0-0.4-0.1-0.7c-0.2-1.1-1.2-1.8-2.3-1.8
	c-1.6,0-2.6,1.4-2.6,3.4c0,1.8,0.9,3.2,2.6,3.2c1.1,0,2.1-0.8,2.3-1.9c0.1-0.2,0.1-0.5,0.1-0.7L-502.8-30.1z"/>
<path d="M-493.8-24.9l-0.1-1.1h0c-0.6,0.8-1.6,1.3-2.7,1.3c-1.4,0.1-2.6-0.9-2.7-2.3c0-0.1,0-0.1,0-0.2c0-2.1,1.9-3.3,5.2-3.2v-0.2
	c0.1-1-0.6-1.9-1.6-2c-0.1,0-0.3,0-0.4,0c-0.8,0-1.6,0.2-2.3,0.6l-0.4-1c0.9-0.5,1.9-0.8,2.9-0.8c2.7,0,3.3,1.8,3.3,3.6v3.2
	c0,0.7,0,1.4,0.2,2.1L-493.8-24.9z M-494-29.3c-1.7,0-3.7,0.3-3.7,2c-0.1,0.8,0.5,1.4,1.3,1.5c0.1,0,0.1,0,0.2,0
	c0.9,0,1.8-0.6,2.1-1.5c0.1-0.2,0.1-0.3,0.1-0.5V-29.3z"/>
<path d="M-647.8-5.2c0.8,0.5,1.8,0.8,2.8,0.8c1.6,0,2.5-0.9,2.5-2.1s-0.6-1.8-2.3-2.4c-2-0.7-3.2-1.7-3.2-3.4c0-1.9,1.6-3.3,3.9-3.3
	c0.9,0,1.8,0.2,2.7,0.6l-0.4,1.3c-0.7-0.4-1.5-0.6-2.3-0.6c-1.6,0-2.3,1-2.3,1.8c0,1.1,0.7,1.7,2.4,2.4c2,0.8,3.1,1.8,3.1,3.6
	s-1.4,3.5-4.2,3.5c-1.1,0-2.1-0.3-3.1-0.8L-647.8-5.2z"/>
<path d="M-637.7-7.4c-0.1,1.5,1,2.9,2.6,3c0.1,0,0.3,0,0.4,0c0.8,0,1.6-0.1,2.4-0.5l0.3,1.1c-0.9,0.4-1.9,0.6-2.9,0.5
	c-2.2,0.2-4.1-1.5-4.3-3.7c0-0.2,0-0.5,0-0.7c0-2.6,1.5-4.7,4.1-4.7c2.8,0,3.6,2.5,3.6,4.1c0,0.3,0,0.6,0,0.7L-637.7-7.4z
	 M-633.1-8.5c0.2-1.2-0.7-2.4-1.9-2.6c-0.1,0-0.2,0-0.3,0c-1.4,0.1-2.4,1.2-2.4,2.6H-633.1z"/>
<path d="M-625.8-9.6c0-0.9,0-1.6-0.1-2.4h1.4l0.1,1.4h0.1c0.5-1,1.6-1.6,2.7-1.6c1.1,0,2.1,0.7,2.5,1.8l0,0c0.2-0.4,0.6-0.8,1-1.1
	c0.6-0.4,1.2-0.6,1.9-0.6c1.2,0,2.9,0.8,2.9,3.8v5.1h-1.5v-4.9c0-1.7-0.6-2.7-1.9-2.7c-0.9,0-1.6,0.6-1.9,1.4
	c-0.1,0.3-0.1,0.5-0.1,0.8v5.4h-1.6v-5.2c0-1.4-0.6-2.4-1.8-2.4c-0.9,0-1.7,0.7-2,1.6c-0.1,0.3-0.1,0.5-0.1,0.8v5.2h-1.5L-625.8-9.6
	z"/>
<path d="M-603.5-5.7c0,0.9,0,1.7,0.1,2.4h-1.4l-0.1-1.4l0,0c-0.6,1-1.7,1.6-2.9,1.6c-1.4,0-3-0.8-3-3.8V-12h1.6v4.8
	c0,1.7,0.5,2.8,1.9,2.8c0.9,0,1.7-0.6,2.1-1.4c0.1-0.3,0.1-0.5,0.1-0.8V-12h1.6L-603.5-5.7z"/>
<path d="M-600-7.4c-0.1,1.5,1,2.9,2.6,3c0.1,0,0.3,0,0.4,0c0.8,0,1.6-0.1,2.4-0.5l0.3,1.1c-0.9,0.4-1.9,0.6-2.9,0.5
	c-2.2,0.2-4.1-1.5-4.3-3.7c0-0.2,0-0.5,0-0.7c0-2.6,1.5-4.7,4.1-4.7c2.9,0,3.6,2.5,3.6,4.1c0,0.2,0,0.5,0,0.7L-600-7.4z M-595.4-8.5
	c0.2-1.2-0.7-2.4-1.9-2.6c-0.1,0-0.2,0-0.3,0c-1.4,0.1-2.4,1.2-2.4,2.6H-595.4z"/>
<path d="M-591.2-12l1.7,4.9c0.3,0.8,0.5,1.5,0.7,2.2h0c0.2-0.7,0.5-1.4,0.7-2.2l1.7-4.9h1.7l-3.4,8.7h-1.5l-3.3-8.7H-591.2z"/>
<path d="M-582.5-7.4c-0.1,1.5,1,2.9,2.6,3c0.1,0,0.3,0,0.4,0c0.8,0,1.7-0.1,2.4-0.5l0.3,1.1c-0.9,0.4-1.9,0.6-2.9,0.5
	c-2.2,0.2-4.1-1.5-4.3-3.7c0-0.2,0-0.5,0-0.7c0-2.6,1.5-4.7,4.1-4.7c2.8,0,3.6,2.5,3.6,4.1c0,0.3,0,0.6,0,0.7L-582.5-7.4z
	 M-577.8-8.5c0.2-1.2-0.7-2.4-1.9-2.6c-0.1,0-0.2,0-0.3,0c-1.4,0.1-2.4,1.2-2.4,2.6H-577.8z"/>
<path d="M-717.3,66.8c-0.1-1.7,1.1-3.1,2.8-3.2c0.1,0,0.2,0,0.3,0c1.8-0.1,3.3,1.3,3.4,3.1s-1.3,3.3-3.1,3.4
	c-1.8,0.1-3.3-1.3-3.4-3.1C-717.3,66.9-717.3,66.8-717.3,66.8z"/>
<path d="M-706.7,66.8c-0.1-1.7,1.1-3.1,2.8-3.2c0.1,0,0.2,0,0.3,0c1.8-0.1,3.3,1.3,3.4,3.1c0.1,1.8-1.3,3.3-3.1,3.4
	c-1.8,0.1-3.3-1.3-3.4-3.1C-706.7,66.9-706.7,66.8-706.7,66.8z"/>
<path d="M-696.2,66.8c-0.1-1.7,1.1-3.1,2.8-3.2c0.1,0,0.2,0,0.3,0c1.8-0.1,3.3,1.3,3.4,3c0.1,1.8-1.3,3.3-3,3.4
	c-1.8,0.1-3.3-1.3-3.4-3C-696.2,66.9-696.2,66.8-696.2,66.8z"/>
<path d="M-663.3,33.2V63c0,2.2,0,4.7,0.2,6.4h-4l-0.2-4.3h-0.1c-1.6,3.1-4.9,5-8.4,4.8c-6,0-10.5-5-10.5-12.5
	c0-8.2,5-13.2,11.1-13.2c3.8,0,6.3,1.8,7.4,3.8h0.1V33.2H-663.3z M-667.8,54.8c0-0.6-0.1-1.3-0.2-1.9c-0.7-3-3.4-5.2-6.5-5.2
	c-4.6,0-7.4,4.1-7.4,9.5c0,5,2.4,9.1,7.3,9.1c3.2,0,5.9-2.3,6.5-5.4c0.1-0.6,0.2-1.3,0.2-1.9L-667.8,54.8z"/>
<path d="M-633.5,56.9c0,9.1-6.3,13.1-12.3,13.1c-6.7,0-11.8-4.9-11.8-12.7c0-8.2,5.4-13.1,12.2-13.1
	C-638.3,44.2-633.5,49.3-633.5,56.9z M-653.1,57.1c0,5.4,3.1,9.5,7.5,9.5s7.5-4,7.5-9.6c0-4.2-2.1-9.5-7.4-9.5
	S-653.1,52.5-653.1,57.1z"/>
<path d="M-627.9,51.4c0-2.5,0-4.6-0.2-6.7h4l0.2,4.1h0.1c1.6-2.9,4.8-4.7,8.2-4.6c3.4,0,8.7,2,8.7,10.5v14.7h-4.5V55.2
	c0-4-1.5-7.3-5.7-7.3c-2.8,0.1-5.2,1.9-6,4.6c-0.2,0.7-0.3,1.4-0.3,2.1v14.8h-4.5L-627.9,51.4z"/>
<path d="M-578.3,33.2V63c0,2.2,0,4.7,0.2,6.4h-4l-0.2-4.3h-0.1c-1.6,3.1-4.9,5-8.4,4.8c-6,0-10.5-5-10.5-12.5c0-8.2,5-13.2,11-13.2
	c3.8,0,6.3,1.8,7.4,3.8h0.1V33.2H-578.3z M-582.8,54.8c0-0.6-0.1-1.3-0.2-1.9c-0.7-3-3.3-5.2-6.5-5.2c-4.6,0-7.4,4.1-7.4,9.5
	c0,5,2.5,9.1,7.3,9.1c3.2,0,5.9-2.2,6.6-5.4c0.2-0.6,0.2-1.3,0.2-1.9L-582.8,54.8z"/>
<path d="M-568.4,57.9c0.1,6.1,4,8.6,8.5,8.6c2.3,0.1,4.7-0.4,6.8-1.3l0.8,3.2c-2.6,1.1-5.4,1.6-8.2,1.5c-7.6,0-12.1-5-12.1-12.4
	s4.4-13.3,11.6-13.3c8,0,10.2,7.1,10.2,11.6c0,0.7-0.1,1.4-0.1,2.1L-568.4,57.9z M-555.3,54.7c0.1-2.8-1.2-7.3-6.2-7.3
	c-4.5,0-6.5,4.2-6.9,7.3H-555.3z"/>
<path d="M-532.1,57.9c0.1,6.1,4,8.6,8.4,8.6c2.3,0.1,4.7-0.4,6.8-1.3l0.8,3.2c-2.6,1.1-5.4,1.6-8.2,1.5c-7.6,0-12.1-5-12.1-12.4
	s4.4-13.3,11.6-13.3c8,0,10.2,7.1,10.2,11.6c0,0.7-0.1,1.4-0.2,2.1H-532.1z M-518.9,54.7c0-2.8-1.2-7.3-6.2-7.3
	c-4.5,0-6.5,4.2-6.9,7.3H-518.9z"/>
<path d="M-509.1,33.2h4.5v36.2h-4.5L-509.1,33.2z"/>
<path class="st0" d="M-462.1,68.3c-2.9,1.2-6,1.7-9.1,1.6c-9.7,0-17-6.1-17-17.4c0-10.7,7.3-18,17.9-18c2.8-0.1,5.6,0.4,8.2,1.5
	l-1.1,3.6c-2.2-1-4.5-1.5-6.9-1.4c-8,0-13.4,5.1-13.4,14.2c0,8.4,4.8,13.8,13.2,13.8c2.5,0,5-0.4,7.2-1.4L-462.1,68.3z"/>
<path class="st0" d="M-436.7,62.7c0,2.5,0.1,4.8,0.2,6.7h-4l-0.2-4h-0.1c-1.7,2.9-4.8,4.6-8.2,4.6c-3.9,0-8.5-2.1-8.5-10.8V44.8h4.5
	v13.7c0,4.7,1.4,7.8,5.5,7.8c3.5,0,6.3-2.8,6.3-6.3c0,0,0,0,0-0.1V44.8h4.5V62.7z"/>
<path class="st0" d="M-426.8,57.9c0.1,6.1,4,8.6,8.5,8.6c2.3,0.1,4.7-0.4,6.8-1.3l0.8,3.2c-2.6,1.1-5.4,1.6-8.2,1.5
	c-7.6,0-12.1-5-12.1-12.4s4.4-13.3,11.6-13.3c8,0,10.2,7.1,10.2,11.6c0,0.7-0.1,1.4-0.2,2.1L-426.8,57.9z M-413.6,54.7
	c0-2.8-1.2-7.3-6.2-7.3c-4.5,0-6.5,4.2-6.9,7.3H-413.6z"/>
<path class="st0" d="M-403.8,52.5c0-2.9,0-5.4-0.2-7.7h4l0.2,4.8h0.2c1.1-3.3,3.8-5.4,6.8-5.4c0.4,0,0.9,0,1.3,0.2v4.2
	c-0.5-0.1-1-0.2-1.5-0.2c-3.2,0-5.4,2.4-6,5.8c-0.1,0.7-0.2,1.4-0.2,2.1v13.1h-4.4L-403.8,52.5z"/>
<path class="st0" d="M-386.9,52.8c0-3.2-0.1-5.7-0.2-8h4l0.2,4.2h0.1c1.8-3.1,5.2-5,8.8-4.8c6,0,10.4,5,10.4,12.5
	c0,8.9-5.4,13.2-11.2,13.2c-3,0.1-5.9-1.3-7.6-3.9h-0.1v13.4h-4.5V52.8z M-382.5,59.4c0,0.6,0.1,1.2,0.2,1.8
	c0.8,3.1,3.5,5.3,6.7,5.2c4.7,0,7.5-3.9,7.5-9.5c0-4.9-2.6-9.2-7.3-9.2c-3.3,0.1-6,2.4-6.8,5.5c-0.2,0.6-0.3,1.2-0.3,1.8
	L-382.5,59.4z"/>
<path class="st0" d="M-335.6,56.9c0,9.1-6.3,13.1-12.3,13.1c-6.7,0-11.8-4.9-11.8-12.7c0-8.2,5.4-13.1,12.2-13.1
	C-340.4,44.2-335.6,49.3-335.6,56.9z M-355.2,57.1c0,5.4,3.1,9.5,7.5,9.5s7.5-4,7.5-9.6c0-4.2-2.1-9.5-7.4-9.5
	S-355.2,52.5-355.2,57.1z"/>
<path d="M-673.7,439.7c0.1,6.1,4,8.6,8.5,8.6c2.3,0.1,4.7-0.4,6.8-1.3l0.8,3.2c-2.6,1.1-5.4,1.6-8.2,1.5c-7.6,0-12.1-5-12.1-12.4
	s4.4-13.3,11.6-13.3c8.1,0,10.2,7.1,10.2,11.6c0,0.7-0.1,1.4-0.2,2.1L-673.7,439.7z M-660.5,436.5c0-2.8-1.2-7.3-6.2-7.3
	c-4.5,0-6.5,4.2-6.9,7.3H-660.5z"/>
<path d="M-651.3,446.6c1.8,1.1,3.8,1.7,5.9,1.8c3.3,0,4.8-1.6,4.8-3.7s-1.3-3.3-4.6-4.5c-4.4-1.6-6.5-4-6.5-7c0-4,3.2-7.2,8.5-7.2
	c2.1,0,4.2,0.5,6.1,1.5l-1.1,3.3c-1.5-0.9-3.2-1.4-5-1.4c-2.6,0-4.1,1.5-4.1,3.4c0,2,1.5,3,4.7,4.2c4.3,1.6,6.5,3.8,6.5,7.4
	c0,4.3-3.4,7.4-9.2,7.4c-2.4,0.1-4.8-0.5-7-1.7L-651.3,446.6z"/>
<path class="st0" d="M-619.6,417.3c2.8-0.5,5.7-0.7,8.5-0.7c4.4,0,7.6,1,9.6,2.8c2,1.8,3.1,4.5,3,7.2c0.1,2.7-0.8,5.3-2.6,7.3
	c-2.3,2.5-6.2,3.8-10.5,3.8c-1.2,0-2.4-0.1-3.6-0.3v13.8h-4.4L-619.6,417.3z M-615.1,433.8c1.2,0.3,2.4,0.4,3.7,0.4
	c5.3,0,8.6-2.6,8.6-7.3c0-4.5-3.2-6.7-8.1-6.7c-1.4,0-2.8,0.1-4.2,0.4V433.8z"/>
<path class="st0" d="M-571.6,438.7c0,9.1-6.3,13.1-12.3,13.1c-6.7,0-11.8-4.9-11.8-12.7c0-8.2,5.4-13.1,12.2-13.1
	C-576.4,426-571.6,431.1-571.6,438.7z M-591.1,438.9c0,5.4,3.1,9.5,7.5,9.5s7.5-4,7.5-9.6c0-4.2-2.1-9.5-7.4-9.5
	S-591.1,434.2-591.1,438.9L-591.1,438.9z"/>
<path class="st0" d="M-563.4,439.7c0.1,6.1,4,8.6,8.5,8.6c2.3,0.1,4.7-0.4,6.8-1.3l0.8,3.2c-2.6,1.1-5.4,1.6-8.2,1.5
	c-7.6,0-12.1-5-12.1-12.4s4.4-13.3,11.6-13.3c8,0,10.2,7.1,10.2,11.6c0,0.7-0.1,1.4-0.2,2.1L-563.4,439.7z M-550.3,436.5
	c0.1-2.8-1.2-7.3-6.2-7.3c-4.5,0-6.5,4.2-6.9,7.3H-550.3z"/>
<path class="st0" d="M-541,446.6c1.8,1.1,3.8,1.7,5.9,1.8c3.3,0,4.8-1.6,4.8-3.7s-1.3-3.3-4.6-4.5c-4.4-1.6-6.5-4-6.5-7
	c0-4,3.2-7.2,8.5-7.2c2.1,0,4.2,0.5,6.1,1.5l-1.2,3.3c-1.5-0.9-3.2-1.4-5-1.4c-2.7,0-4.1,1.5-4.1,3.4c0,2,1.5,3,4.7,4.2
	c4.3,1.6,6.5,3.8,6.5,7.4c0,4.3-3.4,7.4-9.2,7.4c-2.4,0-4.8-0.5-6.9-1.7L-541,446.6z"/>
<path class="st0" d="M-515.3,419.6c-0.1,1.5-1.4,2.7-2.9,2.6c-1.4-0.1-2.5-1.2-2.6-2.6c0-1.5,1.2-2.8,2.7-2.8c0,0,0.1,0,0.1,0
	c1.5-0.1,2.7,1.1,2.8,2.6C-515.3,419.5-515.3,419.5-515.3,419.6z M-520.3,451.2v-24.7h4.5v24.7H-520.3z"/>
<path class="st0" d="M-494.7,451.2l-0.4-3.1h-0.2c-1.8,2.4-4.6,3.7-7.5,3.7c-5,0-7.5-3.5-7.5-7.1c0-6,5.3-9.2,14.8-9.2V435
	c0-2-0.6-5.7-5.6-5.7c-2.3,0-4.5,0.6-6.4,1.8l-1-3c2.4-1.5,5.2-2.2,8.1-2.2c7.5,0,9.4,5.2,9.4,10.1v9.2c0,2,0.1,4,0.4,5.9
	L-494.7,451.2z M-495.3,438.6c-4.9-0.1-10.4,0.8-10.4,5.5c-0.2,2.2,1.5,4.1,3.7,4.3c0.2,0,0.4,0,0.5,0c2.7,0.1,5.1-1.6,6-4.1
	c0.2-0.5,0.2-0.9,0.2-1.4L-495.3,438.6z"/>
<path d="M-484.9,448.5c-0.1-1.7,1.1-3.1,2.8-3.2c0.1,0,0.2,0,0.3,0c1.8-0.1,3.3,1.3,3.4,3.1c0.1,1.8-1.3,3.3-3.1,3.4
	c-1.8,0.1-3.3-1.3-3.4-3.1C-484.9,448.7-484.9,448.6-484.9,448.5z"/>
<path d="M-474.3,448.5c-0.1-1.7,1.1-3.1,2.8-3.2c0.1,0,0.2,0,0.3,0c1.8-0.1,3.3,1.3,3.4,3.1c0.1,1.8-1.3,3.3-3.1,3.4
	c-1.8,0.1-3.3-1.3-3.4-3.1C-474.3,448.7-474.3,448.6-474.3,448.5z"/>
<path d="M-463.8,448.5c-0.1-1.7,1.1-3.1,2.8-3.2c0.1,0,0.2,0,0.3,0c1.8-0.1,3.3,1.3,3.4,3.1c0.1,1.8-1.3,3.3-3.1,3.4
	c-1.8,0.1-3.3-1.3-3.4-3.1C-463.8,448.7-463.8,448.6-463.8,448.5z"/>
<path d="M-601.6,309.9l-1.3,3.8h-1.6l4.1-12.1h1.9l4.1,12.1h-1.7l-1.3-3.8H-601.6z M-597.6,308.6l-1.2-3.5c-0.3-0.8-0.5-1.5-0.6-2.2
	l0,0c-0.2,0.7-0.4,1.5-0.6,2.2l-1.2,3.5L-597.6,308.6z"/>
<path d="M-592.6,300.9h1.6v5.4l0,0c0.3-0.5,0.7-0.9,1.1-1.1c0.5-0.3,1-0.4,1.6-0.5c1.2,0,3,0.7,3,3.7v5.2h-1.6v-5
	c0-1.4-0.5-2.6-2-2.6c-1,0-1.8,0.7-2.1,1.6c-0.1,0.2-0.1,0.5-0.1,0.8v5.3h-1.6L-592.6,300.9z"/>
<path d="M-574.8,309.2c0.2,2.3-1.5,4.4-3.9,4.6c-0.2,0-0.3,0-0.5,0c-2.3,0-4.2-1.8-4.2-4.1c0-0.1,0-0.3,0-0.4c0-2.9,1.9-4.6,4.3-4.6
	C-576.5,304.8-574.8,306.6-574.8,309.2z M-581.7,309.3c0,1.9,1.1,3.3,2.7,3.3s2.7-1.4,2.7-3.4c0-1.5-0.7-3.3-2.6-3.3
	S-581.7,307.7-581.7,309.3z"/>
<path d="M-572.8,307.7c0-1,0-1.9-0.1-2.7h1.4l0,1.7h0.1c0.3-1.1,1.3-1.9,2.4-1.9c0.2,0,0.3,0,0.5,0v1.5c-1.2-0.3-2.3,0.4-2.6,1.6
	c0,0.1,0,0.3-0.1,0.4c0,0.2-0.1,0.5-0.1,0.7v4.6h-1.6V307.7z"/>
<path d="M-562.1,313.7l-0.1-1.1h-0.1c-0.6,0.8-1.6,1.3-2.7,1.3c-1.4,0.1-2.6-0.9-2.7-2.3c0-0.1,0-0.1,0-0.2c0-2.1,1.9-3.3,5.2-3.2
	V308c0.1-1-0.6-1.9-1.6-2c-0.1,0-0.3,0-0.4,0c-0.8,0-1.6,0.2-2.3,0.7l-0.4-1c0.9-0.5,1.9-0.8,2.9-0.8c2.7,0,3.3,1.8,3.3,3.6v3.3
	c0,0.7,0,1.4,0.1,2.1L-562.1,313.7z M-562.4,309.2c-1.7,0-3.7,0.3-3.7,2c-0.1,0.8,0.5,1.4,1.3,1.5c0.1,0,0.1,0,0.2,0
	c0.9,0,1.8-0.6,2.1-1.5c0.1-0.2,0.1-0.3,0.1-0.5L-562.4,309.2z"/>
<path d="M-552.6,302.5v2.5h2.3v1.2h-2.3v4.7c0,1.1,0.3,1.7,1.2,1.7c0.3,0,0.6,0,0.9-0.1l0.1,1.2c-0.5,0.2-0.9,0.2-1.4,0.2
	c-0.6,0-1.3-0.2-1.7-0.7c-0.5-0.7-0.7-1.5-0.6-2.3v-4.8h-1.3V305h1.3v-2.1L-552.6,302.5z"/>
<path d="M-540.7,309.2c0.2,2.3-1.5,4.4-3.9,4.6c-0.2,0-0.3,0-0.5,0c-2.3,0-4.2-1.8-4.2-4.1c0-0.1,0-0.3,0-0.4c0-2.9,1.9-4.6,4.3-4.6
	c2.3,0,4.2,1.8,4.2,4C-540.7,309-540.7,309.1-540.7,309.2z M-547.7,309.3c0,1.9,1.1,3.3,2.7,3.3c1.5,0,2.6-1.4,2.6-3.4
	c0-1.5-0.7-3.3-2.6-3.3S-547.7,307.7-547.7,309.3L-547.7,309.3z"/>
<path d="M-531.2,300.9v10.5c0,0.8,0,1.7,0.1,2.2h-1.4l-0.1-1.5l0,0c-0.6,1.1-1.8,1.8-3,1.7c-2.1,0-3.7-1.8-3.7-4.4
	c0-2.9,1.8-4.7,3.9-4.7c1.1-0.1,2.1,0.4,2.6,1.3l0,0v-5.2L-531.2,300.9z M-532.8,308.5c0-0.2,0-0.5-0.1-0.7
	c-0.2-1.1-1.2-1.8-2.3-1.8c-1.6,0-2.6,1.4-2.6,3.4c0,1.8,0.9,3.2,2.6,3.2c1.1,0,2.1-0.8,2.3-1.9c0.1-0.2,0.1-0.5,0.1-0.7V308.5z"/>
<path d="M-520.7,309.2c0.2,2.3-1.5,4.4-3.9,4.6c-0.2,0-0.3,0-0.5,0c-2.3,0-4.2-1.8-4.2-4.1c0-0.1,0-0.3,0-0.4c0-2.9,1.9-4.6,4.3-4.6
	S-520.7,306.6-520.7,309.2z M-527.6,309.3c0,1.9,1.1,3.3,2.6,3.3c1.5,0,2.6-1.4,2.6-3.4c0-1.5-0.7-3.3-2.6-3.3
	S-527.6,307.7-527.6,309.3L-527.6,309.3z"/>
<path d="M-513,302.5v2.5h2.3v1.2h-2.3v4.7c0,1.1,0.3,1.7,1.2,1.7c0.3,0,0.6,0,0.9-0.1l0.1,1.2c-0.5,0.2-0.9,0.2-1.4,0.2
	c-0.6,0-1.3-0.2-1.7-0.7c-0.5-0.7-0.7-1.5-0.6-2.3v-4.8h-1.4V305h1.4v-2.1L-513,302.5z"/>
<path d="M-507.2,302.5c0,0.5-0.3,1-0.9,1c0,0-0.1,0-0.1,0c-0.5,0-1-0.4-1-0.9c0,0,0-0.1,0-0.1c0-0.6,0.4-1,1-1c0.5,0,1,0.3,1,0.9
	C-507.2,302.4-507.2,302.5-507.2,302.5z M-508.9,313.7V305h1.6v8.7L-508.9,313.7z"/>
<path d="M-503.8,309.6c-0.1,1.5,1,2.9,2.6,3c0.1,0,0.3,0,0.4,0c0.8,0,1.7-0.1,2.4-0.5l0.3,1.1c-0.9,0.4-1.9,0.6-2.9,0.5
	c-2.2,0.2-4.1-1.5-4.3-3.7c0-0.2,0-0.5,0-0.7c0-2.6,1.5-4.7,4.1-4.7c2.8,0,3.6,2.5,3.6,4.1c0,0.3,0,0.6,0,0.7L-503.8,309.6z
	 M-499.2,308.5c0.2-1.2-0.7-2.4-1.9-2.6c-0.1,0-0.2,0-0.3,0c-1.4,0.1-2.4,1.2-2.4,2.6H-499.2z"/>
<path d="M-495.7,307.3c0-0.9,0-1.6-0.1-2.4h1.4l0.1,1.4l0,0c0.6-1,1.7-1.7,2.9-1.6c1.2,0,3.1,0.7,3.1,3.7v5.2h-1.6v-5
	c0-1.4-0.5-2.6-2-2.6c-1.3,0.1-2.3,1.1-2.2,2.4v5.2h-1.6V307.3z"/>
<path d="M-484.8,309.6c-0.1,1.5,1,2.9,2.6,3c0.1,0,0.3,0,0.4,0c0.8,0,1.6-0.1,2.4-0.5l0.3,1.1c-0.9,0.4-1.9,0.6-2.9,0.5
	c-2.2,0.2-4.1-1.5-4.3-3.7c0-0.2,0-0.5,0-0.7c0-2.6,1.5-4.7,4.1-4.7c2.8,0,3.6,2.5,3.6,4.1c0,0.2,0,0.5-0.1,0.7L-484.8,309.6z
	 M-480.2,308.5c0.2-1.2-0.7-2.4-1.9-2.6c-0.1,0-0.2,0-0.3,0c-1.4,0.1-2.4,1.2-2.4,2.6H-480.2z"/>
<path d="M-473.1,312.1c0.6,0.4,1.3,0.6,2.1,0.6c1.2,0,1.7-0.6,1.7-1.3s-0.5-1.2-1.6-1.6c-1.6-0.5-2.3-1.4-2.3-2.5
	c0-1.4,1.1-2.6,3-2.6c0.7,0,1.5,0.2,2.1,0.5l-0.4,1.2c-0.5-0.3-1.2-0.5-1.8-0.5c-0.9,0-1.5,0.5-1.5,1.2s0.5,1,1.7,1.5
	c1.5,0.6,2.3,1.3,2.3,2.6c0,1.5-1.2,2.6-3.3,2.6c-0.9,0-1.7-0.2-2.5-0.6L-473.1,312.1z"/>
<path d="M-464.9,309.6c-0.1,1.5,1,2.9,2.6,3c0.1,0,0.3,0,0.4,0c0.8,0,1.7-0.1,2.4-0.5l0.3,1.1c-0.9,0.4-1.9,0.6-2.9,0.5
	c-2.2,0.2-4.1-1.5-4.3-3.7c0-0.2,0-0.5,0-0.7c0-2.6,1.5-4.7,4.1-4.7c2.8,0,3.6,2.5,3.6,4.1c0,0.3,0,0.6,0,0.7L-464.9,309.6z
	 M-460.2,308.5c0.2-1.2-0.7-2.4-1.9-2.6c-0.1,0-0.2,0-0.3,0c-1.4,0.1-2.4,1.2-2.4,2.6H-460.2z"/>
<path d="M-456.7,307.3c0-0.9,0-1.6-0.1-2.4h1.4l0.1,1.4l0,0c0.6-1,1.7-1.7,2.9-1.6c1.2,0,3.1,0.7,3.1,3.7v5.2h-1.6v-5
	c0-1.4-0.5-2.6-2-2.6c-1.3,0.1-2.3,1.1-2.2,2.4v5.2h-1.6L-456.7,307.3z"/>
<path d="M-444.9,302.5v2.5h2.3v1.2h-2.3v4.7c0,1.1,0.3,1.7,1.2,1.7c0.3,0,0.6,0,0.9-0.1l0.1,1.2c-0.5,0.2-0.9,0.2-1.4,0.2
	c-0.6,0-1.3-0.2-1.7-0.7c-0.5-0.7-0.7-1.5-0.6-2.3v-4.8h-1.3V305h1.3v-2.1L-444.9,302.5z"/>
<path d="M-439.1,302.5c0,0.6-0.4,1-1,1s-1-0.4-1-1s0.4-1,1-1c0.5,0,1,0.4,1,0.9C-439.1,302.4-439.1,302.5-439.1,302.5z
	 M-440.9,313.7V305h1.6v8.7L-440.9,313.7z"/>
<path d="M-429.1,300.9v10.5c0,0.8,0,1.7,0.1,2.2h-1.4l-0.1-1.5l0,0c-0.6,1.1-1.8,1.8-3,1.7c-2.1,0-3.7-1.8-3.7-4.4
	c0-2.9,1.8-4.7,3.9-4.7c1.1-0.1,2.1,0.4,2.6,1.3l0,0v-5.2L-429.1,300.9z M-430.7,308.5c0-0.2,0-0.4-0.1-0.7
	c-0.2-1.1-1.2-1.8-2.3-1.8c-1.6,0-2.6,1.4-2.6,3.4c0,1.8,0.9,3.2,2.6,3.2c1.1,0,2.1-0.8,2.3-1.9c0.1-0.2,0.1-0.5,0.1-0.7
	L-430.7,308.5z"/>
<path d="M-418.6,309.2c0.2,2.3-1.5,4.4-3.9,4.6c-0.2,0-0.3,0-0.5,0c-2.3,0-4.2-1.8-4.2-4.1c0-0.1,0-0.3,0-0.4c0-2.9,1.9-4.6,4.3-4.6
	c2.3,0,4.2,1.8,4.2,4C-418.6,309-418.6,309.1-418.6,309.2z M-425.5,309.3c0,1.9,1.1,3.3,2.7,3.3s2.6-1.4,2.6-3.4
	c0-1.5-0.7-3.3-2.6-3.3S-425.5,307.7-425.5,309.3L-425.5,309.3z"/>
<path d="M-417.4,312.8c0-0.6,0.4-1.1,1-1.1c0,0,0.1,0,0.1,0c0.6,0,1.2,0.4,1.2,1.1c0,0.6-0.4,1.2-1.1,1.2
	C-416.8,313.9-417.4,313.4-417.4,312.8C-417.4,312.8-417.4,312.8-417.4,312.8z"/>
<path d="M-603.8,333.4c0.8,0.5,1.8,0.8,2.8,0.8c1.6,0,2.5-0.8,2.5-2.1s-0.6-1.8-2.3-2.4c-2-0.7-3.2-1.7-3.2-3.4
	c0-1.9,1.6-3.3,3.9-3.3c0.9,0,1.8,0.2,2.7,0.6l-0.4,1.3c-0.7-0.4-1.5-0.6-2.3-0.6c-1.6,0-2.3,1-2.3,1.8c0,1.1,0.7,1.7,2.4,2.3
	c2,0.8,3.1,1.8,3.1,3.6s-1.4,3.5-4.2,3.5c-1.1,0-2.1-0.3-3.1-0.8L-603.8,333.4z"/>
<path d="M-586.7,330.8c0.2,2.3-1.5,4.4-3.9,4.6c-0.2,0-0.3,0-0.5,0c-2.3,0-4.2-1.8-4.2-4.1c0-0.1,0-0.3,0-0.4c0-2.9,1.9-4.6,4.3-4.6
	c2.3,0,4.2,1.8,4.2,4C-586.7,330.6-586.7,330.7-586.7,330.8z M-593.6,330.9c0,1.9,1.1,3.3,2.7,3.3c1.5,0,2.6-1.4,2.6-3.4
	c0-1.5-0.7-3.3-2.6-3.3S-593.6,329.3-593.6,330.9z"/>
<path d="M-584.3,326.6l1.9,5.2c0.2,0.6,0.4,1.3,0.6,1.8l0,0c0.2-0.5,0.3-1.2,0.5-1.8l1.7-5.1h1.7l-2.4,6.2c-1.1,3-1.9,4.5-3,5.5
	c-0.5,0.5-1.2,0.8-1.9,1l-0.4-1.3c0.5-0.2,1-0.4,1.4-0.8c0.6-0.5,1-1.1,1.3-1.8c0.1-0.1,0.1-0.2,0.1-0.4c0-0.1-0.1-0.3-0.1-0.4
	l-3.2-8L-584.3,326.6z"/>
<path d="M-565,322.5V333c0,0.8,0,1.7,0.1,2.2h-1.4l-0.1-1.5l0,0c-0.6,1.1-1.8,1.8-3,1.7c-2.1,0-3.7-1.8-3.7-4.4
	c0-2.9,1.8-4.7,3.9-4.7c1.1-0.1,2.1,0.4,2.6,1.3l0,0v-5.2L-565,322.5z M-566.6,330.1c0-0.2,0-0.4-0.1-0.7c-0.2-1.1-1.2-1.8-2.3-1.8
	c-1.6,0-2.6,1.4-2.6,3.4c0,1.8,0.9,3.2,2.6,3.2c1.1,0,2.1-0.8,2.3-1.9c0.1-0.2,0.1-0.5,0.1-0.7V330.1z"/>
<path d="M-557.6,335.3l-0.1-1.1h-0.1c-0.6,0.8-1.6,1.3-2.7,1.3c-1.4,0.1-2.6-0.9-2.7-2.3c0-0.1,0-0.1,0-0.2c0-2.1,1.9-3.3,5.2-3.2
	v-0.2c0.1-1-0.6-1.9-1.6-2c-0.1,0-0.3,0-0.4,0c-0.8,0-1.6,0.2-2.3,0.7l-0.4-1c0.9-0.5,1.9-0.8,2.9-0.8c2.7,0,3.3,1.8,3.3,3.6v3.2
	c0,0.7,0,1.4,0.1,2.1L-557.6,335.3z M-557.8,330.8c-1.7,0-3.7,0.3-3.7,2c-0.1,0.8,0.5,1.5,1.3,1.5c0.1,0,0.1,0,0.2,0
	c0.9,0,1.8-0.6,2.1-1.5c0.1-0.2,0.1-0.3,0.1-0.5V330.8z"/>
<path d="M-553.7,328.9c0-0.9,0-1.6-0.1-2.4h1.4l0.1,1.4l0,0c0.6-1,1.7-1.7,2.9-1.6c1.2,0,3.1,0.7,3.1,3.7v5.2h-1.5v-5
	c0-1.4-0.5-2.6-2-2.6c-1,0-1.8,0.7-2.1,1.6c-0.1,0.2-0.1,0.5-0.1,0.7v5.2h-1.6L-553.7,328.9z"/>
<path d="M-544.7,334.4l3.9-5.1c0.4-0.5,0.7-0.9,1.1-1.3l0,0h-4.7v-1.3h6.6v1l-3.9,5.1c-0.4,0.5-0.7,0.9-1.1,1.4l0,0h5.1v1.3h-7.1
	L-544.7,334.4z"/>
<path d="M-531.2,335.3l-0.1-1.1h-0.1c-0.6,0.8-1.6,1.3-2.7,1.3c-1.4,0.1-2.6-0.9-2.7-2.3c0-0.1,0-0.1,0-0.2c0-2.1,1.9-3.3,5.2-3.2
	v-0.2c0.1-1-0.6-1.9-1.6-2c-0.1,0-0.3,0-0.4,0c-0.8,0-1.6,0.2-2.3,0.7l-0.4-1c0.9-0.5,1.9-0.8,2.9-0.8c2.7,0,3.3,1.8,3.3,3.6v3.2
	c0,0.7,0,1.4,0.1,2.1L-531.2,335.3z M-531.4,330.8c-1.7,0-3.7,0.3-3.7,2c-0.1,0.8,0.5,1.5,1.3,1.5c0.1,0,0.1,0,0.2,0
	c0.9,0,1.8-0.6,2.1-1.5c0.1-0.2,0.1-0.3,0.1-0.5V330.8z"/>
<path d="M-603.8,355c0.8,0.5,1.8,0.8,2.8,0.8c1.6,0,2.5-0.8,2.5-2.1s-0.6-1.8-2.3-2.4c-2-0.7-3.2-1.7-3.2-3.4c0-1.9,1.6-3.3,3.9-3.3
	c0.9,0,1.8,0.2,2.7,0.6l-0.4,1.3c-0.7-0.4-1.5-0.6-2.3-0.6c-1.6,0-2.3,1-2.3,1.8c0,1.1,0.7,1.7,2.4,2.3c2,0.8,3.1,1.8,3.1,3.6
	s-1.4,3.5-4.2,3.5c-1.1,0-2.1-0.3-3.1-0.8L-603.8,355z"/>
<path d="M-586.7,352.5c0.2,2.3-1.5,4.4-3.9,4.6c-0.2,0-0.3,0-0.5,0c-2.3,0-4.2-1.8-4.2-4.1c0-0.1,0-0.3,0-0.4c0-2.9,1.9-4.6,4.3-4.6
	c2.3,0,4.2,1.8,4.2,4C-586.7,352.2-586.7,352.3-586.7,352.5z M-593.6,352.5c0,1.9,1.1,3.3,2.7,3.3c1.5,0,2.6-1.4,2.6-3.4
	c0-1.5-0.7-3.3-2.6-3.3S-593.6,350.9-593.6,352.5L-593.6,352.5z"/>
<path d="M-584.3,348.2l1.9,5.2c0.2,0.6,0.4,1.3,0.6,1.8l0,0c0.2-0.5,0.3-1.2,0.5-1.8l1.7-5.1h1.7l-2.4,6.2c-1.1,3-1.9,4.5-3,5.5
	c-0.5,0.5-1.2,0.8-1.9,1l-0.4-1.3c0.5-0.2,1-0.4,1.4-0.8c0.6-0.5,1.1-1.1,1.4-1.7c0.1-0.1,0.1-0.2,0.1-0.4c0-0.1-0.1-0.3-0.1-0.4
	l-3.2-8L-584.3,348.2z"/>
<path d="M-572,348.2l1.7,4.9c0.3,0.7,0.5,1.5,0.7,2.2l0,0c0.2-0.7,0.5-1.4,0.7-2.2l1.7-4.9h1.7l-3.4,8.7h-1.5l-3.3-8.7H-572z"/>
<path d="M-562.1,345.7c0,0.6-0.4,1-1,1s-1-0.4-1-1s0.4-1,1-1c0.5,0,1,0.4,1,0.9C-562.1,345.6-562.1,345.7-562.1,345.7z
	 M-563.9,356.9v-8.7h1.6v8.7H-563.9z"/>
<path d="M-552.2,344.1v10.5c0,0.8,0,1.7,0.1,2.2h-1.4l-0.1-1.5l0,0c-0.6,1.1-1.8,1.8-3,1.7c-2.1,0-3.7-1.8-3.7-4.4
	c0-2.9,1.8-4.7,3.9-4.7c1.1-0.1,2.1,0.4,2.6,1.3l0,0v-5.2L-552.2,344.1z M-553.8,351.7c0-0.2,0-0.4-0.1-0.7
	c-0.2-1.1-1.2-1.8-2.3-1.8c-1.6,0-2.6,1.4-2.6,3.4c0,1.8,0.9,3.2,2.6,3.2c1.1,0,2.1-0.8,2.3-1.9c0.1-0.2,0.1-0.5,0.1-0.7V351.7z"/>
<path d="M-544.7,356.9l-0.1-1.1h-0.1c-0.6,0.8-1.6,1.3-2.7,1.3c-1.4,0.1-2.6-0.9-2.7-2.3c0-0.1,0-0.1,0-0.2c0-2.1,1.9-3.3,5.2-3.2
	v-0.2c0.1-1-0.6-1.9-1.6-2c-0.1,0-0.3,0-0.4,0c-0.8,0-1.6,0.2-2.3,0.7l-0.4-1c0.9-0.5,1.9-0.8,2.9-0.8c2.7,0,3.3,1.8,3.3,3.6v3.2
	c0,0.7,0,1.4,0.1,2.1L-544.7,356.9z M-544.9,352.4c-1.7,0-3.7,0.3-3.7,2c-0.1,0.8,0.5,1.5,1.3,1.5c0.1,0,0.1,0,0.2,0
	c0.9,0,1.8-0.6,2.1-1.5c0.1-0.2,0.1-0.3,0.1-0.5V352.4z"/>
<path d="M-603.8,376.6c0.8,0.5,1.8,0.8,2.8,0.8c1.6,0,2.5-0.8,2.5-2.1s-0.6-1.8-2.3-2.4c-2-0.7-3.2-1.7-3.2-3.4
	c0-1.9,1.6-3.3,3.9-3.3c0.9,0,1.8,0.2,2.7,0.6l-0.4,1.3c-0.7-0.4-1.5-0.6-2.3-0.6c-1.6,0-2.3,1-2.3,1.8c0,1.1,0.7,1.7,2.4,2.3
	c2,0.8,3.1,1.8,3.1,3.6s-1.4,3.5-4.2,3.5c-1.1,0-2.1-0.3-3.1-0.8L-603.8,376.6z"/>
<path d="M-586.7,374c0.2,2.3-1.5,4.4-3.9,4.6c-0.2,0-0.3,0-0.5,0c-2.3,0-4.2-1.8-4.2-4.1c0-0.1,0-0.3,0-0.4c0-2.9,1.9-4.6,4.3-4.6
	c2.3,0,4.2,1.8,4.2,4C-586.7,373.8-586.7,373.9-586.7,374z M-593.6,374.1c0,1.9,1.1,3.3,2.7,3.3c1.5,0,2.6-1.4,2.6-3.4
	c0-1.5-0.7-3.3-2.6-3.3S-593.6,372.5-593.6,374.1z"/>
<path d="M-584.3,369.8l1.9,5.2c0.2,0.6,0.4,1.3,0.6,1.8l0,0c0.2-0.5,0.3-1.2,0.5-1.8l1.7-5.1h1.7l-2.3,6.2c-1.1,3-1.9,4.5-3,5.5
	c-0.5,0.5-1.2,0.8-1.9,1l-0.4-1.3c0.5-0.2,1-0.4,1.4-0.8c0.6-0.5,1-1.1,1.3-1.8c0.1-0.1,0.1-0.2,0.1-0.4c0-0.1-0.1-0.3-0.1-0.4
	l-3.2-8L-584.3,369.8z"/>
<path d="M-572.6,372.6c0-1.1,0-2-0.1-2.8h1.4l0.1,1.5l0,0c0.6-1.1,1.8-1.7,3.1-1.7c2.1,0,3.7,1.8,3.7,4.4c0,3.1-1.9,4.7-4,4.7
	c-1.1,0-2.1-0.5-2.7-1.4l0,0v4.7h-1.6L-572.6,372.6z M-571,374.9c0,0.2,0,0.4,0.1,0.6c0.3,1.1,1.3,1.9,2.4,1.9
	c1.7,0,2.6-1.4,2.6-3.4c0-1.7-0.9-3.2-2.6-3.2c-1.2,0-2.2,0.9-2.4,2c-0.1,0.2-0.1,0.4-0.1,0.7V374.9z"/>
<path d="M-554.4,374c0.2,2.3-1.5,4.4-3.9,4.6c-0.2,0-0.3,0-0.5,0c-2.3,0-4.2-1.8-4.2-4.1c0-0.1,0-0.3,0-0.4c0-2.9,1.9-4.6,4.3-4.6
	C-556.2,369.6-554.4,371.4-554.4,374z M-561.3,374.1c0,1.9,1.1,3.3,2.6,3.3s2.6-1.4,2.6-3.4c0-1.5-0.7-3.3-2.6-3.3
	S-561.3,372.5-561.3,374.1z"/>
<path d="M-551.5,374.4c-0.1,1.5,1,2.9,2.6,3c0.1,0,0.3,0,0.4,0c0.8,0,1.6-0.1,2.4-0.5l0.3,1.1c-0.9,0.4-1.9,0.6-2.9,0.5
	c-2.2,0.2-4.1-1.5-4.3-3.7c0-0.2,0-0.5,0-0.7c0-2.6,1.5-4.7,4.1-4.7c2.8,0,3.6,2.5,3.6,4.1c0,0.2,0,0.5,0,0.7L-551.5,374.4z
	 M-546.9,373.3c0.2-1.2-0.7-2.4-1.9-2.5c-0.1,0-0.2,0-0.3,0c-1.4,0.1-2.4,1.2-2.4,2.6H-546.9z"/>
<path d="M-543.6,376.9c0.6,0.4,1.3,0.6,2.1,0.6c1.2,0,1.7-0.6,1.7-1.3s-0.5-1.2-1.6-1.6c-1.6-0.5-2.3-1.4-2.3-2.5
	c0-1.4,1.1-2.6,3-2.6c0.7,0,1.5,0.2,2.1,0.5l-0.4,1.2c-0.5-0.3-1.2-0.5-1.8-0.5c-0.9,0-1.5,0.5-1.5,1.2s0.5,1,1.7,1.5
	c1.5,0.6,2.3,1.3,2.3,2.6c0,1.5-1.2,2.6-3.3,2.6c-0.9,0-1.7-0.2-2.5-0.6L-543.6,376.9z"/>
<path d="M-533.1,366l-2.2,2.6h-1.1l1.6-2.6H-533.1z M-536.3,378.5v-8.7h1.6v8.7H-536.3z"/>
<path d="M-527.2,378.5l-0.1-1.1h0c-0.6,0.8-1.6,1.3-2.7,1.3c-1.4,0.1-2.6-0.9-2.7-2.3c0-0.1,0-0.1,0-0.2c0-2.1,1.9-3.3,5.2-3.2v-0.2
	c0.1-1-0.6-1.9-1.6-2c-0.1,0-0.3,0-0.4,0c-0.8,0-1.6,0.2-2.3,0.7l-0.4-1c0.9-0.5,1.9-0.8,2.9-0.8c2.7,0,3.3,1.8,3.3,3.6v3.2
	c0,0.7,0,1.4,0.1,2.1L-527.2,378.5z M-527.5,374c-1.7,0-3.7,0.3-3.7,2c-0.1,0.8,0.5,1.5,1.3,1.5c0.1,0,0.1,0,0.2,0
	c0.9,0,1.8-0.6,2.1-1.5c0.1-0.2,0.1-0.3,0.1-0.5V374z"/>
<path d="M-522.8,377.5c0-0.6,0.4-1.1,1-1.1c0,0,0.1,0,0.1,0c0.6,0,1.2,0.4,1.2,1.1s-0.4,1.2-1.1,1.2
	C-522.2,378.7-522.7,378.3-522.8,377.5C-522.8,377.6-522.8,377.6-522.8,377.5z M-516.8,377.5c0-0.6,0.5-1.1,1.1-1s1.1,0.5,1,1.1
	c0,0.6-0.5,1-1.1,1C-516.3,378.7-516.8,378.2-516.8,377.5C-516.8,377.6-516.8,377.6-516.8,377.5L-516.8,377.5z M-510.8,377.5
	c0-0.6,0.4-1.1,1-1.1c0,0,0.1,0,0.1,0c0.6,0,1.2,0.4,1.2,1.1c0,0.6-0.4,1.2-1.1,1.2C-510.2,378.7-510.7,378.2-510.8,377.5
	C-510.8,377.6-510.8,377.6-510.8,377.5z"/>
<path d="M-668.3,117.5c-0.1-1.7-0.2-3.7-0.2-5.2h0c-0.4,1.4-0.9,2.9-1.5,4.6l-2.2,5.9h-1.2l-2-5.8c-0.6-1.7-1.1-3.3-1.4-4.7l0,0
	c0,1.5-0.1,3.5-0.2,5.4l-0.3,5.2h-1.5l0.8-12.1h2l2.1,5.9c0.5,1.5,0.9,2.8,1.2,4.1h0c0.3-1.2,0.7-2.5,1.3-4.1l2.2-5.9h2l0.8,12.1
	h-1.6L-668.3,117.5z"/>
<path d="M-662.1,111.6c0,0.6-0.4,1-1,1s-1-0.4-1-1s0.4-1,1-1c0.5,0,1,0.4,1,0.9C-662.1,111.5-662.1,111.6-662.1,111.6z
	 M-663.9,122.8v-8.7h1.6v8.7H-663.9z"/>
<path d="M-649.7,122.5c-0.8,0.3-1.6,0.5-2.5,0.5c-2.3,0.1-4.2-1.6-4.3-3.9c0-0.2,0-0.3,0-0.5c-0.1-2.4,1.8-4.5,4.2-4.6
	c0.2,0,0.3,0,0.5,0c0.8,0,1.5,0.1,2.2,0.5l-0.4,1.2c-0.6-0.3-1.2-0.4-1.8-0.4c-1.7-0.1-3,1.2-3.1,2.9c0,0.1,0,0.3,0,0.4
	c-0.1,1.7,1.1,3.1,2.7,3.2c0.1,0,0.2,0,0.3,0c0.7,0,1.3-0.1,2-0.4L-649.7,122.5z"/>
<path d="M-643,122.8l-0.1-1.1h-0.1c-0.6,0.8-1.6,1.3-2.7,1.3c-1.4,0.1-2.6-0.9-2.7-2.3c0-0.1,0-0.1,0-0.2c0-2.1,1.9-3.3,5.2-3.2
	v-0.2c0.1-1-0.6-1.9-1.6-2c-0.1,0-0.3,0-0.4,0c-0.8,0-1.6,0.2-2.3,0.7l-0.4-1c0.9-0.5,1.9-0.8,2.9-0.8c2.7,0,3.3,1.8,3.3,3.6v3.2
	c0,0.7,0,1.4,0.1,2.1L-643,122.8z M-643.2,118.3c-1.7,0-3.7,0.3-3.7,2c-0.1,0.8,0.5,1.4,1.3,1.5c0.1,0,0.1,0,0.2,0
	c0.9,0,1.8-0.6,2.1-1.5c0.1-0.2,0.1-0.3,0.1-0.5L-643.2,118.3z"/>
<path d="M-631.6,110v10.5c0,0.8,0,1.7,0.1,2.2h-1.5l-0.1-1.5l0,0c-0.6,1.1-1.8,1.8-3,1.7c-2.1,0-3.7-1.8-3.7-4.4
	c0-2.9,1.8-4.7,3.9-4.7c1.1-0.1,2.1,0.4,2.6,1.3l0,0V110H-631.6z M-633.2,117.6c0-0.2,0-0.5-0.1-0.7c-0.2-1.1-1.2-1.8-2.3-1.8
	c-1.6,0-2.6,1.4-2.6,3.4c0,1.8,0.9,3.2,2.6,3.2c1.1,0,2.1-0.8,2.3-1.9c0.1-0.2,0.1-0.5,0.1-0.7V117.6z"/>
<path d="M-628.1,118.7c-0.1,1.5,1,2.9,2.6,3c0.1,0,0.3,0,0.4,0c0.8,0,1.6-0.1,2.4-0.5l0.3,1.1c-0.9,0.4-1.9,0.6-2.9,0.5
	c-2.2,0.2-4.1-1.5-4.3-3.7c0-0.2,0-0.5,0-0.7c0-2.6,1.5-4.7,4.1-4.7c2.8,0,3.6,2.5,3.6,4.1c0,0.2,0,0.5,0,0.7L-628.1,118.7z
	 M-623.5,117.6c0.2-1.2-0.7-2.4-1.9-2.6c-0.1,0-0.2,0-0.3,0c-1.4,0.1-2.4,1.2-2.4,2.6H-623.5z"/>
<path d="M-620,116.8c0-1,0-1.9-0.1-2.7h1.4v1.7h0.1c0.3-1.1,1.3-1.9,2.4-1.9c0.1,0,0.3,0,0.5,0v1.5c-1.2-0.3-2.4,0.5-2.6,1.7
	c0,0.1,0,0.2,0,0.3c0,0.2-0.1,0.5-0.1,0.7v4.6h-1.5V116.8z"/>
<path d="M-609.3,122.8l-0.1-1.1l0,0c-0.6,0.8-1.6,1.3-2.7,1.3c-1.4,0.1-2.6-0.9-2.7-2.3c0-0.1,0-0.1,0-0.2c0-2.1,1.9-3.3,5.2-3.2
	v-0.2c0.1-1-0.6-1.9-1.6-2c-0.1,0-0.3,0-0.4,0c-0.8,0-1.6,0.2-2.3,0.7l-0.4-1c0.9-0.5,1.9-0.8,2.9-0.8c2.7,0,3.3,1.8,3.3,3.6v3.2
	c0,0.7,0,1.4,0.2,2.1L-609.3,122.8z M-609.6,118.3c-1.7,0-3.7,0.3-3.7,2c-0.1,0.8,0.5,1.5,1.3,1.5c0.1,0,0.1,0,0.2,0
	c0.9,0,1.8-0.6,2.1-1.5c0.1-0.2,0.1-0.3,0.1-0.5V118.3z"/>
<path d="M-601.1,114.1l1.9,5.2c0.2,0.6,0.4,1.3,0.6,1.8l0,0c0.2-0.5,0.3-1.2,0.6-1.8l1.7-5.1h1.7l-2.3,6.2c-1.1,3-1.9,4.5-3,5.5
	c-0.6,0.5-1.2,0.8-2,1l-0.4-1.3c0.5-0.2,1-0.4,1.4-0.8c0.6-0.5,1-1.1,1.3-1.8c0.1-0.1,0.1-0.2,0.1-0.4c0-0.1-0.1-0.3-0.1-0.4l-3.2-8
	L-601.1,114.1z"/>
<path d="M-589.4,116.4c0-0.9,0-1.6-0.1-2.4h1.4l0.1,1.4h0.1c0.5-1,1.6-1.6,2.7-1.6c1.1,0,2.1,0.7,2.5,1.8l0,0c0.2-0.4,0.6-0.8,1-1.1
	c0.6-0.4,1.2-0.6,1.9-0.6c1.2,0,2.9,0.8,2.9,3.8v5.1h-1.5v-4.9c0-1.7-0.6-2.7-1.9-2.7c-0.9,0-1.6,0.6-1.9,1.4
	c-0.1,0.3-0.1,0.5-0.1,0.8v5.4h-1.5v-5.2c0-1.4-0.6-2.4-1.8-2.4c-0.9,0-1.7,0.7-2,1.6c-0.1,0.3-0.1,0.5-0.1,0.8v5.2h-1.5
	L-589.4,116.4z"/>
<path d="M-572.6,111.6c0,0.6-0.4,1-1,1s-1-0.4-1-1s0.4-1,1-1c0.5,0,1,0.4,1,0.9C-572.6,111.5-572.6,111.6-572.6,111.6z
	 M-574.4,122.8v-8.7h1.6v8.7H-574.4z"/>
<path d="M-570.4,121.2c0.6,0.4,1.3,0.6,2.1,0.6c1.2,0,1.7-0.6,1.7-1.3s-0.5-1.2-1.6-1.6c-1.6-0.5-2.3-1.4-2.3-2.5
	c0-1.4,1.1-2.6,3-2.6c0.7,0,1.5,0.2,2.1,0.5l-0.4,1.2c-0.5-0.3-1.2-0.5-1.8-0.5c-0.9,0-1.5,0.5-1.5,1.2s0.5,1,1.7,1.5
	c1.5,0.6,2.3,1.3,2.3,2.6c0,1.5-1.2,2.6-3.3,2.6c-0.9,0-1.7-0.2-2.5-0.6L-570.4,121.2z"/>
<path d="M-559.2,116.9c0-1.1,0-2-0.1-2.8h1.4l0.1,1.5l0,0c0.6-1.1,1.8-1.7,3.1-1.7c2.1,0,3.7,1.8,3.7,4.4c0,3.1-1.9,4.7-4,4.7
	c-1.1,0.1-2.1-0.5-2.7-1.4l0,0v4.7h-1.6L-559.2,116.9z M-557.7,119.2c0,0.2,0,0.4,0.1,0.6c0.3,1.1,1.3,1.9,2.4,1.9
	c1.7,0,2.6-1.4,2.6-3.4c0-1.7-0.9-3.2-2.6-3.2c-1.2,0-2.2,0.9-2.4,2c-0.1,0.2-0.1,0.4-0.1,0.7V119.2z"/>
<path d="M-547.2,111.6c0,0.6-0.4,1-1,1c-0.6,0-1-0.4-1-1s0.4-1,1-1c0.5,0,1,0.4,1,0.9C-547.2,111.5-547.2,111.6-547.2,111.6z
	 M-549,122.8v-8.7h1.6v8.7H-549z"/>
<path d="M-543.9,118.7c-0.1,1.5,1,2.9,2.6,3c0.1,0,0.3,0,0.4,0c0.8,0,1.6-0.1,2.4-0.5l0.3,1.1c-0.9,0.4-1.9,0.6-2.9,0.5
	c-2.2,0.2-4.1-1.5-4.3-3.7c0-0.2,0-0.5,0-0.7c0-2.6,1.5-4.7,4.1-4.7c2.9,0,3.6,2.5,3.6,4.1c0,0.2,0,0.5-0.1,0.7L-543.9,118.7z
	 M-539.2,117.6c0.2-1.2-0.7-2.4-1.9-2.6c-0.1,0-0.2,0-0.3,0c-1.4,0.1-2.4,1.2-2.4,2.6H-539.2z"/>
<path d="M-536,121.2c0.6,0.4,1.3,0.6,2.1,0.6c1.2,0,1.7-0.6,1.7-1.3s-0.5-1.2-1.6-1.6c-1.6-0.5-2.3-1.4-2.3-2.5c0-1.4,1.1-2.6,3-2.6
	c0.8,0,1.5,0.2,2.2,0.5l-0.4,1.2c-0.5-0.3-1.2-0.5-1.8-0.5c-0.9,0-1.5,0.5-1.5,1.2s0.5,1,1.7,1.5c1.5,0.6,2.3,1.3,2.3,2.6
	c0,1.5-1.2,2.6-3.3,2.6c-0.9,0-1.7-0.2-2.5-0.6L-536,121.2z"/>
<path d="M-517.3,110v10.5c0,0.8,0,1.7,0.1,2.2h-1.4l-0.1-1.5l0,0c-0.6,1.1-1.8,1.8-3,1.7c-2.1,0-3.7-1.8-3.7-4.4
	c0-2.9,1.8-4.7,3.9-4.7c1.1-0.1,2.1,0.4,2.6,1.3l0,0V110H-517.3z M-518.9,117.6c0-0.2,0-0.4-0.1-0.7c-0.2-1.1-1.2-1.8-2.3-1.8
	c-1.6,0-2.6,1.4-2.6,3.4c0,1.8,0.9,3.2,2.6,3.2c1.1,0,2.1-0.8,2.3-1.9c0.1-0.2,0.1-0.5,0.1-0.7V117.6z"/>
<path d="M-513.8,118.7c-0.1,1.5,1,2.9,2.6,3c0.1,0,0.3,0,0.4,0c0.8,0,1.7-0.1,2.4-0.5l0.3,1.1c-0.9,0.4-1.9,0.6-2.9,0.5
	c-2.2,0.2-4.1-1.5-4.3-3.7c0-0.2,0-0.5,0-0.7c0-2.6,1.5-4.7,4.1-4.7c2.8,0,3.6,2.5,3.6,4.1c0,0.3,0,0.6,0,0.7L-513.8,118.7z
	 M-509.1,117.6c0.2-1.2-0.7-2.4-1.9-2.6c-0.1,0-0.2,0-0.3,0c-1.4,0.1-2.4,1.2-2.4,2.6H-509.1z"/>
<path d="M-505.8,121.2c0.6,0.4,1.3,0.6,2.1,0.6c1.2,0,1.7-0.6,1.7-1.3s-0.5-1.2-1.6-1.6c-1.6-0.5-2.3-1.4-2.3-2.5
	c0-1.4,1.1-2.6,3-2.6c0.7,0,1.5,0.2,2.1,0.5l-0.4,1.2c-0.5-0.3-1.2-0.5-1.8-0.5c-0.9,0-1.5,0.5-1.5,1.2s0.5,1,1.7,1.5
	c1.5,0.6,2.3,1.3,2.3,2.6c0,1.5-1.2,2.6-3.3,2.6c-0.9,0-1.7-0.2-2.5-0.6L-505.8,121.2z"/>
<path d="M-490.6,118.4c0.2,2.3-1.5,4.4-3.9,4.6c-0.2,0-0.3,0-0.5,0c-2.3,0-4.2-1.8-4.2-4.1c0-0.1,0-0.3,0-0.4c0-2.9,1.9-4.6,4.3-4.6
	S-490.6,115.7-490.6,118.4z M-497.5,118.5c0,1.9,1.1,3.3,2.7,3.3s2.6-1.4,2.6-3.4c0-1.5-0.7-3.3-2.6-3.3S-497.5,116.8-497.5,118.5
	L-497.5,118.5z"/>
<path d="M-488.7,122.8c0-0.6,0.1-1.5,0.1-2.2V110h1.6v5.5l0,0c0.6-1.1,1.8-1.7,3-1.6c2.2,0,3.7,1.8,3.7,4.5c0,3.1-2,4.7-3.9,4.7
	c-1.2,0.1-2.3-0.6-2.9-1.6l0,0l-0.1,1.4L-488.7,122.8z M-487,119.3c0,0.2,0,0.4,0.1,0.6c0.3,1.1,1.2,1.9,2.4,1.8
	c1.7,0,2.7-1.3,2.7-3.3c0-1.7-0.9-3.2-2.6-3.2c-1.2,0-2.2,0.9-2.4,2c-0.1,0.2-0.1,0.4-0.1,0.6V119.3z"/>
<path d="M-477.5,118.7c-0.1,1.5,1,2.9,2.6,3c0.1,0,0.3,0,0.4,0c0.8,0,1.6-0.1,2.4-0.5l0.3,1.1c-0.9,0.4-1.9,0.6-2.9,0.5
	c-2.2,0.2-4.1-1.5-4.3-3.7c0-0.2,0-0.5,0-0.7c0-2.6,1.5-4.7,4.1-4.7c2.8,0,3.6,2.5,3.6,4.1c0,0.3,0,0.6,0,0.7L-477.5,118.7z
	 M-472.8,117.6c0.2-1.2-0.7-2.4-1.9-2.6c-0.1,0-0.2,0-0.2,0c-1.4,0.1-2.4,1.2-2.4,2.6L-472.8,117.6z"/>
<path d="M-461.8,110v10.5c0,0.8,0,1.7,0.1,2.2h-1.4l-0.1-1.5l0,0c-0.6,1.1-1.8,1.8-3,1.7c-2.1,0-3.7-1.8-3.7-4.4
	c0-2.9,1.8-4.7,3.9-4.7c1-0.1,2.1,0.4,2.6,1.3l0,0V110H-461.8z M-463.4,117.6c0-0.2,0-0.4-0.1-0.7c-0.2-1.1-1.2-1.8-2.3-1.8
	c-1.6,0-2.6,1.4-2.6,3.4c0,1.8,0.9,3.2,2.6,3.2c1.1,0,2.1-0.8,2.3-1.9c0.1-0.2,0.1-0.5,0.1-0.7L-463.4,117.6z"/>
<path d="M-458.3,118.7c-0.1,1.5,1,2.9,2.6,3c0.1,0,0.3,0,0.4,0c0.8,0,1.6-0.1,2.4-0.5l0.3,1.1c-0.9,0.4-1.9,0.6-2.9,0.5
	c-2.2,0.2-4.1-1.5-4.3-3.7c0-0.2,0-0.5,0-0.7c0-2.6,1.5-4.7,4.1-4.7c2.8,0,3.6,2.5,3.6,4.1c0,0.2,0,0.5-0.1,0.7L-458.3,118.7z
	 M-453.7,117.6c0.2-1.2-0.7-2.4-1.9-2.6c-0.1,0-0.2,0-0.3,0c-1.4,0.1-2.4,1.2-2.4,2.6H-453.7z"/>
<path d="M-444,122.5c-0.8,0.4-1.6,0.5-2.5,0.5c-2.3,0.1-4.2-1.6-4.3-3.9c0-0.2,0-0.3,0-0.5c-0.1-2.4,1.8-4.5,4.2-4.6
	c0.2,0,0.3,0,0.5,0c0.8,0,1.5,0.1,2.2,0.5l-0.4,1.2c-0.6-0.3-1.2-0.4-1.8-0.4c-1.8,0.1-3.2,1.6-3.1,3.4c0.1,1.7,1.4,3,3.1,3.1
	c0.7,0,1.3-0.1,1.9-0.4L-444,122.5z"/>
<path d="M-441.3,118.7c-0.1,1.5,1,2.9,2.6,3c0.1,0,0.3,0,0.4,0c0.8,0,1.6-0.1,2.4-0.5l0.3,1.1c-0.9,0.4-1.9,0.6-2.9,0.5
	c-2.2,0.2-4.1-1.5-4.3-3.7c0-0.2,0-0.5,0-0.7c0-2.6,1.5-4.7,4.1-4.7c2.8,0,3.6,2.5,3.6,4.1c0,0.2,0,0.5,0,0.7L-441.3,118.7z
	 M-436.7,117.6c0.2-1.2-0.7-2.4-1.9-2.6c-0.1,0-0.2,0-0.3,0c-1.4,0.1-2.4,1.2-2.4,2.6L-436.7,117.6z"/>
<path d="M-433.2,116.4c0-0.9,0-1.6-0.1-2.4h1.4l0.1,1.4l0,0c0.6-1,1.7-1.7,2.9-1.6c1.2,0,3.1,0.7,3.1,3.7v5.2h-1.6v-5
	c0-1.4-0.5-2.6-2-2.6c-1,0-1.8,0.7-2.1,1.6c-0.1,0.2-0.1,0.5-0.1,0.7v5.2h-1.6L-433.2,116.4z"/>
<path d="M-424.2,125c0.5-1.4,0.8-2.8,1.1-4.3l1.8-0.2c-0.4,1.5-1,3-1.7,4.4L-424.2,125z"/>
<path d="M-670.1,144c-1,0.4-2.1,0.6-3.2,0.6c-3.4,0-6-2.2-6-6.1c-0.2-3.3,2.3-6.2,5.6-6.4c0.2,0,0.5,0,0.7,0c1,0,2,0.1,2.9,0.5
	l-0.4,1.3c-0.8-0.3-1.6-0.5-2.4-0.5c-2.9,0-4.7,1.8-4.7,5c0,3,1.7,4.9,4.7,4.9c0.9,0,1.8-0.2,2.6-0.5L-670.1,144z"/>
<path d="M-663.5,144.4l-0.1-1.1h0c-0.6,0.8-1.6,1.3-2.7,1.3c-1.4,0.1-2.6-0.9-2.7-2.3c0-0.1,0-0.1,0-0.2c0-2.1,1.9-3.3,5.2-3.2v-0.2
	c0.1-1-0.6-1.9-1.6-2c-0.1,0-0.3,0-0.4,0c-0.8,0-1.6,0.2-2.3,0.7l-0.4-1c0.9-0.5,1.9-0.8,2.9-0.8c2.7,0,3.3,1.8,3.3,3.6v3.2
	c0,0.7,0,1.4,0.1,2.1L-663.5,144.4z M-663.7,140c-1.7,0-3.7,0.3-3.7,2c-0.1,0.8,0.5,1.5,1.3,1.5c0.1,0,0.1,0,0.2,0
	c0.9,0,1.8-0.6,2.1-1.5c0.1-0.2,0.1-0.3,0.1-0.5L-663.7,140z"/>
<path d="M-652.1,131.6v10.5c0,0.8,0,1.7,0.1,2.2h-1.4l-0.1-1.5l0,0c-0.6,1.1-1.8,1.8-3,1.7c-2.1,0-3.7-1.8-3.7-4.4
	c0-2.9,1.8-4.7,3.9-4.7c1.1-0.1,2.1,0.4,2.6,1.3l0,0v-5.2L-652.1,131.6z M-653.7,139.2c0-0.2,0-0.4-0.1-0.7
	c-0.2-1.1-1.2-1.8-2.3-1.8c-1.6,0-2.6,1.4-2.6,3.4c0,1.8,0.9,3.2,2.6,3.2c1.1,0,2.1-0.8,2.3-1.9c0.1-0.2,0.1-0.5,0.1-0.7V139.2z"/>
<path d="M-644.6,144.4l-0.1-1.1h0c-0.6,0.8-1.6,1.3-2.7,1.3c-1.4,0.1-2.6-0.9-2.7-2.3c0-0.1,0-0.1,0-0.2c0-2.1,1.9-3.3,5.2-3.2v-0.2
	c0.1-1-0.6-1.9-1.6-2c-0.1,0-0.3,0-0.4,0c-0.8,0-1.6,0.2-2.3,0.7l-0.4-1c0.9-0.5,1.9-0.8,2.9-0.8c2.7,0,3.3,1.8,3.3,3.6v3.2
	c0,0.7,0,1.4,0.1,2.1L-644.6,144.4z M-644.9,140c-1.7,0-3.7,0.3-3.7,2c-0.1,0.8,0.5,1.5,1.3,1.5c0.1,0,0.1,0,0.2,0
	c0.9,0,1.8-0.6,2.1-1.5c0.1-0.2,0.1-0.3,0.1-0.5V140z"/>
<path d="M-629.7,142c0,0.9,0,1.7,0.1,2.4h-1.4l-0.1-1.4l0,0c-0.6,1-1.7,1.6-2.9,1.6c-1.4,0-3-0.8-3-3.8v-5.1h1.6v4.8
	c0,1.7,0.5,2.8,2,2.8c0.9,0,1.7-0.6,2.1-1.4c0.1-0.3,0.1-0.5,0.1-0.8v-5.3h1.6L-629.7,142z"/>
<path d="M-627,138c0-0.9,0-1.6-0.1-2.4h1.4l0.1,1.4l0,0c0.6-1,1.7-1.7,2.9-1.6c1.2,0,3.1,0.7,3.1,3.7v5.2h-1.6v-5
	c0-1.4-0.5-2.6-2-2.6c-1.3,0-2.3,1.1-2.2,2.4v5.2h-1.6V138z"/>
<path d="M-609.2,140c0.2,2.3-1.5,4.4-3.9,4.6c-0.2,0-0.3,0-0.5,0c-2.3,0-4.2-1.8-4.2-4.1c0-0.1,0-0.3,0-0.4c0-2.9,1.9-4.6,4.3-4.6
	c2.3,0,4.2,1.8,4.2,4C-609.1,139.7-609.1,139.9-609.2,140z M-616.1,140.1c0,1.9,1.1,3.3,2.6,3.3c1.6,0,2.7-1.4,2.7-3.4
	c0-1.5-0.7-3.3-2.6-3.3S-616.1,138.4-616.1,140.1L-616.1,140.1z"/>
<path d="M-601.4,133.2v2.5h2.3v1.2h-2.3v4.7c0,1.1,0.3,1.7,1.2,1.7c0.3,0,0.6,0,0.9-0.1l0.1,1.2c-0.5,0.2-0.9,0.2-1.4,0.2
	c-0.6,0-1.3-0.2-1.7-0.7c-0.5-0.7-0.7-1.5-0.6-2.3v-4.8h-1.3v-1.2h1.3v-2.1L-601.4,133.2z"/>
<path d="M-595.6,133.2c0,0.6-0.4,1-1,1s-1-0.4-1-1s0.4-1,1-1c0.5,0,1,0.4,1,0.9C-595.6,133.1-595.6,133.2-595.6,133.2z
	 M-597.4,144.4v-8.7h1.6v8.7H-597.4z"/>
<path d="M-592.3,140.3c-0.1,1.5,1,2.9,2.6,3c0.1,0,0.3,0,0.4,0c0.8,0,1.6-0.1,2.4-0.5l0.3,1.1c-0.9,0.4-1.9,0.6-2.9,0.5
	c-2.2,0.2-4.1-1.5-4.3-3.7c0-0.2,0-0.5,0-0.7c0-2.6,1.5-4.7,4.1-4.7c2.8,0,3.6,2.5,3.6,4.1c0,0.2,0,0.5-0.1,0.7L-592.3,140.3z
	 M-587.7,139.2c0.2-1.2-0.7-2.4-1.9-2.6c-0.1,0-0.2,0-0.3,0c-1.4,0.1-2.4,1.2-2.4,2.6H-587.7z"/>
<path d="M-584.2,138c0-0.9,0-1.6-0.1-2.4h1.4l0.1,1.4l0,0c0.6-1,1.7-1.7,2.9-1.6c1.2,0,3.1,0.7,3.1,3.7v5.2h-1.6v-5
	c0-1.4-0.5-2.6-2-2.6c-1.3,0.1-2.2,1.1-2.2,2.4v5.2h-1.6L-584.2,138z"/>
<path d="M-573.3,140.3c-0.1,1.5,1,2.9,2.6,3c0.1,0,0.3,0,0.4,0c0.8,0,1.6-0.1,2.4-0.5l0.3,1.1c-0.9,0.4-1.9,0.6-2.9,0.5
	c-2.2,0.2-4.1-1.5-4.3-3.7c0-0.2,0-0.5,0-0.7c0-2.6,1.5-4.7,4.1-4.7c2.9,0,3.6,2.5,3.6,4.1c0,0.2,0,0.5-0.1,0.7L-573.3,140.3z
	 M-568.7,139.2c0.2-1.2-0.7-2.4-1.9-2.6c-0.1,0-0.2,0-0.3,0c-1.4,0.1-2.4,1.2-2.4,2.6H-568.7z"/>
<path d="M-561.6,142.8c0.6,0.4,1.3,0.6,2.1,0.6c1.2,0,1.7-0.6,1.7-1.3s-0.5-1.2-1.6-1.6c-1.6-0.5-2.3-1.4-2.3-2.5
	c0-1.4,1.1-2.6,3-2.6c0.7,0,1.5,0.2,2.1,0.5l-0.4,1.2c-0.5-0.3-1.2-0.5-1.8-0.5c-0.9,0-1.5,0.5-1.5,1.2s0.5,1,1.7,1.5
	c1.5,0.6,2.3,1.3,2.3,2.6c0,1.5-1.2,2.6-3.3,2.6c-0.9,0-1.7-0.2-2.5-0.6L-561.6,142.8z"/>
<path d="M-546.9,142c0,0.9,0,1.7,0.1,2.4h-1.4l-0.1-1.4l0,0c-0.6,1-1.7,1.6-2.9,1.6c-1.4,0-3-0.8-3-3.8v-5.1h1.6v4.8
	c0,1.7,0.5,2.8,1.9,2.8c0.9,0,1.7-0.6,2.1-1.4c0.1-0.3,0.1-0.5,0.1-0.8v-5.3h1.6L-546.9,142z"/>
<path d="M-540.5,138.5c0-1.1,0-2-0.1-2.8h1.4l0.1,1.5l0,0c0.6-1.1,1.8-1.7,3.1-1.7c2.1,0,3.7,1.8,3.7,4.4c0,3.1-1.9,4.7-4,4.7
	c-1.1,0-2.1-0.5-2.7-1.4l0,0v4.8h-1.6L-540.5,138.5z M-538.9,140.9c0,0.2,0,0.4,0.1,0.6c0.3,1.1,1.3,1.9,2.4,1.9
	c1.7,0,2.6-1.4,2.6-3.4c0-1.7-0.9-3.2-2.6-3.2c-1.2,0-2.2,0.9-2.4,2c-0.1,0.2-0.1,0.4-0.1,0.7L-538.9,140.9z"/>
<path d="M-530.2,138.4c0-1,0-1.9-0.1-2.7h1.4l0,1.7h0.1c0.3-1.1,1.3-1.9,2.4-1.9c0.1,0,0.3,0,0.5,0v1.5c-1.2-0.3-2.3,0.4-2.6,1.6
	c0,0.1,0,0.3-0.1,0.4c0,0.2-0.1,0.5-0.1,0.7v4.6h-1.6V138.4z"/>
<path d="M-516.6,140c0.2,2.3-1.5,4.4-3.9,4.6c-0.2,0-0.3,0-0.5,0c-2.3,0-4.2-1.8-4.2-4.1c0-0.1,0-0.3,0-0.4c0-2.9,1.9-4.6,4.3-4.6
	c2.3,0,4.2,1.8,4.2,4C-516.6,139.7-516.6,139.9-516.6,140z M-523.6,140.1c0,1.9,1.1,3.3,2.7,3.3s2.7-1.4,2.7-3.4
	c0-1.5-0.7-3.3-2.6-3.3S-523.6,138.4-523.6,140.1L-523.6,140.1z"/>
<path d="M-514.7,138.5c0-1.1,0-2-0.1-2.8h1.4l0.1,1.5l0,0c0.6-1.1,1.8-1.7,3.1-1.7c2.1,0,3.7,1.8,3.7,4.4c0,3.1-1.9,4.7-4,4.7
	c-1.1,0-2.1-0.5-2.7-1.4l0,0v4.8h-1.6L-514.7,138.5z M-513.1,140.9c0,0.2,0,0.4,0.1,0.6c0.3,1.1,1.3,1.9,2.4,1.9
	c1.6,0,2.6-1.4,2.6-3.4c0-1.7-0.9-3.2-2.6-3.2c-1.2,0-2.2,0.9-2.4,2c-0.1,0.2-0.1,0.4-0.1,0.7L-513.1,140.9z"/>
<path d="M-502.6,133.2c0,0.6-0.4,1-1,1s-1-0.4-1-1s0.4-1,1-1c0.5,0,1,0.4,1,0.9C-502.6,133.1-502.6,133.2-502.6,133.2z
	 M-504.4,144.4v-8.7h1.6v8.7H-504.4z"/>
<path d="M-495.4,144.4l-0.1-1.1l0,0c-0.6,0.8-1.6,1.3-2.7,1.3c-1.4,0.1-2.6-0.9-2.7-2.3c0-0.1,0-0.1,0-0.2c0-2.1,1.9-3.3,5.2-3.2
	v-0.2c0.1-1-0.6-1.9-1.6-2c-0.1,0-0.3,0-0.4,0c-0.8,0-1.6,0.2-2.3,0.7l-0.4-1c0.9-0.5,1.9-0.8,2.9-0.8c2.7,0,3.3,1.8,3.3,3.6v3.2
	c0,0.7,0,1.4,0.1,2.1L-495.4,144.4z M-495.6,140c-1.7,0-3.7,0.3-3.7,2c-0.1,0.8,0.5,1.4,1.3,1.5c0.1,0,0.1,0,0.2,0
	c0.9,0,1.8-0.6,2.1-1.5c0.1-0.2,0.1-0.3,0.1-0.5V140z"/>
<path d="M-485.9,133.2c0,0.6-0.4,1-1,1s-1-0.4-1-1s0.4-1,1-1c0.5,0,1,0.4,1,0.9C-485.9,133.1-485.9,133.2-485.9,133.2z
	 M-487.7,144.4v-8.7h1.6v8.7H-487.7z"/>
<path d="M-483.5,138c0-0.9,0-1.6-0.1-2.4h1.4l0.1,1.4l0,0c0.6-1,1.7-1.7,2.9-1.6c1.2,0,3.1,0.7,3.1,3.7v5.2h-1.6v-5
	c0-1.4-0.5-2.6-2-2.6c-1.3,0.1-2.3,1.1-2.2,2.4v5.2h-1.6L-483.5,138z"/>
<path d="M-466,131.6v10.5c0,0.8,0,1.7,0.1,2.2h-1.4l-0.1-1.5l0,0c-0.6,1.1-1.8,1.8-3,1.7c-2.1,0-3.7-1.8-3.7-4.4
	c0-2.9,1.8-4.7,3.9-4.7c1-0.1,2.1,0.4,2.6,1.3l0,0v-5.2L-466,131.6z M-467.6,139.2c0-0.2,0-0.4-0.1-0.7c-0.2-1.1-1.2-1.8-2.3-1.8
	c-1.6,0-2.6,1.4-2.6,3.4c0,1.8,0.9,3.2,2.6,3.2c1.1,0,2.1-0.8,2.3-1.9c0.1-0.2,0.1-0.5,0.1-0.7L-467.6,139.2z"/>
<path d="M-462.5,140.3c-0.1,1.5,1,2.9,2.6,3c0.1,0,0.3,0,0.4,0c0.8,0,1.6-0.1,2.4-0.5l0.3,1.1c-0.9,0.4-1.9,0.6-2.9,0.5
	c-2.2,0.2-4.1-1.5-4.3-3.7c0-0.2,0-0.5,0-0.7c0-2.6,1.5-4.7,4.1-4.7c2.8,0,3.6,2.5,3.6,4.1c0,0.2,0,0.5-0.1,0.7L-462.5,140.3z
	 M-457.8,139.2c0.2-1.2-0.7-2.4-1.9-2.6c-0.1,0-0.2,0-0.3,0c-1.4,0.1-2.4,1.2-2.4,2.6H-457.8z"/>
<path d="M-454.3,138.5c0-1.1,0-2-0.1-2.8h1.4l0.1,1.5l0,0c0.6-1.1,1.8-1.7,3.1-1.7c2.1,0,3.7,1.8,3.7,4.4c0,3.1-1.9,4.7-4,4.7
	c-1.1,0.1-2.1-0.5-2.7-1.4l0,0v4.8h-1.6L-454.3,138.5z M-452.8,140.9c0,0.2,0,0.4,0.1,0.6c0.3,1.1,1.2,1.9,2.4,1.9
	c1.7,0,2.7-1.4,2.7-3.4c0-1.7-0.9-3.2-2.6-3.2c-1.2,0-2.2,0.9-2.4,2c-0.1,0.2-0.1,0.4-0.1,0.7V140.9z"/>
<path d="M-443.2,140.3c-0.1,1.5,1,2.9,2.6,3c0.1,0,0.3,0,0.4,0c0.8,0,1.6-0.1,2.4-0.5l0.3,1.1c-0.9,0.4-1.9,0.6-2.9,0.5
	c-2.2,0.2-4.1-1.5-4.3-3.7c0-0.2,0-0.5,0-0.7c0-2.6,1.5-4.7,4.1-4.7c2.8,0,3.6,2.5,3.6,4.1c0,0.2,0,0.5-0.1,0.7L-443.2,140.3z
	 M-438.6,139.2c0.2-1.2-0.7-2.4-1.9-2.6c-0.1,0-0.2,0-0.3,0c-1.4,0.1-2.4,1.2-2.4,2.6H-438.6z"/>
<path d="M-435.1,138c0-0.9,0-1.6-0.1-2.4h1.4l0.1,1.4l0,0c0.6-1,1.7-1.7,2.9-1.6c1.2,0,3.1,0.7,3.1,3.7v5.2h-1.6v-5
	c0-1.4-0.5-2.6-2-2.6c-1.3,0.1-2.3,1.1-2.2,2.4v5.2h-1.6L-435.1,138z"/>
<path d="M-417.6,131.6v10.5c0,0.8,0,1.7,0.1,2.2h-1.4l-0.1-1.5l0,0c-0.6,1.1-1.8,1.8-3,1.7c-2.1,0-3.7-1.8-3.7-4.4
	c0-2.9,1.8-4.7,3.9-4.7c1.1-0.1,2.1,0.4,2.6,1.3l0,0v-5.2L-417.6,131.6z M-419.1,139.2c0-0.2,0-0.4-0.1-0.7
	c-0.2-1.1-1.2-1.8-2.3-1.8c-1.6,0-2.6,1.4-2.6,3.4c0,1.8,0.9,3.2,2.6,3.2c1.1,0,2.1-0.8,2.3-1.9c0.1-0.2,0.1-0.5,0.1-0.7
	L-419.1,139.2z"/>
<path d="M-414,140.3c-0.1,1.5,1,2.9,2.6,3c0.1,0,0.3,0,0.4,0c0.8,0,1.6-0.1,2.4-0.5l0.3,1.1c-0.9,0.4-1.9,0.6-2.9,0.5
	c-2.2,0.2-4.1-1.5-4.3-3.7c0-0.2,0-0.5,0-0.7c0-2.6,1.5-4.7,4.1-4.7c2.8,0,3.6,2.5,3.6,4.1c0,0.2,0,0.5-0.1,0.7L-414,140.3z
	 M-409.3,139.2c0.2-1.2-0.7-2.4-1.9-2.6c-0.1,0-0.2,0-0.3,0c-1.4,0.1-2.4,1.2-2.4,2.6H-409.3z"/>
<path d="M-405.9,138c0-0.9,0-1.6-0.1-2.4h1.4l0.1,1.4l0,0c0.6-1,1.7-1.7,2.9-1.6c1.2,0,3.1,0.7,3.1,3.7v5.2h-1.6v-5
	c0-1.4-0.5-2.6-2-2.6c-1.3,0.1-2.2,1.1-2.2,2.4v5.2h-1.6L-405.9,138z"/>
<path d="M-389.7,144.1c-0.8,0.4-1.6,0.5-2.5,0.5c-2.3,0.1-4.2-1.6-4.3-3.9c0-0.2,0-0.3,0-0.5c-0.1-2.4,1.8-4.5,4.2-4.6
	c0.2,0,0.3,0,0.5,0c0.8,0,1.5,0.1,2.2,0.5l-0.4,1.2c-0.6-0.3-1.2-0.4-1.8-0.4c-1.8,0.1-3.2,1.6-3.1,3.4c0.1,1.7,1.4,3,3.1,3.1
	c0.7,0,1.3-0.1,2-0.4L-389.7,144.1z"/>
<path d="M-386.1,133.2c0,0.6-0.4,1-1,1s-1-0.4-1-1s0.4-1,1-1c0.5,0,1,0.4,1,0.9C-386.1,133.1-386.1,133.2-386.1,133.2z
	 M-387.9,144.4v-8.7h1.6v8.7H-387.9z"/>
<path d="M-378.8,144.4l-0.1-1.1l0,0c-0.6,0.8-1.6,1.3-2.7,1.3c-1.4,0.1-2.6-0.9-2.7-2.3c0-0.1,0-0.1,0-0.2c0-2.1,1.9-3.3,5.2-3.2
	v-0.2c0.1-1-0.6-1.9-1.6-2c-0.1,0-0.3,0-0.4,0c-0.8,0-1.6,0.2-2.3,0.7l-0.4-1c0.9-0.5,1.9-0.8,2.9-0.8c2.7,0,3.3,1.8,3.3,3.6v3.2
	c0,0.7,0,1.4,0.1,2.1L-378.8,144.4z M-379.1,140c-1.7,0-3.7,0.3-3.7,2c-0.1,0.8,0.5,1.5,1.3,1.5c0.1,0,0.1,0,0.2,0
	c0.9,0,1.8-0.6,2.1-1.5c0.1-0.2,0.1-0.3,0.1-0.5V140z"/>
<path d="M-376,146.6c0.5-1.4,0.9-2.8,1.1-4.3l1.8-0.2c-0.4,1.5-1,3-1.7,4.4L-376,146.6z"/>
<path d="M-668.3,160.7c-0.1-1.7-0.2-3.7-0.2-5.2h0c-0.4,1.4-0.9,2.9-1.5,4.6l-2.2,5.9h-1.2l-2-5.8c-0.6-1.7-1.1-3.3-1.4-4.7l0,0
	c0,1.5-0.1,3.5-0.2,5.4l-0.3,5.2h-1.5l0.8-12.1h2l2.1,5.9c0.5,1.5,0.9,2.8,1.2,4.1h0c0.3-1.2,0.7-2.5,1.3-4.1l2.2-5.9h2l0.8,12.1
	h-1.6L-668.3,160.7z"/>
<path d="M-662.1,154.8c0,0.6-0.4,1-1,1s-1-0.4-1-1s0.4-1,1-1c0.5,0,1,0.4,1,0.9C-662.1,154.7-662.1,154.8-662.1,154.8z M-663.9,166
	v-8.7h1.6v8.7H-663.9z"/>
<path d="M-659.9,164.4c0.6,0.4,1.3,0.6,2.1,0.6c1.1,0,1.7-0.6,1.7-1.3s-0.5-1.2-1.6-1.6c-1.6-0.5-2.3-1.4-2.3-2.5
	c0-1.4,1.1-2.6,3-2.6c0.7,0,1.5,0.2,2.1,0.5l-0.4,1.2c-0.5-0.3-1.2-0.5-1.8-0.5c-0.9,0-1.5,0.5-1.5,1.2s0.5,1,1.7,1.5
	c1.5,0.6,2.3,1.3,2.3,2.6c0,1.5-1.2,2.6-3.2,2.6c-0.9,0-1.7-0.2-2.4-0.6L-659.9,164.4z"/>
<path d="M-648.8,159.6c0-0.9,0-1.6-0.1-2.4h1.4l0.1,1.4h0c0.5-1,1.6-1.6,2.7-1.6c1.1,0,2.1,0.7,2.5,1.8l0,0c0.2-0.4,0.6-0.8,1-1.1
	c0.6-0.4,1.2-0.6,1.9-0.6c1.1,0,2.9,0.8,2.9,3.8v5.1h-1.5v-4.9c0-1.7-0.6-2.7-1.9-2.7c-0.9,0-1.6,0.6-1.9,1.4
	c-0.1,0.3-0.1,0.5-0.1,0.8v5.4h-1.6v-5.2c0-1.4-0.6-2.4-1.8-2.4c-0.9,0-1.7,0.7-2,1.6c-0.1,0.3-0.1,0.5-0.1,0.8v5.2h-1.6
	L-648.8,159.6z"/>
<path d="M-628.9,166l-0.1-1.1l0,0c-0.6,0.8-1.6,1.3-2.7,1.3c-1.4,0.1-2.6-0.9-2.7-2.3c0-0.1,0-0.1,0-0.2c0-2.1,1.9-3.3,5.2-3.2v-0.2
	c0.1-1-0.6-1.9-1.6-2c-0.1,0-0.3,0-0.4,0c-0.8,0-1.6,0.2-2.3,0.7l-0.4-1c0.9-0.5,1.9-0.8,2.9-0.8c2.7,0,3.3,1.8,3.3,3.6v3.2
	c0,0.7,0,1.4,0.1,2.1L-628.9,166z M-629.1,161.6c-1.7,0-3.7,0.3-3.7,2c-0.1,0.8,0.5,1.4,1.3,1.5c0.1,0,0.1,0,0.2,0
	c0.9,0,1.8-0.6,2.1-1.5c0.1-0.2,0.1-0.3,0.1-0.5V161.6z"/>
<path d="M-625.1,159.6c0-0.9,0-1.6-0.1-2.4h1.4l0.1,1.4l0,0c0.6-1,1.7-1.7,2.9-1.6c1.2,0,3.1,0.7,3.1,3.7v5.2h-1.6v-5
	c0-1.4-0.5-2.6-2-2.6c-1.3,0-2.3,1.1-2.2,2.4v5.2h-1.6L-625.1,159.6z"/>
<path d="M-607.2,161.6c0.2,2.3-1.5,4.4-3.9,4.6c-0.2,0-0.3,0-0.5,0c-2.3,0-4.2-1.8-4.2-4.1c0-0.1,0-0.3,0-0.4c0-2.9,1.9-4.6,4.3-4.6
	c2.3,0,4.2,1.8,4.2,4C-607.2,161.3-607.2,161.4-607.2,161.6z M-614.1,161.7c0,1.9,1.1,3.3,2.6,3.3s2.6-1.4,2.6-3.4
	c0-1.5-0.7-3.3-2.6-3.3S-614.1,160-614.1,161.7z"/>
<path d="M-605.4,164.4c0.6,0.4,1.3,0.6,2.1,0.6c1.1,0,1.7-0.6,1.7-1.3s-0.5-1.2-1.6-1.6c-1.6-0.5-2.3-1.4-2.3-2.5
	c0-1.4,1.1-2.6,3-2.6c0.7,0,1.5,0.2,2.1,0.5l-0.4,1.2c-0.5-0.3-1.2-0.5-1.8-0.5c-0.9,0-1.5,0.5-1.5,1.2s0.5,1,1.7,1.5
	c1.5,0.6,2.3,1.3,2.3,2.6c0,1.5-1.2,2.6-3.3,2.6c-0.9,0-1.7-0.2-2.5-0.6L-605.4,164.4z"/>
<path d="M-589.4,166l-0.1-1.1h-0.1c-0.6,0.8-1.6,1.3-2.7,1.3c-1.4,0.1-2.6-0.9-2.7-2.3c0-0.1,0-0.1,0-0.2c0-2.1,1.9-3.3,5.2-3.2
	v-0.2c0.1-1-0.6-1.9-1.6-2c-0.1,0-0.3,0-0.4,0c-0.8,0-1.6,0.2-2.3,0.7l-0.4-1c0.9-0.5,1.9-0.8,2.9-0.8c2.7,0,3.3,1.8,3.3,3.6v3.2
	c0,0.7,0,1.4,0.1,2H-589.4z M-589.7,161.6c-1.7,0-3.7,0.3-3.7,2c-0.1,0.8,0.5,1.4,1.3,1.5c0.1,0,0.1,0,0.2,0c0.9,0,1.8-0.6,2.1-1.5
	c0.1-0.2,0.1-0.3,0.1-0.5V161.6z"/>
<path d="M-579.4,165.7c-0.8,0.3-1.6,0.5-2.5,0.5c-2.3,0.1-4.2-1.6-4.3-3.9c0-0.2,0-0.3,0-0.5c-0.1-2.4,1.8-4.5,4.2-4.6
	c0.2,0,0.3,0,0.5,0c0.8,0,1.5,0.1,2.2,0.5l-0.4,1.2c-0.6-0.3-1.2-0.4-1.8-0.4c-1.8,0.1-3.2,1.6-3.1,3.4c0.1,1.7,1.4,3,3.1,3.1
	c0.7,0,1.3-0.1,1.9-0.4L-579.4,165.7z"/>
<path d="M-572.7,166l-0.1-1.1h-0.1c-0.6,0.8-1.6,1.3-2.7,1.3c-1.4,0.1-2.6-0.9-2.7-2.3c0-0.1,0-0.1,0-0.2c0-2.1,1.9-3.3,5.2-3.2
	v-0.2c0.1-1-0.6-1.9-1.6-2c-0.1,0-0.3,0-0.4,0c-0.8,0-1.6,0.2-2.3,0.7l-0.4-1c0.9-0.5,1.9-0.8,2.9-0.8c2.7,0,3.3,1.8,3.3,3.6v3.2
	c0,0.7,0,1.4,0.1,2.1L-572.7,166z M-572.9,161.6c-1.7,0-3.7,0.3-3.7,2c-0.1,0.8,0.5,1.4,1.3,1.5c0.1,0,0.1,0,0.2,0
	c0.9,0,1.8-0.6,2.1-1.5c0.1-0.2,0.1-0.3,0.1-0.5V161.6z"/>
<path d="M-568.8,160c0-1,0-1.9-0.1-2.7h1.4l0.1,1.7h0.1c0.3-1.1,1.3-1.9,2.4-1.9c0.2,0,0.3,0,0.5,0v1.5c-0.2,0-0.4,0-0.5,0
	c-1.1,0-2,0.9-2.1,2c0,0.2-0.1,0.5-0.1,0.7v4.7h-1.6L-568.8,160z"/>
<path d="M-561.1,154.8c0,0.5-0.3,1-0.9,1c0,0-0.1,0-0.1,0c-0.5,0-1-0.4-1-0.9c0,0,0-0.1,0-0.1c0-0.6,0.4-1,1-1c0.5,0,1,0.3,1,0.9
	C-561.1,154.7-561.1,154.8-561.1,154.8z M-562.9,166v-8.7h1.6v8.7H-562.9z"/>
<path d="M-552.5,165.7c-0.8,0.3-1.6,0.5-2.5,0.5c-2.3,0.1-4.2-1.6-4.3-3.9c0-0.2,0-0.3,0-0.5c-0.1-2.4,1.8-4.5,4.2-4.6
	c0.2,0,0.3,0,0.5,0c0.8,0,1.5,0.1,2.2,0.5l-0.4,1.2c-0.6-0.3-1.2-0.4-1.8-0.4c-1.8,0.1-3.2,1.6-3.1,3.4c0.1,1.7,1.4,3,3.1,3.1
	c0.7,0,1.3-0.1,1.9-0.4L-552.5,165.7z"/>
<path d="M-548.8,154.8c0,0.6-0.4,1-1,1c-0.6,0-1-0.4-1-1s0.4-1,1-1c0.5,0,1,0.4,1,0.9C-548.8,154.7-548.8,154.8-548.8,154.8z
	 M-550.6,166v-8.7h1.6v8.7H-550.6z"/>
<path d="M-541.6,166l-0.1-1.1h-0.1c-0.6,0.8-1.6,1.3-2.7,1.3c-1.4,0.1-2.6-0.9-2.7-2.3c0-0.1,0-0.1,0-0.2c0-2.1,1.9-3.3,5.2-3.2
	v-0.2c0.1-1-0.6-1.9-1.6-2c-0.1,0-0.3,0-0.4,0c-0.8,0-1.6,0.2-2.3,0.7l-0.4-1c0.9-0.5,1.9-0.8,2.9-0.8c2.7,0,3.3,1.8,3.3,3.6v3.2
	c0,0.7,0,1.4,0.1,2.1L-541.6,166z M-541.8,161.6c-1.7,0-3.7,0.3-3.7,2c0,0.8,0.6,1.4,1.4,1.4c0,0,0.1,0,0.1,0c0.9,0,1.8-0.6,2.1-1.5
	c0.1-0.2,0.1-0.3,0.1-0.5L-541.8,161.6z"/>
<path d="M-537.7,159.6c0-0.9,0-1.6-0.1-2.4h1.4l0.1,1.4l0,0c0.6-1,1.7-1.7,2.9-1.6c1.2,0,3.1,0.7,3.1,3.7v5.2h-1.6v-5
	c0-1.4-0.5-2.6-2-2.6c-1,0-1.8,0.7-2.1,1.6c-0.1,0.2-0.1,0.5-0.1,0.7v5.3h-1.6L-537.7,159.6z"/>
<path d="M-523,161.9c-0.1,1.5,1,2.9,2.6,3c0.1,0,0.3,0,0.4,0c0.8,0,1.6-0.1,2.4-0.5l0.3,1.1c-0.9,0.4-1.9,0.6-2.9,0.5
	c-2.2,0.2-4.1-1.5-4.3-3.7c0-0.2,0-0.5,0-0.7c0-2.6,1.5-4.7,4.1-4.7c2.8,0,3.6,2.5,3.6,4.1c0,0.2,0,0.5-0.1,0.7L-523,161.9z
	 M-518.3,160.8c0.2-1.2-0.7-2.4-1.9-2.6c-0.1,0-0.2,0-0.3,0c-1.4,0.1-2.4,1.2-2.4,2.6H-518.3z"/>
<path d="M-514.9,153.2h1.6V166h-1.6V153.2z"/>
<path d="M-502,166l-0.1-1.1l0,0c-0.6,0.8-1.6,1.3-2.7,1.3c-1.4,0.1-2.6-0.9-2.7-2.3c0-0.1,0-0.1,0-0.2c0-2.1,1.9-3.3,5.2-3.2v-0.2
	c0.1-1-0.6-1.9-1.6-2c-0.1,0-0.3,0-0.4,0c-0.8,0-1.6,0.2-2.3,0.7l-0.4-1c0.9-0.5,1.9-0.8,2.9-0.8c2.7,0,3.3,1.8,3.3,3.6v3.2
	c0,0.7,0,1.4,0.2,2.1L-502,166z M-502.2,161.6c-1.7,0-3.7,0.3-3.7,2c-0.1,0.8,0.5,1.4,1.3,1.5c0.1,0,0.1,0,0.2,0
	c0.9,0,1.8-0.6,2.1-1.5c0.1-0.2,0.1-0.3,0.1-0.5V161.6z"/>
<path d="M-496.4,154.8c0,0.6-0.4,1-1,1s-1-0.4-1-1s0.4-1,1-1c0.5,0,1,0.4,1,0.9C-496.4,154.7-496.4,154.8-496.4,154.8z M-498.1,166
	v-8.7h1.6v8.7H-498.1z"/>
<path d="M-493.9,160c0-1,0-1.9-0.1-2.7h1.4l0.1,1.7h0.1c0.3-1.1,1.3-1.9,2.4-1.9c0.1,0,0.3,0,0.5,0v1.5c-0.2,0-0.4,0-0.5,0
	c-1.1,0-2,0.9-2.1,2c0,0.2-0.1,0.5-0.1,0.7v4.7h-1.6V160z"/>
<path d="M-487.3,161.9c-0.1,1.5,1,2.9,2.6,3c0.1,0,0.3,0,0.4,0c0.8,0,1.6-0.1,2.4-0.5l0.3,1.1c-0.9,0.4-1.9,0.6-2.9,0.5
	c-2.2,0.2-4.1-1.5-4.3-3.7c0-0.2,0-0.5,0-0.7c0-2.6,1.5-4.7,4.1-4.7c2.8,0,3.6,2.5,3.6,4.1c0,0.2,0,0.5,0,0.7L-487.3,161.9z
	 M-482.7,160.8c0.2-1.2-0.7-2.4-1.9-2.6c-0.1,0-0.2,0-0.3,0c-1.4,0.1-2.4,1.2-2.4,2.6H-482.7z"/>
<path d="M-474.8,165.1c0-0.6,0.4-1.1,1-1.1c0,0,0.1,0,0.1,0c0.6,0,1.2,0.4,1.2,1.1c0,0.6-0.4,1.2-1.1,1.2
	C-474.2,166.2-474.7,165.8-474.8,165.1C-474.8,165.1-474.8,165.1-474.8,165.1z M-468.8,165.1c0-0.6,0.5-1.1,1.1-1s1.1,0.5,1,1.1
	c0,0.6-0.5,1-1.1,1C-468.3,166.2-468.8,165.7-468.8,165.1C-468.8,165.1-468.8,165.1-468.8,165.1L-468.8,165.1z M-462.8,165.1
	c0-0.6,0.4-1.1,1-1.1c0,0,0.1,0,0.1,0c0.6,0,1.2,0.4,1.2,1.1c0,0.6-0.4,1.2-1.1,1.2C-462.2,166.2-462.7,165.7-462.8,165.1
	C-462.8,165.1-462.8,165.1-462.8,165.1z"/>
<path d="M-449.9,153.2v10.5c0,0.8,0,1.7,0.1,2.2h-1.4l-0.1-1.5l0,0c-0.6,1.1-1.8,1.8-3,1.7c-2.1,0-3.7-1.8-3.7-4.4
	c0-2.9,1.8-4.7,3.9-4.7c1-0.1,2.1,0.4,2.6,1.3l0,0v-5.2L-449.9,153.2z M-451.5,160.8c0-0.2,0-0.4-0.1-0.7c-0.2-1.1-1.2-1.8-2.3-1.8
	c-1.6,0-2.6,1.4-2.6,3.4c0,1.8,0.9,3.2,2.6,3.2c1.1,0,2.1-0.8,2.3-1.9c0.1-0.2,0.1-0.5,0.1-0.7L-451.5,160.8z"/>
<path d="M-445.5,154.8c0,0.5-0.3,1-0.9,1c0,0-0.1,0-0.1,0c-0.5,0-1-0.4-1-0.9c0,0,0-0.1,0-0.1c0-0.6,0.4-1,1-1c0.5,0,1,0.3,1,0.9
	C-445.5,154.7-445.5,154.8-445.5,154.8z M-447.2,166v-8.7h1.6v8.7H-447.2z"/>
<path d="M-443.2,164.4c0.6,0.4,1.3,0.6,2.1,0.6c1.2,0,1.7-0.6,1.7-1.3s-0.5-1.2-1.6-1.6c-1.6-0.5-2.3-1.4-2.3-2.5
	c0-1.4,1.1-2.6,3-2.6c0.7,0,1.5,0.2,2.1,0.5l-0.4,1.2c-0.5-0.3-1.2-0.5-1.8-0.5c-0.9,0-1.5,0.5-1.5,1.2s0.5,1,1.7,1.5
	c1.5,0.6,2.3,1.3,2.3,2.6c0,1.5-1.2,2.6-3.3,2.6c-0.9,0-1.7-0.2-2.5-0.6L-443.2,164.4z"/>
<path d="M-435.7,166v-7.5h-1.3v-1.2h1.2v-0.4c-0.1-1.1,0.3-2.2,1-3c0.6-0.5,1.3-0.8,2.1-0.8c0.5,0,0.9,0.1,1.3,0.2l-0.2,1.2
	c-0.3-0.1-0.7-0.2-1-0.2c-1.3,0-1.7,1.2-1.7,2.5v0.5h2.1v1.2h-2.1v7.5H-435.7z"/>
<path d="M-430.6,160c0-1,0-1.9-0.1-2.7h1.4l0,1.7h0.1c0.3-1.1,1.3-1.9,2.4-1.9c0.1,0,0.3,0,0.5,0v1.5c-1.2-0.3-2.4,0.5-2.6,1.7
	c0,0.1,0,0.2,0,0.3c0,0.2-0.1,0.5-0.1,0.7v4.7h-1.6V160z"/>
<path d="M-417.5,163.6c0,0.9,0,1.7,0.1,2.4h-1.4l-0.1-1.4l0,0c-0.6,1-1.7,1.6-2.9,1.6c-1.4,0-3-0.8-3-3.8v-5.1h1.6v4.8
	c0,1.7,0.5,2.8,2,2.8c0.9,0,1.7-0.6,2.1-1.4c0.1-0.3,0.1-0.5,0.1-0.8v-5.3h1.6L-417.5,163.6z"/>
<path d="M-412.9,154.8v2.5h2.3v1.2h-2.3v4.7c0,1.1,0.3,1.7,1.2,1.7c0.3,0,0.6,0,0.9-0.1l0.1,1.2c-0.5,0.2-0.9,0.2-1.4,0.2
	c-0.6,0-1.3-0.2-1.7-0.7c-0.5-0.7-0.7-1.5-0.6-2.3v-4.8h-1.3v-1.2h1.3v-2.1L-412.9,154.8z"/>
<path d="M-401.1,161.6c0.2,2.3-1.5,4.4-3.9,4.6c-0.2,0-0.3,0-0.5,0c-2.3,0-4.2-1.8-4.2-4.1c0-0.1,0-0.3,0-0.4c0-2.9,1.9-4.6,4.3-4.6
	c2.3,0,4.2,1.8,4.2,4C-401.1,161.3-401.1,161.4-401.1,161.6z M-408,161.7c0,1.9,1.1,3.3,2.7,3.3s2.7-1.4,2.7-3.4
	c0-1.5-0.7-3.3-2.6-3.3S-408,160-408,161.7L-408,161.7z"/>
<path d="M-678.5,175.6c0.9-0.2,1.9-0.3,2.9-0.2c1.2-0.1,2.4,0.2,3.3,0.9c0.7,0.5,1,1.3,1,2.1c0,1.2-0.9,2.3-2.1,2.7l0,0
	c1.4,0.3,2.5,1.5,2.5,3c0,0.9-0.3,1.8-1,2.4c-0.8,0.8-2.2,1.1-4.2,1.1c-0.8,0-1.6,0-2.4-0.1L-678.5,175.6z M-677,180.6h1.4
	c1.7,0,2.6-0.9,2.6-2c0-1.4-1.1-2-2.7-2c-0.5,0-0.9,0-1.4,0.1V180.6z M-677,186.4c0.4,0.1,0.9,0.1,1.3,0.1c1.6,0,3.1-0.6,3.1-2.4
	s-1.4-2.3-3.1-2.3h-1.3L-677,186.4z"/>
<path d="M-668.8,181.6c0-1,0-1.9-0.1-2.7h1.4v1.7h0.1c0.3-1.1,1.3-1.9,2.4-1.9c0.2,0,0.3,0,0.5,0v1.5c-0.2,0-0.4-0.1-0.5-0.1
	c-1.1,0-2,0.9-2.1,2c0,0.2-0.1,0.5-0.1,0.7v4.6h-1.6L-668.8,181.6z"/>
<path d="M-658.2,187.6l-0.1-1.1h-0.1c-0.6,0.8-1.6,1.3-2.7,1.3c-1.4,0.1-2.6-0.9-2.7-2.3c0-0.1,0-0.1,0-0.2c0-2.1,1.9-3.3,5.2-3.2
	v-0.2c0.1-1-0.6-1.9-1.6-2c-0.1,0-0.3,0-0.4,0c-0.8,0-1.6,0.2-2.3,0.7l-0.4-1c0.9-0.5,1.9-0.8,2.9-0.8c2.7,0,3.3,1.8,3.3,3.6v3.2
	c0,0.7,0,1.4,0.1,2.1L-658.2,187.6z M-658.4,183.2c-1.7,0-3.7,0.3-3.7,2c-0.1,0.8,0.5,1.5,1.3,1.5c0.1,0,0.1,0,0.2,0
	c0.9,0,1.8-0.6,2.1-1.5c0.1-0.2,0.1-0.3,0.1-0.5V183.2z"/>
<path d="M-655.3,186.7l3.9-5.1l1.1-1.3l0,0h-4.7v-1.3h6.6v1l-3.9,5.1c-0.4,0.5-0.7,0.9-1.1,1.4l0,0h5.1v1.3h-7.1L-655.3,186.7z"/>
<path d="M-638.9,183.2c0.2,2.3-1.5,4.4-3.9,4.6c-0.2,0-0.3,0-0.5,0c-2.3,0-4.2-1.8-4.2-4.1c0-0.1,0-0.3,0-0.4c0-2.9,1.9-4.6,4.3-4.6
	C-640.7,178.7-638.9,180.5-638.9,183.2z M-645.8,183.2c0,1.9,1.1,3.3,2.6,3.3s2.6-1.4,2.6-3.4c0-1.5-0.7-3.3-2.6-3.3
	S-645.8,181.6-645.8,183.2z"/>
<path d="M-637.1,186c0.6,0.4,1.3,0.6,2.1,0.6c1.2,0,1.7-0.6,1.7-1.3s-0.5-1.2-1.6-1.6c-1.6-0.5-2.3-1.4-2.3-2.5c0-1.4,1.1-2.6,3-2.6
	c0.8,0,1.5,0.2,2.2,0.5l-0.4,1.2c-0.5-0.3-1.2-0.5-1.8-0.5c-0.9,0-1.5,0.5-1.5,1.2s0.5,1,1.7,1.5c1.5,0.6,2.3,1.3,2.3,2.6
	c0,1.5-1.2,2.6-3.3,2.6c-0.9,0-1.7-0.2-2.5-0.6L-637.1,186z"/>
<path d="M-627,189.8c0.5-1.4,0.9-2.8,1.1-4.3l1.8-0.2c-0.4,1.5-1,3-1.7,4.4L-627,189.8z"/>
<path d="M-622.2,174.8h1.6v5.4l0,0c0.3-0.5,0.7-0.9,1.1-1.1c0.5-0.3,1.1-0.4,1.6-0.5c1.2,0,3,0.7,3,3.7v5.2h-1.5v-5
	c0-1.4-0.5-2.6-2-2.6c-1,0-1.8,0.7-2.1,1.6c-0.1,0.2-0.1,0.5-0.1,0.8v5.3h-1.6L-622.2,174.8z"/>
<path d="M-604.4,183.2c0.2,2.3-1.5,4.4-3.9,4.6c-0.2,0-0.3,0-0.5,0c-2.3,0-4.2-1.8-4.2-4.1c0-0.1,0-0.3,0-0.4c0-2.9,1.9-4.6,4.3-4.6
	S-604.4,180.5-604.4,183.2z M-611.3,183.2c0,1.9,1.1,3.3,2.7,3.3s2.6-1.4,2.6-3.4c0-1.5-0.7-3.3-2.6-3.3S-611.3,181.6-611.3,183.2z"
	/>
<path d="M-602.4,181.2c0-0.9,0-1.6-0.1-2.4h1.4l0.1,1.4h0.1c0.5-1,1.6-1.6,2.7-1.6c1.1,0,2.1,0.7,2.5,1.8l0,0c0.2-0.4,0.6-0.8,1-1.1
	c0.6-0.4,1.2-0.6,1.9-0.6c1.1,0,2.9,0.8,2.9,3.8v5.1h-1.6v-4.9c0-1.7-0.6-2.7-1.9-2.7c-0.9,0-1.6,0.6-1.9,1.4
	c-0.1,0.3-0.1,0.5-0.1,0.8v5.4h-1.5v-5.2c0-1.4-0.6-2.4-1.8-2.4c-1.2,0.1-2.1,1.1-2.1,2.3v5.3h-1.5L-602.4,181.2z"/>
<path d="M-587.4,187.6c0-0.6,0.1-1.5,0.1-2.2v-10.5h1.6v5.5l0,0c0.6-1.1,1.8-1.7,3-1.6c2.2,0,3.7,1.8,3.7,4.5c0,3.1-2,4.7-3.9,4.7
	c-1.2,0.1-2.3-0.6-2.9-1.6h-0.1l-0.1,1.4L-587.4,187.6z M-585.8,184.1c0,0.2,0,0.4,0.1,0.6c0.3,1.1,1.3,1.9,2.4,1.8
	c1.6,0,2.6-1.3,2.6-3.3c0-1.8-0.9-3.2-2.6-3.2c-1.2,0-2.1,0.8-2.4,1.9c-0.1,0.2-0.1,0.4-0.1,0.7L-585.8,184.1z"/>
<path d="M-577.1,181.6c0-1,0-1.9-0.1-2.7h1.4l0,1.7h0.1c0.3-1.1,1.3-1.9,2.4-1.9c0.2,0,0.3,0,0.5,0v1.5c-1.2-0.3-2.3,0.4-2.6,1.6
	c0,0.1,0,0.3-0.1,0.4c0,0.2-0.1,0.5-0.1,0.7v4.6h-1.6V181.6z"/>
<path d="M-563.5,183.2c0.2,2.3-1.5,4.4-3.9,4.6c-0.2,0-0.3,0-0.5,0c-2.3,0-4.2-1.8-4.2-4.1c0-0.1,0-0.3,0-0.4c0-2.9,1.9-4.6,4.3-4.6
	S-563.5,180.5-563.5,183.2z M-570.4,183.2c0,1.9,1.1,3.3,2.6,3.3c1.6,0,2.6-1.4,2.6-3.4c0-1.5-0.7-3.3-2.6-3.3
	C-569.6,179.9-570.4,181.6-570.4,183.2z"/>
<path d="M-561.7,186c0.6,0.4,1.3,0.6,2.1,0.6c1.2,0,1.7-0.6,1.7-1.3s-0.5-1.2-1.6-1.6c-1.6-0.5-2.3-1.4-2.3-2.5c0-1.4,1.1-2.6,3-2.6
	c0.7,0,1.5,0.2,2.1,0.5l-0.4,1.2c-0.5-0.3-1.2-0.5-1.8-0.5c-0.9,0-1.5,0.5-1.5,1.2s0.5,1,1.7,1.5c1.5,0.6,2.3,1.3,2.3,2.6
	c0,1.5-1.2,2.6-3.3,2.6c-0.9,0-1.7-0.2-2.5-0.6L-561.7,186z"/>
<path d="M-555.6,189.8c0.5-1.4,0.9-2.8,1.1-4.3l1.8-0.2c-0.4,1.5-1,3-1.7,4.4L-555.6,189.8z"/>
<path d="M-540.8,187.3c-0.8,0.3-1.6,0.5-2.5,0.5c-2.3,0.1-4.2-1.6-4.3-3.9c0-0.2,0-0.3,0-0.5c-0.1-2.4,1.8-4.5,4.2-4.6
	c0.2,0,0.3,0,0.5,0c0.8,0,1.5,0.1,2.2,0.5l-0.4,1.2c-0.6-0.3-1.2-0.4-1.8-0.4c-1.8,0.1-3.2,1.6-3.1,3.4c0.1,1.7,1.4,3,3.1,3.1
	c0.7,0,1.3-0.1,1.9-0.4L-540.8,187.3z"/>
<path d="M-531.7,185.2c0,0.9,0,1.7,0.1,2.4h-1.4l-0.1-1.4l0,0c-0.6,1-1.7,1.6-2.9,1.6c-1.4,0-3-0.8-3-3.8v-5.1h1.6v4.8
	c0,1.7,0.5,2.8,1.9,2.8c0.9,0,1.7-0.6,2.1-1.4c0.1-0.3,0.1-0.5,0.1-0.8v-5.3h1.6L-531.7,185.2z"/>
<path d="M-528.2,183.5c-0.1,1.5,1,2.9,2.5,3c0.2,0,0.3,0,0.5,0c0.8,0,1.7-0.1,2.4-0.5l0.3,1.1c-0.9,0.4-1.9,0.6-2.9,0.5
	c-2.2,0.2-4.1-1.5-4.3-3.7c0-0.2,0-0.5,0-0.7c0-2.6,1.5-4.7,4.1-4.7c2.8,0,3.6,2.5,3.6,4.1c0,0.2,0,0.5,0,0.7L-528.2,183.5z
	 M-523.5,182.4c0.2-1.2-0.7-2.4-1.9-2.6c-0.1,0-0.2,0-0.3,0c-1.4,0.1-2.4,1.2-2.4,2.6H-523.5z"/>
<path d="M-520,174.8h1.6v12.8h-1.6V174.8z"/>
<path d="M-515.8,174.8h1.6v12.8h-1.6V174.8z"/>
<path d="M-503.7,183.2c0.2,2.3-1.5,4.4-3.9,4.6c-0.2,0-0.3,0-0.5,0c-2.3,0-4.2-1.8-4.2-4.1c0-0.1,0-0.3,0-0.4c0-2.9,1.9-4.6,4.3-4.6
	S-503.7,180.5-503.7,183.2z M-510.6,183.2c0,1.9,1.1,3.3,2.6,3.3s2.6-1.4,2.6-3.4c0-1.5-0.7-3.3-2.6-3.3S-510.6,181.6-510.6,183.2z"
	/>
<path d="M-503.1,189.8c0.5-1.4,0.9-2.8,1.1-4.3l1.8-0.2c-0.4,1.5-1,3-1.8,4.4L-503.1,189.8z"/>
<path d="M-494.6,181.7c0-1.1,0-2-0.1-2.8h1.4l0.1,1.5l0,0c0.6-1.1,1.8-1.7,3.1-1.7c2.1,0,3.7,1.8,3.7,4.4c0,3.1-1.9,4.7-4,4.7
	c-1.1,0.1-2.1-0.5-2.7-1.4l0,0v4.7h-1.6L-494.6,181.7z M-493,184c0,0.2,0,0.4,0.1,0.6c0.3,1.1,1.2,1.9,2.4,1.9
	c1.7,0,2.7-1.4,2.7-3.4c0-1.8-0.9-3.2-2.6-3.2c-1.2,0-2.2,0.9-2.4,2c-0.1,0.2-0.1,0.4-0.1,0.7V184z"/>
<path d="M-482.5,176.4c0,0.6-0.4,1-1,1s-1-0.4-1-1s0.4-1,1-1c0.5,0,1,0.4,1,0.9C-482.5,176.3-482.5,176.4-482.5,176.4z
	 M-484.3,187.6v-8.7h1.6v8.7H-484.3z"/>
<path d="M-479.2,183.5c-0.1,1.5,1,2.9,2.5,3c0.2,0,0.3,0,0.5,0c0.8,0,1.7-0.1,2.4-0.5l0.3,1.1c-0.9,0.4-1.9,0.6-2.9,0.5
	c-2.2,0.2-4.1-1.5-4.3-3.7c0-0.2,0-0.5,0-0.7c0-2.6,1.5-4.7,4.1-4.7c2.8,0,3.6,2.5,3.6,4.1c0,0.2,0,0.5,0,0.7L-479.2,183.5z
	 M-474.6,182.4c0.2-1.2-0.7-2.4-1.9-2.6c-0.1,0-0.2,0-0.3,0c-1.4,0.1-2.4,1.2-2.4,2.6H-474.6z"/>
<path d="M-471.1,181.6c0-1,0-1.9-0.1-2.7h1.4v1.7h0.1c0.3-1.1,1.3-1.9,2.4-1.9c0.2,0,0.3,0,0.5,0v1.5c-0.2,0-0.4-0.1-0.5-0.1
	c-1.1,0-2,0.9-2.1,2c0,0.2-0.1,0.5-0.1,0.7v4.6h-1.6L-471.1,181.6z"/>
<path d="M-465.1,181.2c0-0.9,0-1.6-0.1-2.4h1.4l0.1,1.4l0,0c0.6-1,1.7-1.7,2.9-1.6c1.2,0,3.1,0.7,3.1,3.7v5.2h-1.6v-5
	c0-1.4-0.5-2.6-2-2.6c-1.3,0.1-2.3,1.1-2.2,2.4v5.2h-1.6L-465.1,181.2z"/>
<path d="M-450.3,187.6l-0.1-1.1h-0.1c-0.6,0.8-1.6,1.3-2.7,1.3c-1.4,0.1-2.6-0.9-2.7-2.3c0-0.1,0-0.1,0-0.2c0-2.1,1.9-3.3,5.2-3.2
	v-0.2c0.1-1-0.6-1.9-1.6-2c-0.1,0-0.3,0-0.4,0c-0.8,0-1.6,0.2-2.3,0.7l-0.4-1c0.9-0.5,1.9-0.8,2.9-0.8c2.7,0,3.3,1.8,3.3,3.6v3.2
	c0,0.7,0,1.4,0.1,2.1L-450.3,187.6z M-450.5,183.2c-1.7,0-3.7,0.3-3.7,2c-0.1,0.8,0.5,1.4,1.3,1.5c0.1,0,0.1,0,0.2,0
	c0.9,0,1.8-0.6,2.1-1.5c0.1-0.2,0.1-0.3,0.1-0.5V183.2z"/>
<path d="M-446.7,186c0.6,0.4,1.3,0.6,2.1,0.6c1.2,0,1.7-0.6,1.7-1.3s-0.5-1.2-1.6-1.6c-1.6-0.5-2.3-1.4-2.3-2.5c0-1.4,1.1-2.6,3-2.6
	c0.7,0,1.5,0.2,2.1,0.5l-0.4,1.2c-0.5-0.3-1.2-0.5-1.8-0.5c-0.9,0-1.5,0.5-1.5,1.2s0.5,1,1.7,1.5c1.5,0.6,2.3,1.3,2.3,2.6
	c0,1.5-1.2,2.6-3.3,2.6c-0.9,0-1.7-0.2-2.5-0.6L-446.7,186z"/>
<path d="M-440.6,189.8c0.5-1.4,0.8-2.8,1.1-4.3l1.8-0.2c-0.4,1.5-1,3-1.7,4.4L-440.6,189.8z"/>
<path d="M-432,181.7c0-1.1,0-2-0.1-2.8h1.4l0.1,1.5l0,0c0.6-1.1,1.8-1.7,3.1-1.7c2.1,0,3.7,1.8,3.7,4.4c0,3.1-1.9,4.7-4,4.7
	c-1.1,0.1-2.1-0.5-2.7-1.4l0,0v4.7h-1.5V181.7z M-430.4,184c0,0.2,0,0.4,0.1,0.6c0.3,1.1,1.3,1.9,2.4,1.9c1.7,0,2.7-1.4,2.7-3.4
	c0-1.8-0.9-3.2-2.6-3.2c-1.2,0-2.2,0.9-2.4,2c-0.1,0.2-0.1,0.4-0.1,0.7V184z"/>
<path d="M-420,176.4c0,0.6-0.4,1-1,1s-1-0.4-1-1s0.4-1,1-1c0.5,0,1,0.4,1,0.9C-420,176.3-420,176.4-420,176.4z M-421.8,187.6v-8.7
	h1.6v8.7H-421.8z"/>
<path d="M-416.7,183.5c-0.1,1.5,1,2.9,2.6,3c0.1,0,0.3,0,0.4,0c0.8,0,1.6-0.1,2.4-0.5l0.3,1.1c-0.9,0.4-1.9,0.6-2.9,0.5
	c-2.2,0.2-4.1-1.5-4.3-3.7c0-0.2,0-0.5,0-0.7c0-2.6,1.5-4.7,4.1-4.7c2.8,0,3.6,2.5,3.6,4.1c0,0.2,0,0.5-0.1,0.7L-416.7,183.5z
	 M-412,182.4c0.2-1.2-0.7-2.4-1.9-2.6c-0.1,0-0.2,0-0.3,0c-1.4,0.1-2.4,1.2-2.4,2.6H-412z"/>
<path d="M-408.7,186c0.6,0.4,1.3,0.6,2.1,0.6c1.2,0,1.7-0.6,1.7-1.3s-0.5-1.2-1.6-1.6c-1.6-0.5-2.3-1.4-2.3-2.5c0-1.4,1.1-2.6,3-2.6
	c0.8,0,1.5,0.2,2.2,0.5l-0.4,1.2c-0.5-0.3-1.2-0.5-1.8-0.5c-0.9,0-1.5,0.5-1.5,1.2s0.5,1,1.7,1.5c1.5,0.6,2.3,1.3,2.3,2.6
	c0,1.5-1.2,2.6-3.3,2.6c-0.9,0-1.7-0.2-2.4-0.6L-408.7,186z"/>
<path d="M-402.6,189.8c0.5-1.4,0.8-2.8,1.1-4.3l1.8-0.2c-0.4,1.5-1,3-1.7,4.4L-402.6,189.8z"/>
<path d="M-387.8,187.3c-0.8,0.3-1.6,0.5-2.5,0.5c-2.3,0.1-4.2-1.6-4.3-3.9c0-0.2,0-0.3,0-0.5c-0.1-2.4,1.8-4.5,4.2-4.6
	c0.2,0,0.3,0,0.5,0c0.8,0,1.5,0.1,2.2,0.5l-0.4,1.2c-0.6-0.3-1.2-0.4-1.8-0.4c-1.8,0.1-3.2,1.6-3.1,3.5c0.1,1.7,1.4,3,3.1,3.1
	c0.7,0,1.3-0.1,1.9-0.4L-387.8,187.3z"/>
<path d="M-381.2,187.6l-0.1-1.1h0c-0.6,0.8-1.6,1.3-2.7,1.3c-1.4,0.1-2.6-0.9-2.7-2.3c0-0.1,0-0.1,0-0.2c0-2.1,1.9-3.3,5.2-3.2v-0.2
	c0.1-1-0.6-1.9-1.6-2c-0.1,0-0.3,0-0.4,0c-0.8,0-1.6,0.2-2.3,0.7l-0.4-1c0.9-0.5,1.9-0.8,2.9-0.8c2.7,0,3.3,1.8,3.3,3.6v3.2
	c0,0.7,0,1.4,0.2,2.1L-381.2,187.6z M-381.4,183.2c-1.7,0-3.7,0.3-3.7,2c-0.1,0.8,0.5,1.5,1.3,1.5c0.1,0,0.1,0,0.2,0
	c0.9,0,1.8-0.6,2.1-1.5c0.1-0.2,0.1-0.3,0.1-0.5V183.2z"/>
<path d="M-369.8,174.8v10.5c0,0.8,0,1.7,0.1,2.2h-1.4l-0.1-1.5l0,0c-0.6,1.1-1.8,1.8-3,1.7c-2.1,0-3.7-1.8-3.7-4.4
	c0-2.9,1.8-4.7,3.9-4.7c1-0.1,2.1,0.4,2.6,1.3l0,0v-5.2L-369.8,174.8z M-371.4,182.4c0-0.2,0-0.4-0.1-0.7c-0.2-1.1-1.2-1.8-2.3-1.8
	c-1.6,0-2.6,1.4-2.6,3.4c0,1.8,0.9,3.2,2.6,3.2c1.1,0,2.1-0.8,2.3-1.9c0.1-0.2,0.1-0.5,0.1-0.7L-371.4,182.4z"/>
<path d="M-366.3,183.5c-0.1,1.5,1,2.9,2.6,3c0.1,0,0.3,0,0.4,0c0.8,0,1.6-0.1,2.4-0.5l0.3,1.1c-0.9,0.4-1.9,0.6-2.9,0.5
	c-2.2,0.2-4.1-1.5-4.3-3.7c0-0.2,0-0.5,0-0.7c0-2.6,1.5-4.7,4.1-4.7c2.8,0,3.6,2.5,3.6,4.1c0,0.2,0,0.5-0.1,0.7L-366.3,183.5z
	 M-361.6,182.4c0.2-1.2-0.7-2.4-1.9-2.6c-0.1,0-0.2,0-0.3,0c-1.4,0.1-2.4,1.2-2.4,2.6H-361.6z"/>
<path d="M-358.1,181.6c0-1,0-1.9-0.1-2.7h1.4l0.1,1.7h0.1c0.3-1.1,1.3-1.9,2.4-1.9c0.2,0,0.3,0,0.5,0v1.5c-0.2,0-0.4-0.1-0.5-0.1
	c-1.1,0-2,0.9-2.1,2c0,0.2-0.1,0.5-0.1,0.7v4.6h-1.6V181.6z"/>
<path d="M-347.5,187.6l-0.1-1.1h0c-0.6,0.8-1.6,1.3-2.7,1.3c-1.4,0.1-2.6-0.9-2.7-2.3c0-0.1,0-0.1,0-0.2c0-2.1,1.9-3.3,5.2-3.2v-0.2
	c0.1-1-0.6-1.9-1.6-2c-0.1,0-0.3,0-0.4,0c-0.8,0-1.6,0.2-2.3,0.7l-0.4-1c0.9-0.5,1.9-0.8,2.9-0.8c2.7,0,3.3,1.8,3.3,3.6v3.2
	c0,0.7,0,1.4,0.1,2.1L-347.5,187.6z M-347.8,183.2c-1.7,0-3.7,0.3-3.7,2c-0.1,0.8,0.5,1.4,1.3,1.5c0.1,0,0.1,0,0.2,0
	c0.9,0,1.8-0.6,2.1-1.5c0.1-0.2,0.1-0.3,0.1-0.5V183.2z"/>
<path d="M-343.9,186c0.6,0.4,1.3,0.6,2.1,0.6c1.2,0,1.7-0.6,1.7-1.3s-0.5-1.2-1.6-1.6c-1.6-0.5-2.3-1.4-2.3-2.5c0-1.4,1.1-2.6,3-2.6
	c0.7,0,1.5,0.2,2.1,0.5l-0.4,1.2c-0.5-0.3-1.2-0.5-1.8-0.5c-0.9,0-1.5,0.5-1.5,1.2s0.5,1,1.7,1.5c1.5,0.6,2.3,1.3,2.3,2.6
	c0,1.5-1.2,2.6-3.3,2.6c-0.9,0-1.7-0.2-2.5-0.6L-343.9,186z"/>
<path d="M-337.8,189.8c0.5-1.4,0.9-2.8,1.1-4.3l1.8-0.2c-0.4,1.5-1,3-1.7,4.4L-337.8,189.8z"/>
<path d="M-329.2,181.2c0-0.9,0-1.6-0.1-2.4h1.4l0.1,1.4l0,0c0.5-1,1.6-1.6,2.7-1.6c1.1,0,2.1,0.7,2.5,1.8l0,0c0.2-0.4,0.6-0.8,1-1.1
	c0.6-0.4,1.2-0.6,1.9-0.6c1.2,0,2.9,0.8,2.9,3.8v5.1h-1.5v-4.9c0-1.7-0.6-2.7-1.9-2.7c-0.9,0-1.6,0.6-1.9,1.4
	c-0.1,0.3-0.1,0.5-0.1,0.8v5.4h-1.5v-5.2c0-1.4-0.6-2.4-1.8-2.4c-0.9,0-1.7,0.7-2,1.6c-0.1,0.2-0.1,0.5-0.1,0.8v5.3h-1.5V181.2z"/>
<path d="M-309.4,187.6l-0.1-1.1l0,0c-0.6,0.8-1.6,1.3-2.7,1.3c-1.4,0.1-2.6-0.9-2.7-2.3c0-0.1,0-0.1,0-0.2c0-2.1,1.9-3.3,5.2-3.2
	v-0.2c0.1-1-0.6-1.9-1.6-2c-0.1,0-0.3,0-0.4,0c-0.8,0-1.6,0.2-2.3,0.7l-0.4-1c0.9-0.5,1.9-0.8,2.9-0.8c2.7,0,3.3,1.8,3.3,3.6v3.2
	c0,0.7,0,1.4,0.1,2.1L-309.4,187.6z M-309.6,183.2c-1.7,0-3.7,0.3-3.7,2c-0.1,0.8,0.5,1.5,1.3,1.5c0.1,0,0.1,0,0.2,0
	c0.9,0,1.8-0.6,2.1-1.5c0.1-0.2,0.1-0.3,0.1-0.5V183.2z"/>
<path d="M-305.5,181.2c0-0.9,0-1.6-0.1-2.4h1.4l0.1,1.4l0,0c0.6-1,1.7-1.7,2.9-1.6c1.2,0,3.1,0.7,3.1,3.7v5.2h-1.6v-5
	c0-1.4-0.5-2.6-2-2.6c-1.3,0.1-2.3,1.1-2.2,2.4v5.2h-1.6L-305.5,181.2z"/>
<path d="M-287.6,183.2c0.2,2.3-1.5,4.4-3.9,4.6c-0.2,0-0.3,0-0.5,0c-2.3,0-4.2-1.8-4.2-4.1c0-0.1,0-0.3,0-0.4c0-2.9,1.9-4.6,4.3-4.6
	c2.3,0,4.2,1.8,4.2,4C-287.6,182.9-287.6,183-287.6,183.2z M-294.5,183.2c0,1.9,1.1,3.3,2.7,3.3s2.7-1.4,2.7-3.4
	c0-1.5-0.7-3.3-2.6-3.3S-294.5,181.6-294.5,183.2z"/>
<path d="M-285.8,186c0.6,0.4,1.3,0.6,2.1,0.6c1.2,0,1.7-0.6,1.7-1.3s-0.5-1.2-1.6-1.6c-1.6-0.5-2.3-1.4-2.3-2.5c0-1.4,1.1-2.6,3-2.6
	c0.7,0,1.5,0.2,2.1,0.5l-0.4,1.2c-0.5-0.3-1.2-0.5-1.8-0.5c-0.9,0-1.5,0.5-1.5,1.2s0.5,1,1.7,1.5c1.5,0.6,2.3,1.3,2.3,2.6
	c0,1.5-1.2,2.6-3.3,2.6c-0.9,0-1.7-0.2-2.5-0.6L-285.8,186z"/>
<path d="M-278.1,186.7c0-0.6,0.5-1,1.1-1c0.6,0,1,0.5,1,1.1c0,0.6-0.5,1-1.1,1C-277.6,187.8-278.1,187.3-278.1,186.7
	C-278.1,186.7-278.1,186.7-278.1,186.7z M-272.1,186.7c0-0.6,0.5-1,1.1-1c0.6,0,1,0.5,1,1.1c0,0.6-0.5,1-1.1,1c-0.6,0-1-0.4-1.1-0.9
	C-272.1,186.8-272.1,186.7-272.1,186.7z M-266.1,186.7c0-0.6,0.5-1.1,1.1-1s1.1,0.5,1,1.1c0,0.6-0.5,1-1.1,1
	C-265.6,187.8-266.1,187.3-266.1,186.7C-266.1,186.7-266.1,186.7-266.1,186.7L-266.1,186.7z"/>
<path d="M-642.7,248.8c0.1,6.1,4,8.6,8.5,8.6c2.3,0.1,4.7-0.4,6.8-1.3l0.8,3.2c-2.6,1.1-5.4,1.6-8.2,1.5c-7.6,0-12.1-5-12.1-12.4
	s4.4-13.3,11.6-13.3c8.1,0,10.2,7.1,10.2,11.6c0,0.7-0.1,1.4-0.2,2.1L-642.7,248.8z M-629.5,245.6c0-2.8-1.2-7.3-6.2-7.3
	c-4.5,0-6.5,4.2-6.9,7.3H-629.5z"/>
<path d="M-619.7,242.3c0-2.5,0-4.6-0.2-6.7h4l0.2,4.1h0.1c1.6-2.9,4.8-4.7,8.2-4.6c3.4,0,8.7,2,8.7,10.5v14.7h-4.5v-14.2
	c0-4-1.5-7.3-5.7-7.3c-2.8,0.1-5.2,1.9-6,4.6c-0.2,0.7-0.3,1.4-0.3,2.1v14.8h-4.5L-619.7,242.3z"/>
<path class="st0" d="M-551.5,245.2c-0.3-4.8-0.6-10.5-0.5-14.8h-0.1c-1.2,4-2.6,8.3-4.3,13l-6.1,16.7h-3.4l-5.6-16.3
	c-1.6-4.8-3-9.3-4-13.3h-0.1c-0.1,4.3-0.4,10-0.7,15.2l-0.9,14.7h-4.2l2.4-34.3h5.7l5.9,16.6c1.4,4.2,2.6,8,3.5,11.6h0.2
	c0.9-3.5,2.1-7.2,3.6-11.6l6.1-16.6h5.7l2.1,34.3h-4.3L-551.5,245.2z"/>
<path class="st0" d="M-517.1,247.8c0,9.1-6.3,13.1-12.3,13.1c-6.7,0-11.8-4.9-11.8-12.7c0-8.2,5.4-13.1,12.2-13.1
	C-521.8,235.1-517.1,240.2-517.1,247.8z M-536.6,248c0,5.4,3.1,9.5,7.5,9.5s7.5-4,7.5-9.6c0-4.2-2.1-9.5-7.4-9.5
	C-534.3,238.5-536.6,243.3-536.6,248L-536.6,248z"/>
<path class="st0" d="M-510,235.7l4.8,13.8c0.8,2.1,1.4,4.2,2,6.3h0.2c0.6-2,1.3-4.1,2.1-6.3l4.8-13.8h4.7l-9.7,24.7h-4.3l-9.4-24.7
	H-510z"/>
<path class="st0" d="M-482.3,228.7c0.1,1.5-1.1,2.7-2.5,2.8c-0.1,0-0.2,0-0.3,0c-1.5,0-2.7-1.1-2.7-2.6c0,0,0-0.1,0-0.1
	c0-1.5,1.2-2.8,2.7-2.8c0,0,0.1,0,0.1,0c1.5-0.1,2.7,1.1,2.8,2.5C-482.3,228.5-482.3,228.6-482.3,228.7z M-487.3,260.3v-24.6h4.5
	v24.6H-487.3z"/>
<path class="st0" d="M-475.3,242.3c0-2.5,0-4.6-0.2-6.7h3.9l0.2,4h0.2c1.5-2.9,4.5-4.6,7.8-4.5c3.2,0,6,1.9,7,4.9h0.1
	c0.7-1.3,1.6-2.3,2.8-3.2c1.6-1.2,3.5-1.8,5.5-1.7c3.3,0,8.1,2.1,8.1,10.7v14.5h-4.4v-14c0-4.7-1.7-7.6-5.3-7.6
	c-2.5,0.1-4.6,1.7-5.3,4.1c-0.2,0.7-0.4,1.5-0.4,2.2v15.2h-4.4v-14.8c0-3.9-1.7-6.8-5.1-6.8c-2.6,0.1-4.9,2-5.5,4.5
	c-0.3,0.7-0.4,1.4-0.4,2.2v14.9h-4.4L-475.3,242.3z"/>
<path class="st0" d="M-427.9,228.7c-0.1,1.5-1.4,2.7-2.9,2.6c-1.4-0.1-2.5-1.2-2.6-2.6c0-1.5,1.2-2.8,2.7-2.8c0,0,0.1,0,0.1,0
	c1.5-0.1,2.7,1.1,2.8,2.6C-427.9,228.6-427.9,228.6-427.9,228.7z M-432.9,260.3v-24.6h4.5v24.6H-432.9z"/>
<path class="st0" d="M-418.5,248.8c0.1,6.1,4,8.6,8.5,8.6c2.3,0.1,4.7-0.4,6.8-1.3l0.8,3.2c-2.6,1.1-5.4,1.6-8.2,1.5
	c-7.6,0-12.1-5-12.1-12.4s4.4-13.3,11.6-13.3c8,0,10.2,7.1,10.2,11.6c0,0.7-0.1,1.4-0.2,2.1L-418.5,248.8z M-405.3,245.6
	c0-2.8-1.2-7.3-6.2-7.3c-4.5,0-6.5,4.2-6.9,7.3H-405.3z"/>
<path class="st0" d="M-395.5,242.3c0-2.5,0-4.6-0.2-6.7h4l0.3,4.1h0.1c1.6-2.9,4.8-4.7,8.2-4.6c3.4,0,8.7,2,8.7,10.5v14.7h-4.5
	v-14.2c0-4-1.5-7.3-5.7-7.3c-2.8,0-5.2,1.9-6,4.6c-0.2,0.7-0.3,1.4-0.3,2.1v14.8h-4.5L-395.5,242.3z"/>
<path class="st0" d="M-362,228.6v7.1h6.4v3.4h-6.4v13.3c0,3,0.9,4.8,3.4,4.8c0.9,0,1.7-0.1,2.6-0.3l0.2,3.4c-1.3,0.5-2.6,0.7-4,0.6
	c-1.8,0.1-3.6-0.6-4.8-1.9c-1.3-1.3-1.7-3.5-1.7-6.4v-13.5h-3.8v-3.4h3.8v-5.9L-362,228.6z"/>
<path class="st0" d="M-328.5,247.8c0,9.1-6.3,13.1-12.3,13.1c-6.7,0-11.8-4.9-11.8-12.7c0-8.2,5.4-13.1,12.2-13.1
	C-333.3,235.1-328.5,240.2-328.5,247.8z M-348.1,248c0,5.4,3.1,9.5,7.5,9.5s7.5-4,7.5-9.6c0-4.2-2.1-9.5-7.4-9.5
	S-348.1,243.3-348.1,248L-348.1,248z"/>
<image style="overflow:visible;enable-background:new    ;" width="333" height="507" xlink:href="EBC589B6.png"  transform="matrix(0.33 0 0 0.33 155 181)">
</image>
<image style="overflow:visible;enable-background:new    ;" width="936" height="555" xlink:href="EBC589B1.png"  transform="matrix(0.1996 0 0 0.1996 -44.9314 123)">
</image>
<image style="overflow:visible;enable-background:new    ;" width="420" height="460" xlink:href="EBC589B3.png"  transform="matrix(0.26 0 0 0.26 155 53)">
</image>
<image style="overflow:visible;enable-background:new    ;" width="512" height="311" xlink:href="../../../../Downloads/unnamed (3).jpg"  transform="matrix(0.39 0 0 0.39 -204 243)">
</image>
<image style="overflow:visible;enable-background:new    ;" width="512" height="295" xlink:href="../../../../Downloads/unnamed.png"  transform="matrix(0.33 0 0 0.33 399 207)">
</image>
<image style="overflow:visible;enable-background:new    ;" width="341" height="510" xlink:href="EBC589BE.png"  transform="matrix(0.36 0 0 0.36 399 13)">
</image>
<image style="overflow:visible;enable-background:new    ;" width="341" height="512" xlink:href="../../../../Downloads/unnamed (5).jpg"  transform="matrix(0.33 0 0 0.33 275 73)">
</image>
<image style="overflow:visible;enable-background:new    ;" width="609" height="960" xlink:href="../../../../Downloads/image34.jpg"  transform="matrix(0.23 0 0 0.23 5 243)">
</image>
<image style="overflow:visible;enable-background:new    ;" width="495" height="389" xlink:href="138CE705.png"  transform="matrix(0.29 0 0 0.29 0 0)">
</image>
</svg>
