<svg id="Camada_1" data-name="Camada 1" xmlns="http://www.w3.org/2000/svg" viewBox="0 0 818.08 275.55"><defs><style>.cls-1{fill:#428365;}.cls-2{fill:#7f92a5;}.cls-3{fill:#6b8691;}</style></defs><path class="cls-1" d="M524.82,199.39a90.85,90.85,0,0,1-21.33-3.72,5.47,5.47,0,0,0-2-.33c-12.89.79-25.09-3.86-37.78-4.83-7.31-.56-14.63.21-21.87-.6-6.84-.77-13.64-1.67-20.55-1.44-.83,0-1.66-.25-2.39.35-5.58,2.19-11-.61-16.54-.61-7.52,0-14.86-2.47-22.44-2.31a9.38,9.38,0,0,1-1.67-.18,17.59,17.59,0,0,0-7.79-1.63c-2.17-.35-4.45-.09-6.47-1.2l-1.83-.16c-11.24-1.82-22.55-.39-33.82-.71a34.93,34.93,0,0,1-5,0c-5.29-.88-10.34.43-15.36,1.9a68.56,68.56,0,0,1-11.64.38c-3.26-.07-4.85-1.76-5-5.07-.27-5.21-.15-10.42-1.18-15.63-.72-3.71,1.43-4.79,7-4.2,11.14-.62,22.24.76,33.36.59a43.16,43.16,0,0,1,12,1.52c6.17,1.93,12.71.34,18.92,1.94a9.63,9.63,0,0,1,1.68.43c8.56,2,17.21,3.2,25.94,4.34,9.23,1.21,18.43,1.7,27.69,2,6.21.24,12.13,2.56,18.31,3.11,9.59.86,19.3.85,28.72,3,8.37,1.94,17.22,1.32,25.23,5.18,2.87,1.38,6.35.32,9.41,1.41h0c26.08,2.93,52.2,4.32,78.41,2,3.63-.32,5.93,1.08,6.25,4.92a15.88,15.88,0,0,0,1.91,6.29c1.25,7.54,1.06,11,.66,17.68-1.25,3.42-2.89,4.49-6.47,3.24-7.22-2.52-14.42-5.11-21.58-7.83l.05,0c-3.8-1.43-7.56-3-11.65-3.42-5.25-3.62-11.66-3.29-17.46-5.08A13.79,13.79,0,0,1,524.82,199.39Z"/><path class="cls-1" d="M212.09,182.79c-19,.61-38,1.1-56.92,1.8-14.17.52-28.29,1.16-42.38,2.6a39,39,0,0,0-11.65,2.6c-8.44,2.4-17.22,2.42-25.83,3.56-7.5,1-14.65,3.55-22.35,3.87-12.84.54-25.67,1-38.53.93-4.84,0-5.7-4.08-7.61-7.12.11-7.52,2-9.46,9.13-9.56,4.7-.07,9.37.17,13.93-1.8,3.42-1.47,7.28-1.34,11-1.27A259.68,259.68,0,0,0,93.41,174c9.54-2.21,19.47-1.29,29-3.55,3.88-.92,7.59,1.79,11.45.31h0c5.87-2.11,12.09-1.32,18-1.3,8.64,0,17.07-1.68,25.67-1.65a209.64,209.64,0,0,0,27.65-1.67c13.66-1.77,27.44-2.43,41.08-4.33,3.88-.55,7.74-.64,11.62-.84,5.4-.28,10.41-1.4,13.42-6.58,3.9-3,6.56-2.26,10.5,3,2.08,2.5,1.71,5.9,3.16,8.64,2,3.66,5.32,7.45,2.93,11.68s-7.33,3.46-11.51,3.64c-18.42.8-36.86.44-55.29.64A38.11,38.11,0,0,0,212.09,182.79Z"/><path class="cls-1" d="M720.36,230.85c.43.9,1.32.83,2.1,1,9,1.14,17,5.36,25.47,8.09.21.26.43.51.61.78,1.28,1.89-2.53,3.88-.61,4.86a11.33,11.33,0,0,0,8.85.29c3.81-1.51,6.84-.82,10.54.5,6,2.16,13.33,3.16,17.95,6.58,7.41,5.5,16.37,2.77,23.46,7.28,1.91,1.21,3.79,1.91,1.42,4.31-1.11.91-2.63.59-3.79,1.24-4.56,2.52-8.67,1.87-12.47-1.54h0a3.57,3.57,0,0,0-4.24-.34c-6.69,4.25-13.47,4.21-20.35.53a1.12,1.12,0,0,0-.74-.24c-10.28-6.38-10.93-6.58-22.75-7-.34,0-.67-.08-1-.13-6.65-1.45-12.62-5.2-19.42-6-4.9-.56-7.39-3.81-9.5-7.48-1.86-3.23-3.41-3.58-5.37-.3-.94,1.56-2.71,2.43-3.15,4.48-.26,1.22-1.37,2.46-3,1.26h-.17c-1.58-3.6-3.2-7-8.07-3.86a2.73,2.73,0,0,1-3.61-.93c-1.34-1.72-3.42-2-5.09-3.12-5.89-2.05-10.71-6-17.46-6.91-9.43-1.25-18.78-.94-28.17-1.39a3.62,3.62,0,0,1-2.73-1.09h0c-12.54-1.13-24.93-3.19-37.32-5.36a8.25,8.25,0,0,0-6.34.94c-1.69,1.09-3.51,3.19-5.83,1-2.11-2-4-4.95-2.34-7.21,5.63-7.82,0-15.31-.07-22.91,0-5.52-1-10.86-5.88-15.07-2.64-2.29.24-5.63,1.61-8.24s3.66-1.63,5.35-.81c2.85,1.39,6,2.91,6,6.84-.13,6.27,4.79,9.55,9,10.69,7.42,2,14.17,5.54,21.51,7.51l.07,0c7.27,1.19,13.7,5.32,21.16,5.92,2.87.23,5.51,1.63,8.08,2.94,7,3.54,14,7.07,21.72,8.86a17.69,17.69,0,0,1,6,2.76h0c2.45,1.68,5.24,2.15,8.12,2.49,10.05,1.18,19.67,4.08,29.23,7.27A2.43,2.43,0,0,1,720.36,230.85Z"/><path class="cls-2" d="M176.26,106.39c2.49-2.74,5-5.5,7.48-8.2.95-1,2.19-2,3.55-.9,3.3,2.6,3.59.21,3.8-2.21a32.06,32.06,0,0,0,.27-6.55c-.24-2-.11-4.85-2.92-5.32-6.18-1-2.44-3-.5-4.64,2.28-1.95,4.33-3.8,5.62-6.81,3.21-7.51,9.1-9.84,17.8-7.35-6.62,5.66-6.34,14.41-10.72,21.25-3.23,5-3.11,12.25-4.41,18.5-.23,1.08-.74,2.54.64,3.18,1.54.71,1.83-1,2.63-1.73,9.7-9.28,17.23-20.49,26.69-30,1.76-1.78,3.53-4.08,5.9-2.36,2.63,1.91,7.7,2.11,6.37,7.71-.77,3.21-.76,6.63-1,10-.09,1.16-.09,2.62,1.31,3,1.17.32,1.48-1.08,2.15-1.77,5.74-5.92,11.05-12.3,18-17,4.45-3,8.7-1.39,10.38,3.75,2.79,8.48,1.75,17.1,1,25.66-.3,3.37.91,6.31,1.29,9.45.3,2.43,2,2.58,4.06.94,3.88-3.07,6.56-7.27,10.28-10.45,1.64-1.4,3.31-4.54,5.8-2.31s.34,4.64-1.41,6.54c-4.52,4.92-10.75,8.32-13.25,15.09-.59,1.59-2.44,1-3.66.72-2.62-.49-5.18-1.25-7.75-1.93a1.77,1.77,0,0,1-1.2-2.43,10.22,10.22,0,0,0-3.08-10.56,3.37,3.37,0,0,1-1.16-3.15c1.07-7-1.91-13.21-3.69-19.64-.24-.9-.15-2.24-1.44-2.37s-1.39,1.15-2,1.93c-6.24,8.14-11,17.16-15.52,26.28-.65,1.32-.64,3-1,4.43-1.14,4.72-6.72,9.75-11.15,9.49-1.88-.11-4.26-1.5-4.13-3.74.19-3,.41-6.62,2.16-8.67,4.31-5.09,3.7-11.46,5.5-17.13,1.12-3.54-1.62-7.3-2.59-10.86-.4-1.51-4.61,1.29-5.66,2.94-6.06,9.6-14,17.65-20.78,26.67-2.06,2.76-4.64,6.44-1.2,10.35.78.88.27,1.92-.33,2.75a5.29,5.29,0,0,1-1.45,1.42c-2.92,1.77-2.57,7.37-6.5,7-3.07-.28-2.87-5.71-6.84-6.79-1.58-.43-.84-3.18.33-4.87,4.9-7.11,6.22-15,4.9-23.65-4.27.65-4.83,5.66-8.23,7.34A6.72,6.72,0,0,1,176.26,106.39Z"/><path class="cls-2" d="M630.5,139.94c-2,1.43-4,2.95-6.15,4.26s-3.72-.23-4.45-1.67a21.35,21.35,0,0,1-1.85-14.69c1.9-8.68,4.14-17.34,4.28-26.33a1.55,1.55,0,0,0-.9-1.56c-1.46-.9-2.39.08-3.62.74-8.87,4.7-14.07,12.91-19.63,20.68-3.31,4.61-6.77,9.13-8.56,14.82-1.27,4.06-5.59,6-9.21,8a3,3,0,0,1-3.37-.4c-1.26-1.09-.3-2.35.15-3.24,5-9.8,5-20.91,8.15-31.21.92-3,0-6.74-.63-10-.49-2.39-2.82-2.07-4.61-1.32A5.47,5.47,0,0,0,578,100.1c-1.18,1.8-3.06,2-4.85,2.24-.79.1-1.43-.87-1.5-1.78-.18-2.38,2-2.49,3.37-3.22,6.4-3.54,11.23-9.07,17.08-13.29a6.46,6.46,0,0,1,2.58-1.52c1.77-.2,4-1.3,5.3.19s.16,3.58-.58,5.56c-3.94,10.62-9.64,20.75-9.66,32.63,3.42-1.84,5.5-5.24,7.65-8.18,7.07-9.69,17.42-15.68,25.88-23.79,2.42-2.31,6.21-3.4,9.56-4.49s3.06,1.78,2.74,3.66c-1.16,6.65-2.71,13.24-3.79,19.9-1,6.32-.39,12.69.34,19,.3,2.62,1.83,3.26,3.71,1.15,3.12-3.53,7.53-4.95,11.41-7.24,1.55-1.07,3.21-1.24,4.39.32,1,1.36.25,2.91-.46,4.26a9,9,0,0,1-2.71,3.59C642.52,132.84,637.45,138,630.5,139.94Z"/><path class="cls-2" d="M658.17,126.84c6.48-6.3,13.09-12.48,19.42-18.93,4.26-4.35,8.23-9,12.16-13.68,2-2.39,1.06-5.38-1.57-5.54-7-.43-14.1-.81-20.84,2-1.12.48-2.47,1-2.13,2.4.83,3.48-2.07,4.65-3.76,6.61-1.4,1.64-3.53,3.41-5.11,2.13s-1-4.9.29-5.94c2.1-1.71,1.85-3.07,1.24-5.08-.81-2.67,1.31-3.92,2.88-5.43,6.58-6.36,14.92-7,23.22-6.26,6.77.56,13.5.64,20.26.65,2.18,0,4.61-.06,5.54,2.6,1,2.9-1.86,3.22-3.23,4.38-8.28,7.08-15.29,15.45-23.44,22.69-7.88,7-14.91,15-22.33,22.49-1.5,1.53-2.61,3.13.3,4.09,8.83,2.93,18,3.85,27.24,3.95,3.38,0,6-.93,7.8-4.93,2-4.3,6.77-6.31,11.82-6.54,1.92-.09,2.45,1,2.07,2.55s-.59,3.31-1.58,4.17c-7,6.09-14,12.19-24.18,12.26-8.61,0-17.21.47-25.82.73-5,.14-9.81-2.63-15,.17-2,1.09-3.7-1.55-3.88-4-.38-5.26,2-9.06,6.42-11.66C649.85,130.41,654.12,128.85,658.17,126.84Z"/><path class="cls-2" d="M385.26,51.23a2.64,2.64,0,0,1-2.62-1.57c-.53-1.09-1-2.35.08-3.28,7.9-6.91,14-15.4,20.91-23.22,1.59-1.81,3.56-4.28,6.22-2,2.3,1.94,4.12,4.44,2.61,8-1,2.47-2.87,3.93-4.93,5.51-7,5.37-15.65,8.63-21.21,15.95A3.23,3.23,0,0,1,385.26,51.23Z"/><path class="cls-1" d="M435.23,89.1l.18,2.36c-.05,1.24-.1,2.49-.16,3.73-1,2.36-.21,4.85-.5,7.25-.15,1.16.69,2.77-1.31,3.17l-.42-.32c.07-4.05.14-8.1.24-12.15C433.31,91.52,432.85,89.61,435.23,89.1Z"/><path class="cls-3" d="M299.7,30c4.51.29,5.43,2.07,3.24,6.27C300.54,34.89,302.13,31.42,299.7,30Z"/><path class="cls-2" d="M303,36.26c-.42,3.37,1.93,6.76-.11,10.11C303.48,43,300,39.6,303,36.26Z"/><path class="cls-1" d="M433.18,54.73l-3.81-.43c.32-3,3-2.35,4.78-3.09C433.83,52.39,433.51,53.56,433.18,54.73Z"/><path class="cls-2" d="M412.8,110.56c-1.94-.32-2.11-1.93-2.17-3.52-.39-11.22.32-22.29,4.07-33,1.89-5.41,1.33-6-4.46-5.1-1.64.25-2.7,1.21-4,1.91-3.93,2.12-5.44,6.33-8.42,9.28-5.36,5.31-10.43,10.91-15.63,16.39-4.63,4.87-9.25,9.76-13.94,14.58-.78.8-1.86,1.82-3.1,1.29-1.59-.67-.35-2.07-.44-3.14a70.47,70.47,0,0,0-.66-7.57C361.6,89.4,368.42,79.56,372.56,69c.73-1.86,2.72-3.79,1.39-5.56-1.53-2-4.39-1.27-6,.07-5.21,4.39-12.23,4.34-17.85,7.68-1.37.82-3,.63-4.75-.22-4.39-2.06-9-5.54-13.69-4.59-6.56,1.33-13.07.74-19.54,1.48-3.66.41-6.64,2.57-5.88-4.17.87-7.81,2.16-15.54,3.48-23.23,1.39-8.14,4.86-15.76,8.22-23.33,1.17-2.65,2.71-5.95.39-8.07-2.61-2.39-5.21,1.05-7.86,1.76a2.35,2.35,0,0,0-1.25.83c-5.32,7.76-13.61,11.9-20.92,17.23-2.24,1.64-4.85,4.06-2.74,6.62s6,2.37,8.81.28C296.45,34.27,298,32,299.7,30c3.61.79,4.65,2.9,3.24,6.27l0,0c-2.1,3.35,2,6.76-.11,10.11-.89,6.29-1.53,12.62-2.73,18.85-1.57,8.19-4.37,16.09-3.44,24.76.42,4-.15,8.36-.33,12.52-.23,5.06-2.61,9.39-3.27,14.31-.74,5.62-4.93,10.44-8.5,15-.84,1.08-3.54,1.1-2.76,3.28.65,1.81,2.69.62,4.1.82a4.17,4.17,0,0,0,3.64-1.38c4.21-4.17,9.42-7,14.06-10.49a183.19,183.19,0,0,0,37-38c2.75-3.75,4.27-9.29,10.94-7.31.55.16,1.4-.75,2.14-1.13,1-.5,1.66-2,3-1.07s.78,2.32.53,3.69c-1,5.64-2.34,11.23-2.5,17A7.3,7.3,0,0,1,353.5,101c-4.3,6.11-4.39,13-3.61,19.91.62,5.52,8,9.75,11.33,6.4,1.81-1.8,3.89-3.11,5.79-4.68,10.12-8.36,16.57-20,26.06-28.87,1.09-1,1.2-4,3.42-2.76a5.92,5.92,0,0,1,2.94,5c-.13,7,1.46,14.18-2.66,20.78a4.9,4.9,0,0,0,.72,6.16c1.65,1.48,3.37.12,5.11-.58,4.32-1.72,7.77-4.56,11.07-7.7C415.69,112.77,416.83,111.2,412.8,110.56Zm-85-18c-6.8,7.64-13.17,15.71-20.86,22.53-1,.9-1.65,3.18-3.42,2.29-1.51-.75-.57-2.75-.74-4.18a21.53,21.53,0,0,1,0-2.54c1.75-8.62.94-17.33,1-26,0-1.87.25-3.61,3.65-3.11,4.09.61,7.84-2.44,12.32-2.7s8.28.33,10.68,3.67C333.05,86.22,330,90.06,327.79,92.55Z"/><path class="cls-2" d="M578.14,116.55c-1.67-1.93-3-.94-4.55.66-3.25,3.4-6.71,6.61-10.2,9.77-4.42,4-5.49,3.54-7.76-1.85-4.45-10.58-3.6-21.88-4.86-32.89-.39-3.43-.26-6.66,3.68-8.35a3.42,3.42,0,0,0,2-3.32c-.08-1.35-1.1-1.56-2.14-1.64-13.78-1-27.24-.89-37.72,10.23a10.06,10.06,0,0,0-4.8,6.24c-2.82,9.17-7,17.94-8.16,27.61a12.66,12.66,0,0,1-1.21,5.39c-2,5.29-3,10.68-1.67,16.36,1,4.26,3.24,5.55,7.11,3.49a11.82,11.82,0,0,0,3.8-3.31q11.47-15.37,22.75-30.91c.84-1.15,1.46-2.48,3-2.13s1.17,1.81,1.4,2.94c1.75,8.69,2.63,17.56,8.19,25.14,4.42,6,7.75,6.6,12,.44,5.08-7.42,12.85-12.15,18.3-19.2C578.66,119.45,579.61,118.27,578.14,116.55ZM537.31,93.14c-1,4-1.42,8.55-3.6,11.87-6.3,9.57-13.35,18.64-20.13,27.89-.25.34-.77.48-1.56.93-1.39-5.78,1-10.82,2.07-15.9,1.79-8.8,6.92-16.38,9.89-24.8,1.62-4.59,8.65-6.2,12.34-3.21A3,3,0,0,1,537.31,93.14Z"/><path class="cls-2" d="M789.69,116.29c-1.51-1.62-2.86-.7-4.25.7-3.68,3.72-7.48,7.31-11.33,10.85-2.79,2.56-4.42,2.29-6.28-1.58-4.57-9.52-4.08-19.78-5.17-29.78-.53-4.87-1.77-10.35,4.31-13.69,2.09-1.15,1.95-3.5-1.34-4a29.59,29.59,0,0,0-9.79-.2c-2.18.19-3.53.34-4.88.42-6.63.42-12.75,1.66-18,6.53a36,36,0,0,0-10,14.72c-1.91,5.28-2.26,11-5.94,16.13-2.23,3.07-1.88,9-3.31,13.45-1.32,4.14-2.83,8.26-1.42,12.8.66,2.14-.33,5.26,2.27,6.18,2.88,1,5.61-.43,7.73-2.69,4.56-4.86,8.25-10.46,12.33-15.66s7.86-11.2,11.74-16.86c.7-1,1.48-2,2.86-1.59s.91,1.61,1.11,2.56c1.95,9,2.9,18.27,8.75,26.06,3.85,5.12,7.77,5.8,11.27.39,5.12-7.89,13.19-12.78,19-20C790.9,119.16,791.09,117.79,789.69,116.29ZM749.07,93.57c-.54,3.65-1.28,7.81-3,10.53-6.55,10.32-14.11,20-21.29,29.9l-1.45-.73c.23-10.43,3.39-20.16,7.66-29.58a93.42,93.42,0,0,0,4.27-9.64,8.46,8.46,0,0,1,12.42-4.43C749.41,90.62,749.29,92.08,749.07,93.57Z"/><path class="cls-2" d="M176.26,106.39c-.93.73-1.87,1.45-2.78,2.19-4.86,3.94-5.63,3.59-8.18-2-4.69-10.23-3.47-21.23-4.6-31.92-.39-3.77-.47-7.44,3.88-9.4a3,3,0,0,0,1.67-3.43c-.46-2-2.2-.93-3.37-1.25-5.89-1.58-11.82-.23-17.59.4-10.76,1.16-19.23,7.18-22.75,17.28s-7.94,20.06-10,30.76c-1.12,5.75-3.55,11.13-2,17.29,1,4.12,2.42,5.45,6.39,3.93a11.57,11.57,0,0,0,5.35-4.53c5.89-8.6,12.72-16.51,18.57-25.16,1.71-2.55,3.11-7.87,6.25-6.71,2.82,1,2.85,6.42,3,9.95.34,8.28,4.74,14.62,9,21.09,1.29,2,2.71,2.36,5,.77,6.51-4.44,10.67-11.17,16.48-16.25A5.14,5.14,0,0,0,176.26,106.39ZM147.13,74.74c-.9,3.92-1.06,8.39-3.15,11.57-6.56,10-13.86,19.43-20.88,29.09l-1.37-.5c-.89-5.73,1.35-11.15,2.52-16.6,1.83-8.46,6.81-15.74,9.74-23.82,1.59-4.38,8.39-5.77,12.11-2.94A2.94,2.94,0,0,1,147.13,74.74Z"/><path class="cls-1" d="M457.34,59.77l-.33-.14c-2.15-1-2.89,1-3.35,2.9A5.24,5.24,0,0,1,457.34,59.77Z"/><path class="cls-1" d="M451.06,77.2c.43-2.34.79-4.7,1.1-7.06Q451.56,73.66,451.06,77.2Z"/><path class="cls-1" d="M477.45,67.67c-5.55-3.51-12.07-4.71-18.11-7.06,3.25,2.83,7.73,2.53,10.87,5.47C472.12,67.87,474.9,67.31,477.45,67.67Z"/><path class="cls-1" d="M445.47,104.1c.08-.19.14-.4.21-.6C445.62,103.7,445.54,103.9,445.47,104.1Z"/><path class="cls-1" d="M446.12,101.64a11.8,11.8,0,0,1-.32,1.43,17.42,17.42,0,0,0,.5-2.59Z"/><path class="cls-2" d="M98.5,76c-7.74-1.23-14.27-6.26-22.08-7.15-3.8-.44-7-2.09-10.76-3.89,6.55-6.25,13.91-10.6,19.44-17,1.36-1.57,3.65-3.09,2.52-5.52-1.21-2.62-3-5-6.45-5a24,24,0,0,1-8.4-1.79,120,120,0,0,1-14.9-6.61c-6.11-3.1-13.11-1.15-19.53-3.82-9-3.72-10-2.82-15.45,5.33-1.62,2.41-1.67,3.34,1.69,4.37,4.45,1.35,8.84.31,13.22.93,2.49.36,3,1.39,3.59,3.76,1.42,5.7-2.93,10.66-1.48,16.23.75,2.85.91,6-1,8.17-3.52,3.8-2.71,8-2.4,12.36.69,10-.68,19.81-5.28,28.84-1.61,3.18-3.11,6-3.32,9.79s-1.71,7.49-3.16,11c-.69,1.67-2.6,3-1,4.87,1.5,1.67,3.41.5,5.23.13,5.54-1.13,9.46-5.62,14.76-7.1a205.05,205.05,0,0,0,51.64-22.54c5.08-3.09,9.16-7.32,13.38-11.37,1.17-1.13,1.75-2.37.51-5C106.87,79.94,100.32,81,98.5,76ZM47.34,59.11c1.49-4.48,2.43-10.11,4.87-15.33a3.66,3.66,0,0,1,4-2.27c5.89.58,11.55,1.88,16.17,6,1.74,1.56,1.79,2.7-.37,3.79C64.7,55,57.37,58.81,50,62.45,47.61,63.61,47,62.29,47.34,59.11ZM96.4,94.68c-10.27,6.31-20.48,12.62-32.28,16-6.59,1.89-12.82,5-19.64,6.35-5.18,1-6.14.7-4.49-4.42,1.83-5.72,2.29-11.77,4.92-17.32,1.51-3.2.23-7-.51-10.45-1.14-5.23,1.82-6.46,6.4-7.16C63.42,77,75.52,79.8,87.45,83.17c3.53,1,6.59,4,9.58,6.44C99,91.24,98.49,93.39,96.4,94.68Z"/><path class="cls-1" d="M507.21,85.76c-1.55-4.48-1.78-9.32-6-13-2.63-2.3-5.61-5-7.38-7.92-2.58-4.26-6.14-5.8-10.34-7.34-5.66-2.08-9.92-7.15-16.3-7.9-.5-.06-.68-1.11-1.12-1.63-4.48-2.86-9.62-4-14.61-5.55-2.52-.06-5.05-.06-7.57-.19-6.54-.34-10.06,2.88-9.75,9-.6,1-1.9,1.68-1.63,3.16,1.49,3.27,5.54,6.1,1.79,10.28-2,3.29.78,5.81,1.4,8.68,1.16,6.07,1.36,12.09-1.22,17.91a25,25,0,0,0-.22,4.32,127.27,127.27,0,0,1-1.7,24,12.12,12.12,0,0,0-.33,1.59c-.17,1.37-.37,2.83.52,3.93a6.15,6.15,0,0,0,3.95,1.87c1.19.17,1.62-1.23,1.51-2.2-.69-5.78,3-10.06,5-14.94a21.17,21.17,0,0,1,1.66-4.21,10.71,10.71,0,0,0,.62-1.45c.07-.2.15-.4.21-.6s.09-.28.12-.43a11.8,11.8,0,0,0,.32-1.43l.18-1.16c.41-3.21.23-6.56,1.13-9.7a41.8,41.8,0,0,1,2-6.2c.66-2.44,1.19-4.9,1.65-7.38s.7-4.71,1.1-7.06c.1-.75.2-1.5.29-2.25a14.58,14.58,0,0,1,1-4.94c.07-.14.15-.29.23-.42.46-1.92,1.2-3.9,3.35-2.9l.33.14a2.32,2.32,0,0,1,1.77.64l.23.2c6,2.35,12.56,3.55,18.11,7.06a6,6,0,0,1,2.84,1c5,1.28,8.23,5.2,12,8.26,1.88,2.6,3.91,5.1,5.08,8.15h0a31.78,31.78,0,0,1,1.84,5.24,14.28,14.28,0,0,0,1.11,1.78c1.26,1.21,2.83,2.64,4.32,1C506.43,91.11,508.23,88.7,507.21,85.76Z"/><path class="cls-1" d="M451.06,77.2c-.46,2.48-1,4.94-1.65,7.38a41.8,41.8,0,0,0-2,6.2c-.9,3.14-.72,6.49-1.13,9.7.95-6.12,1.72-12.27,4.05-18.1C450.58,80.66,450.82,78.93,451.06,77.2Z"/><path class="cls-1" d="M453.66,62.53c-.08.13-.16.28-.23.42a14.58,14.58,0,0,0-1,4.94c-.09.75-.19,1.5-.29,2.25.42-2.44.87-4.88,1.42-7.3C453.61,62.74,453.63,62.63,453.66,62.53Z"/><path class="cls-1" d="M459.11,60.41a2.32,2.32,0,0,0-1.77-.64c.66.3,1.33.58,2,.84Z"/><path class="cls-1" d="M445.47,104.1a10.71,10.71,0,0,1-.62,1.45,21.17,21.17,0,0,0-1.66,4.21,17.14,17.14,0,0,0,.65-2A25.47,25.47,0,0,0,445.47,104.1Z"/><path class="cls-1" d="M445.68,103.5c0-.14.09-.28.12-.43C445.77,103.22,445.72,103.36,445.68,103.5Z"/><path class="cls-1" d="M437.26,72c-3.48-.89-6.64,1.76-10.12.9,1.32-4.12,4.52-6.37,8.15-8.19C433.58,67.78,435.58,69.85,437.26,72Z"/><path class="cls-1" d="M433.44,105.61c1.61-3.3-.22-7.19,1.81-10.42-.13,8.56,1,17.23-2.06,25.56Q433.31,113.18,433.44,105.61Z"/><path class="cls-1" d="M431,121.93c-.45,3,.69,4.8,4.15,5.34-2.93-7.55,3.82-12.19,5.22-18.47,2.22,6.19-.18,11.85-2,17.56-1,2.47-1.85,5-2.78,7.55-.43,1.16-1.81,2.46-.38,3.61,1.11.89,2.57.38,3.82-.2a14.37,14.37,0,0,0,1.77-1,19.66,19.66,0,0,1,6.11-2.26c6-.69,10.3-5.1,15.67-7.16a8.77,8.77,0,0,1,1.21-.65c3.11-1.21,6.39-2.08,9-4.32a6.34,6.34,0,0,1,1.14-.7,7.52,7.52,0,0,0,3.26-2.11,6.5,6.5,0,0,1,1.65-1.21c3.85-1.74,6.67-4.88,10-7.28.32-.32.66-.62,1-.92a23.53,23.53,0,0,0,5.29-6.88c.2-.41.43-.81.66-1.21,2.48-2.62,1.2-6.29,2.55-9.22,1.19.38,2.87,2.56,3.25,1.29.68-2.27,3.17-3.71,2.33-6.82-2.17-8-7.42-13.69-12.59-19.86a20.52,20.52,0,0,0-11.82-7.34c-2.28-.56-5.12-1.27-6-4.56-.64-2.38-3.18-1.06-4.87-1.41-2.39-.5-5.81.26-5-4.12,4-2,7.15-.38,10,2.39,9.64,4.06,16.94,11.29,24.6,18,3,4.59,7.55,8.3,8,14.3.13.65.27,1.3.4,2,2.16,6.33-1,11.85-3.05,17.35-2.5,6.66-7.78,11.27-13.57,15.23l0-.06a86,86,0,0,1-17.7,11.57,111.47,111.47,0,0,1-12.73,4.83l-17.36,8.1c-2,1.9-4.88,1.79-7.17,3.05h0c-3.51.91-5.78,4.08-9.24,5.08-3.89,3.25-6.57,8.71-13.09,7.17-2.67-6.8-1.88-10.64,4.25-14.37,6.57-4,10.25-9.42,11.19-17C428.41,125.33,428,122.6,431,121.93Z"/><path class="cls-2" d="M40.89,230.16a8.58,8.58,0,0,1,7.35,3.49l-2.07,1.92A6,6,0,0,0,41.06,233c-4.28,0-6.94,3.28-6.94,7.73s2.66,7.77,6.94,7.77a6.05,6.05,0,0,0,5.11-2.62l2.07,1.91a8.58,8.58,0,0,1-7.35,3.49c-6,0-10-4.57-10-10.55S34.91,230.16,40.89,230.16Z"/><path class="cls-2" d="M61.34,230.16c6.06,0,9.63,4.74,9.63,10.77v.79H54.73A7.07,7.07,0,0,0,62,248.65a8.78,8.78,0,0,0,6.19-2.53l1.49,2a10.9,10.9,0,0,1-8,3.07c-5.94,0-10.22-4.28-10.22-10.55C51.45,234.86,55.6,230.16,61.34,230.16Zm-6.61,9.27H67.9a6.51,6.51,0,0,0-6.61-6.69C57,232.74,54.89,236.36,54.73,239.43Z"/><path class="cls-2" d="M89.55,237.6c0-3.53-1.79-4.65-4.49-4.65a7.74,7.74,0,0,0-5.94,3.11v14.67H76V230.66h3.12v2.91a10,10,0,0,1,7.15-3.41c4.19,0,6.4,2.12,6.4,6.49v14.08H89.55Z"/><path class="cls-2" d="M99.52,246.54V233.41H96.2v-2.75h3.32v-5.48h3.12v5.48h4.07v2.75h-4.07v12.46c0,1.5.67,2.58,2,2.58a3.05,3.05,0,0,0,2.12-.83l.91,2.32a5.08,5.08,0,0,1-3.74,1.29C101,251.23,99.52,249.53,99.52,246.54Z"/><path class="cls-2" d="M111.12,230.66h3.12v3.24a8.53,8.53,0,0,1,6.68-3.65v3.2a5,5,0,0,0-1.24-.13,7.33,7.33,0,0,0-5.44,3.2v14.21h-3.12Z"/><path class="cls-2" d="M123.67,240.68c0-5.82,3.82-10.52,9.93-10.52s9.93,4.7,9.93,10.52-3.82,10.55-9.93,10.55S123.67,246.49,123.67,240.68Zm16.58,0c0-4.08-2.37-7.73-6.65-7.73s-6.69,3.65-6.69,7.73,2.41,7.77,6.69,7.77S140.25,244.79,140.25,240.68Z"/><path class="cls-2" d="M173.87,247.74a8.45,8.45,0,0,1-6.78,3.49c-5.23,0-8.93-4-8.93-10.51s3.66-10.56,8.93-10.56a8.41,8.41,0,0,1,6.78,3.54V223H177v27.71h-3.11Zm0-11.55a7.55,7.55,0,0,0-6-3.24c-4,0-6.44,3.32-6.44,7.77s2.41,7.73,6.44,7.73a7.51,7.51,0,0,0,6-3.16Z"/><path class="cls-2" d="M191.94,230.16c6.07,0,9.64,4.74,9.64,10.77v.79H185.34a7.06,7.06,0,0,0,7.23,6.93,8.78,8.78,0,0,0,6.19-2.53l1.49,2a10.9,10.9,0,0,1-8,3.07c-5.94,0-10.22-4.28-10.22-10.55C182.05,234.86,186.21,230.16,191.94,230.16Zm-6.6,9.27h13.17a6.51,6.51,0,0,0-6.61-6.69C187.62,232.74,185.5,236.36,185.34,239.43Z"/><path class="cls-2" d="M229.88,248.45a8.71,8.71,0,0,1-6.65,2.78c-3.4,0-7-2.29-7-6.65s3.62-6.6,7-6.6a8.38,8.38,0,0,1,6.65,2.74V237.1c0-2.7-2.16-4.23-5.07-4.23a8,8,0,0,0-6.15,2.78l-1.45-2.16a10.53,10.53,0,0,1,8-3.33c4.24,0,7.77,1.92,7.77,6.78v13.79h-3.12Zm0-5.74a6.71,6.71,0,0,0-5.52-2.49c-2.91,0-5,1.83-5,4.4s2,4.37,5,4.37a6.69,6.69,0,0,0,5.52-2.5Z"/><path class="cls-2" d="M239.23,230.66h3.12v3.24a8.55,8.55,0,0,1,6.69-3.65v3.2a5.11,5.11,0,0,0-1.25-.13,7.33,7.33,0,0,0-5.44,3.2v14.21h-3.12Z"/><path class="cls-2" d="M253.57,246.54V233.41h-3.32v-2.75h3.32v-5.48h3.12v5.48h4.07v2.75h-4.07v12.46c0,1.5.66,2.58,2,2.58a3.05,3.05,0,0,0,2.12-.83l.91,2.32a5.08,5.08,0,0,1-3.74,1.29C255.07,251.23,253.57,249.53,253.57,246.54Z"/><path class="cls-2" d="M273.89,230.16c6.06,0,9.64,4.74,9.64,10.77v.79H267.28a7.07,7.07,0,0,0,7.23,6.93,8.76,8.76,0,0,0,6.19-2.53l1.5,2a10.93,10.93,0,0,1-8,3.07c-5.94,0-10.22-4.28-10.22-10.55C264,234.86,268.15,230.16,273.89,230.16Zm-6.61,9.27h13.17c0-3-2-6.69-6.6-6.69C269.57,232.74,267.45,236.36,267.28,239.43Z"/><path class="cls-2" d="M300.36,256.09a2.87,2.87,0,0,0,3-2.12l1.33-3-8.39-20.28h3.36l6.69,16.46L313,230.66h3.41L306.34,254.8a6,6,0,0,1-5.9,4.08,9.88,9.88,0,0,1-2.28-.3l.5-2.82A4.68,4.68,0,0,0,300.36,256.09Z"/><path class="cls-2" d="M354.59,237.1c0-2.53-1.13-4.15-3.7-4.15a7,7,0,0,0-5.32,3.07v14.71h-3.12V237.1c0-2.53-1.08-4.15-3.69-4.15a7,7,0,0,0-5.28,3.11v14.67h-3.12V230.66h3.12v2.91a8.66,8.66,0,0,1,6.48-3.41c3.08,0,4.82,1.67,5.4,3.74a8.48,8.48,0,0,1,6.73-3.74c3.66,0,5.61,2,5.61,6.07v14.5h-3.11Z"/><path class="cls-2" d="M362.78,240.68c0-5.82,3.82-10.52,9.93-10.52s9.93,4.7,9.93,10.52-3.82,10.55-9.93,10.55S362.78,246.49,362.78,240.68Zm16.58,0c0-4.08-2.37-7.73-6.65-7.73S366,236.6,366,240.68s2.41,7.77,6.69,7.77S379.36,244.79,379.36,240.68Z"/><path class="cls-2" d="M384.72,230.66h3.36l6.69,16.46,6.65-16.46h3.41l-8.35,20.07h-3.41Z"/><path class="cls-2" d="M407.53,225.18a2.1,2.1,0,0,1,4.2,0,2.1,2.1,0,1,1-4.2,0Zm.54,5.48h3.12v20.07h-3.12Z"/><path class="cls-2" d="M441.65,237.1c0-2.53-1.13-4.15-3.7-4.15a7,7,0,0,0-5.32,3.07v14.71h-3.12V237.1c0-2.53-1.08-4.15-3.7-4.15a7,7,0,0,0-5.27,3.11v14.67h-3.12V230.66h3.12v2.91a8.66,8.66,0,0,1,6.48-3.41c3.07,0,4.82,1.67,5.4,3.74a8.46,8.46,0,0,1,6.73-3.74c3.66,0,5.61,2,5.61,6.07v14.5h-3.11Z"/><path class="cls-2" d="M450.46,225.18a2.1,2.1,0,0,1,4.19,0,2.1,2.1,0,1,1-4.19,0Zm.54,5.48h3.11v20.07H451Z"/><path class="cls-2" d="M469.07,230.16c6.07,0,9.64,4.74,9.64,10.77v.79H462.47a7.07,7.07,0,0,0,7.23,6.93,8.78,8.78,0,0,0,6.19-2.53l1.49,2a10.9,10.9,0,0,1-8,3.07c-6,0-10.22-4.28-10.22-10.55C459.19,234.86,463.34,230.16,469.07,230.16Zm-6.6,9.27h13.17a6.51,6.51,0,0,0-6.61-6.69C464.75,232.74,462.63,236.36,462.47,239.43Z"/><path class="cls-2" d="M497.29,237.6c0-3.53-1.79-4.65-4.49-4.65a7.74,7.74,0,0,0-5.94,3.11v14.67h-3.12V230.66h3.12v2.91a10,10,0,0,1,7.15-3.41c4.19,0,6.39,2.12,6.39,6.49v14.08h-3.11Z"/><path class="cls-2" d="M507.26,246.54V233.41h-3.32v-2.75h3.32v-5.48h3.12v5.48h4.07v2.75h-4.07v12.46c0,1.5.66,2.58,2,2.58a3,3,0,0,0,2.11-.83l.92,2.32a5.08,5.08,0,0,1-3.74,1.29C508.76,251.23,507.26,249.53,507.26,246.54Z"/><path class="cls-2" d="M517.69,240.68c0-5.82,3.83-10.52,9.93-10.52s9.93,4.7,9.93,10.52-3.82,10.55-9.93,10.55S517.69,246.49,517.69,240.68Zm16.58,0c0-4.08-2.37-7.73-6.65-7.73s-6.69,3.65-6.69,7.73,2.41,7.77,6.69,7.77S534.27,244.79,534.27,240.68Z"/></svg>