<svg id="Camada_1" data-name="Camada 1" xmlns="http://www.w3.org/2000/svg" viewBox="0 0 839.63 355"><defs><style>.cls-1{fill:#fff;}</style></defs><path class="cls-1" d="M533.46,238a88.59,88.59,0,0,1-20.93-3.66,5.47,5.47,0,0,0-1.95-.32c-12.66.77-24.63-3.79-37.09-4.74-7.17-.55-14.37.2-21.47-.59-6.72-.76-13.39-1.64-20.17-1.42-.81,0-1.63-.24-2.35.35-5.48,2.15-10.8-.6-16.24-.6-7.37,0-14.58-2.43-22-2.26a11.27,11.27,0,0,1-1.64-.18A17.08,17.08,0,0,0,382,223c-2.13-.34-4.36-.09-6.35-1.18l-1.79-.16c-11-1.79-22.14-.38-33.21-.69a35,35,0,0,1-4.91,0c-5.19-.86-10.15.43-15.08,1.87a67.12,67.12,0,0,1-11.43.37c-3.19-.07-4.76-1.73-4.93-5-.26-5.11-.15-10.23-1.15-15.34-.72-3.63,1.4-4.7,6.82-4.12,10.94-.61,21.84.75,32.76.58a42.26,42.26,0,0,1,11.8,1.49c6.06,1.9,12.48.33,18.58,1.9a10.23,10.23,0,0,1,1.65.42,256.56,256.56,0,0,0,25.46,4.27c9.06,1.19,18.09,1.67,27.18,2,6.1.23,11.91,2.51,18,3.06,9.42.84,19,.83,28.2,3,8.21,1.9,16.91,1.3,24.76,5.08,2.82,1.36,6.24.31,9.24,1.38h0c25.6,2.88,51.23,4.23,77,2,3.57-.32,5.83,1.06,6.14,4.83a15.6,15.6,0,0,0,1.87,6.17c1.23,7.4,1,10.81.65,17.36-1.22,3.36-2.83,4.41-6.34,3.18-7.1-2.47-14.17-5-21.19-7.69l0,0c-3.72-1.41-7.42-2.92-11.43-3.37-5.15-3.54-11.45-3.23-17.13-5A14.5,14.5,0,0,1,533.46,238Z"/><path class="cls-1" d="M226.48,221.69c-18.63.6-37.26,1.08-55.88,1.76-13.9.52-27.77,1.15-41.6,2.56a38.57,38.57,0,0,0-11.44,2.55c-8.28,2.36-16.9,2.37-25.35,3.5-7.37,1-14.38,3.48-21.94,3.8-12.61.53-25.2,1-37.82.91-4.75,0-5.6-4-7.47-7,.11-7.39,1.93-9.28,9-9.39,4.62-.06,9.19.17,13.67-1.76,3.36-1.45,7.15-1.32,10.83-1.25A255.25,255.25,0,0,0,110,213c9.36-2.17,19.11-1.26,28.46-3.48,3.82-.91,7.46,1.75,11.24.3h0c5.77-2.07,11.87-1.3,17.71-1.28,8.47,0,16.76-1.65,25.19-1.62a205.47,205.47,0,0,0,27.15-1.63c13.41-1.74,26.93-2.39,40.32-4.26,3.81-.53,7.6-.62,11.4-.82,5.3-.27,10.23-1.38,13.18-6.46,3.83-3,6.44-2.21,10.31,2.95,2,2.45,1.68,5.79,3.1,8.47,2,3.6,5.22,7.32,2.88,11.48s-7.2,3.39-11.3,3.57c-18.08.79-36.18.43-54.27.62A38.26,38.26,0,0,0,226.48,221.69Z"/><path class="cls-1" d="M725.42,268.87c.43.89,1.3.81,2.06,1,8.82,1.12,16.68,5.26,25,7.94.2.26.41.5.6.77,1.25,1.86-2.49,3.8-.61,4.77a11.11,11.11,0,0,0,8.69.28c3.74-1.48,6.71-.81,10.35.5,5.92,2.11,13.09,3.1,17.61,6.45,7.28,5.4,16.07,2.72,23,7.15,1.88,1.19,3.73,1.87,1.4,4.23-1.08.89-2.58.58-3.72,1.21-4.47,2.49-8.51,1.84-12.24-1.5h0a3.5,3.5,0,0,0-4.16-.34c-6.57,4.18-13.22,4.13-20,.52a1.06,1.06,0,0,0-.73-.23c-10.09-6.26-10.73-6.46-22.33-6.9a8.19,8.19,0,0,1-1-.12c-6.53-1.42-12.39-5.11-19.06-5.87-4.82-.56-7.26-3.74-9.33-7.34-1.82-3.18-3.35-3.52-5.27-.3-.92,1.53-2.66,2.39-3.09,4.4-.26,1.19-1.35,2.42-3,1.23h-.17c-1.54-3.53-3.14-6.84-7.92-3.78a2.68,2.68,0,0,1-3.54-.92c-1.32-1.68-3.35-2-5-3.06-5.78-2-10.52-5.9-17.14-6.78-9.26-1.23-18.44-.93-27.66-1.37a3.58,3.58,0,0,1-2.68-1.07h0c-12.3-1.1-24.47-3.13-36.63-5.26a8.16,8.16,0,0,0-6.23.92c-1.65,1.08-3.44,3.13-5.72,1-2.07-1.93-3.9-4.86-2.3-7.08,5.53-7.68,0-15-.06-22.49,0-5.43-1-10.67-5.78-14.8-2.59-2.25.24-5.52,1.59-8.08s3.59-1.61,5.24-.8c2.8,1.36,5.93,2.85,5.86,6.71-.13,6.16,4.69,9.38,8.85,10.5,7.28,2,13.91,5.43,21.12,7.37l.06,0c7.14,1.17,13.45,5.22,20.78,5.81,2.82.23,5.4,1.61,7.93,2.88,6.87,3.49,13.74,6.94,21.32,8.7a17.72,17.72,0,0,1,5.85,2.71h0c2.4,1.65,5.14,2.12,8,2.45,9.86,1.16,19.31,4,28.69,7.14A2.35,2.35,0,0,1,725.42,268.87Z"/><path class="cls-1" d="M191.3,146.69c2.45-2.68,4.87-5.39,7.35-8,.94-1,2.15-2,3.49-.89,3.23,2.55,3.51.2,3.73-2.17a32.3,32.3,0,0,0,.26-6.43c-.24-2-.11-4.76-2.86-5.22-6.08-1-2.4-2.93-.49-4.56,2.23-1.92,4.24-3.73,5.5-6.68,3.16-7.37,8.94-9.66,17.48-7.22-6.5,5.56-6.22,14.15-10.52,20.87-3.17,5-3.06,12-4.33,18.15-.22,1.06-.73,2.49.63,3.12,1.51.7,1.8-1,2.58-1.7,9.52-9.1,16.92-20.11,26.2-29.44,1.73-1.74,3.47-4,5.79-2.31,2.59,1.88,7.56,2.07,6.25,7.57-.75,3.15-.74,6.5-1,9.77-.08,1.15-.09,2.58,1.29,3,1.15.31,1.45-1.06,2.11-1.74,5.64-5.81,10.85-12.07,17.68-16.64,4.37-2.91,8.53-1.36,10.19,3.69,2.74,8.32,1.72,16.79,1,25.19-.29,3.3.89,6.19,1.27,9.28.29,2.37,1.95,2.52,4,.92,3.81-3,6.44-7.14,10.09-10.26,1.61-1.38,3.25-4.46,5.69-2.27s.34,4.55-1.37,6.42c-4.45,4.83-10.56,8.16-13,14.81-.58,1.56-2.4.94-3.6.71-2.57-.48-5.08-1.23-7.61-1.9-1.25-.33-1.42-1.38-1.18-2.38a10,10,0,0,0-3-10.36,3.33,3.33,0,0,1-1.15-3.1c1-6.87-1.87-13-3.61-19.28-.25-.89-.15-2.2-1.42-2.32s-1.37,1.12-2,1.89c-6.12,8-10.76,16.84-15.23,25.8-.64,1.29-.63,2.9-1,4.34-1.12,4.64-6.6,9.58-11,9.32-1.84-.11-4.18-1.47-4-3.67.18-2.92.41-6.5,2.12-8.51,4.24-5,3.63-11.25,5.4-16.82,1.1-3.47-1.59-7.16-2.54-10.66-.4-1.48-4.53,1.27-5.56,2.89-5.95,9.42-13.78,17.33-20.39,26.18-2,2.71-4.57,6.32-1.19,10.16.77.86.27,1.88-.32,2.69a5.25,5.25,0,0,1-1.42,1.4c-2.87,1.74-2.52,7.24-6.39,6.89-3-.27-2.81-5.6-6.71-6.66-1.55-.42-.83-3.12.32-4.79,4.81-7,6.12-14.74,4.82-23.2-4.2.63-4.75,5.54-8.08,7.19A6.58,6.58,0,0,1,191.3,146.69Z"/><path class="cls-1" d="M637.21,179.62c-2,1.41-4,2.9-6,4.19s-3.65-.23-4.37-1.64A21,21,0,0,1,625,167.75c1.86-8.52,4.06-17,4.2-25.85a1.53,1.53,0,0,0-.88-1.53c-1.44-.88-2.35.08-3.56.72-8.71,4.62-13.81,12.68-19.27,20.3-3.24,4.54-6.64,9-8.4,14.56-1.25,4-5.48,5.88-9,7.88a3,3,0,0,1-3.31-.4c-1.23-1.06-.3-2.3.15-3.17,4.9-9.63,4.9-20.53,8-30.64.91-3,0-6.62-.62-9.84-.48-2.34-2.77-2-4.52-1.29a5.29,5.29,0,0,0-2.12,2c-1.16,1.76-3,2-4.76,2.2-.77.09-1.4-.85-1.47-1.76-.17-2.33,2-2.43,3.31-3.15,6.28-3.48,11-8.9,16.77-13a6.42,6.42,0,0,1,2.52-1.49c1.75-.2,4-1.28,5.21.18s.15,3.52-.57,5.46c-3.87,10.43-9.47,20.37-9.48,32,3.35-1.81,5.39-5.14,7.51-8,6.94-9.51,17.1-15.4,25.4-23.35,2.38-2.28,6.1-3.35,9.38-4.42s3,1.75,2.69,3.59c-1.13,6.54-2.66,13-3.71,19.55-1,6.2-.39,12.45.33,18.65.3,2.58,1.8,3.2,3.64,1.13,3.07-3.46,7.39-4.85,11.2-7.1,1.53-1.06,3.16-1.23,4.31.31,1,1.33.24,2.85-.45,4.18a8.86,8.86,0,0,1-2.66,3.53C649,172.66,644,177.68,637.21,179.62Z"/><path class="cls-1" d="M664.37,166.77c6.37-6.19,12.85-12.25,19.06-18.59,4.19-4.27,8.08-8.84,11.94-13.42,2-2.35,1-5.29-1.54-5.45-6.85-.42-13.85-.79-20.45,2-1.11.47-2.43.94-2.1,2.36.81,3.41-2,4.56-3.69,6.49-1.37,1.6-3.46,3.34-5,2.08s-1-4.81.29-5.83c2.06-1.68,1.82-3,1.22-5-.8-2.63,1.28-3.85,2.82-5.33,6.47-6.24,14.65-6.83,22.79-6.15,6.65.56,13.26.63,19.9.64,2.13,0,4.52,0,5.43,2.56,1,2.84-1.82,3.15-3.17,4.3-8.12,6.95-15,15.16-23,22.27-7.74,6.88-14.64,14.69-21.92,22.08-1.48,1.49-2.57,3.07.29,4,8.67,2.87,17.67,3.78,26.73,3.87,3.33,0,5.87-.91,7.67-4.84,1.93-4.21,6.64-6.19,11.6-6.42,1.89-.09,2.4,1,2,2.51s-.58,3.25-1.55,4.1c-6.88,6-13.76,12-23.74,12-8.45.05-16.89.46-25.34.71-4.88.14-9.63-2.58-14.75.17-2,1.07-3.63-1.52-3.8-3.95-.37-5.17,1.94-8.9,6.29-11.45C656.2,170.27,660.39,168.74,664.37,166.77Z"/><path class="cls-1" d="M396.47,92.54A2.57,2.57,0,0,1,393.9,91c-.53-1.07-1-2.3.07-3.22C401.73,81,407.75,72.67,414.5,65c1.56-1.78,3.49-4.21,6.11-2,2.26,1.91,4.05,4.37,2.56,7.85-1,2.43-2.82,3.86-4.84,5.41-6.9,5.27-15.36,8.47-20.82,15.66A3,3,0,0,1,396.47,92.54Z"/><path class="cls-1" d="M397.77,265.38c0-7.54,3.55-10,10.49-6.76,1.91.88,2.66-.18,3.95-.66,3.74-1.38,6.22.18,6.53,4.17.2,2.64.11,5.31.11,8,0,1,.13,2.2-1.2,2.33-1.55.15-1.88-1.14-1.94-2.32-.12-2.15-.08-4.32-.14-6.48,0-1.34-.05-2.89-1.9-2.89a3,3,0,0,0-3.24,2.5c-.3,2.3-.33,4.63-.51,6.95-.07,1,0,2.18-1.34,2.26-1.59.09-1.81-1.15-1.82-2.37,0-2,0-4,0-6,0-1.81-.25-3.52-2.58-3.34-1.94.15-2.85,1.43-2.8,3.42.05,1.66,0,3.33-.07,5-.07,1.41.35,3.38-1.91,3.3-1.87-.07-1.56-1.81-1.61-3.09S397.77,266.71,397.77,265.38Z"/><path class="cls-1" d="M298.18,269.22,293,260.93c-.56-.89-2.08-1.72-.56-2.83,1.19-.88,2.16.14,3,1a14.66,14.66,0,0,1,1.16,1.61c3.17,4.57,3.15,4.56,5.66-.23.65-1.23,1.1-3.32,3-2.56,2.34.93.48,2.46-.05,3.63q-3.3,7.21-6.75,14.37c-.75,1.54-1.21,4.4-3.35,3.47s0-3,.51-4.43A62.34,62.34,0,0,1,298.18,269.22Z"/><path class="cls-1" d="M52.52,257.47a23.88,23.88,0,0,1,2.94.39c1.16.29,1.45,1.25,1.33,2.33-.18,1.62-1.13,1.06-2.11.79-2.4-.67-4.65-.54-6.09,1.87a4.36,4.36,0,0,0,0,4.72c1.48,2.52,3.7,2.47,6.07,1.66,1.08-.38,2-.56,2.11.92s-.83,2.05-2,2.5c-3.25,1.3-8.17-.71-9.6-4.17-1.55-3.78-.72-7.15,2.64-9.63A7.5,7.5,0,0,1,52.52,257.47Z"/><path class="cls-1" d="M251.1,253.71c1.68,1.09,1.67,4,4,5.16.75.38-.72,1.38-1.45,2-2.57,2.23-.71,5.27-1.24,7.9-.27,1.37.47,3.47-1.56,3.64-2.55.21-1.8-2.15-2.13-3.64-.63-2.88,1.55-6.27-1.8-8.72C246.09,259.46,249.56,253.63,251.1,253.71Z"/><path class="cls-1" d="M376.45,265.39c1.53-2.67,2.58-4.68,3.8-6.57.53-.82,1.47-1.49,2.51-.68.85.67.22,1.5,0,2.25a1.81,1.81,0,0,1-.22.44c-2.13,3.57-2.73,10.21-6.22,10.15-3.05-.06-3.89-6.89-6.22-10.45-.54-.83-.85-2,.33-2.56s1.85.16,2.39,1.12C373.86,260.93,374.93,262.77,376.45,265.39Z"/><path class="cls-1" d="M475.23,272.53c-1.81,0-1.48-1.36-1.68-2.47-.63-3.51,1.69-7.63-2.23-10.64-.23-.18,1.67-4.22,3.33-5.45s1.39,1.34,2.07,2.2c1.65,2.07,4.34,3.31.18,6-1.22.79-.19,5-.2,7.7C476.7,271,476.81,272.26,475.23,272.53Z"/><path class="cls-1" d="M102.07,253.09c2.15,2,2.36,4.62,4.72,5.84,1.12.58-.77,1.59-1.82,1.93-1.61.53-1,1.89-1,2.93-.1,2.14,0,4.29-.06,6.43,0,1.2-.26,2.47-1.85,2.32-1.28-.12-1.2-1.31-1.35-2.28-.54-3.57,1.11-7.4-1.87-10.81C98.26,258.82,100.76,255.54,102.07,253.09Z"/><path class="cls-1" d="M233.58,265.16v-1.5c0-4.85,2.69-7.21,7.33-6.4a2.19,2.19,0,0,1,1.41,1.2,1.45,1.45,0,0,1-1.1,1.92c-5.08.68-4.36,4.45-4.5,7.92-.06,1.48.92,4.06-1.35,4.12-2.78.08-1.45-2.71-1.75-4.28A17.41,17.41,0,0,1,233.58,265.16Z"/><path class="cls-1" d="M111.89,265c0-1.15,0-2.3,0-3.45,0-2.21-.56-4.7,3.25-2.69,1.46.76,4-2.91,5.06-.39s-2.66,2-3.87,3.33c-1.76,2-.71,4.41-1.28,6.56-.38,1.43.81,4-1.5,4-2.56-.06-1.51-2.74-1.69-4.38a26.74,26.74,0,0,1,0-3Z"/><path class="cls-1" d="M85.57,258.68c6.12-2.37,8.33-.92,8.39,5.5a25,25,0,0,1,0,4c-.25,1.56,1.2,4.43-1.64,4.28-2.54-.12-1.18-2.92-1.47-4.55-.4-2.36.94-5-1.16-7.11C88.7,259.28,85.74,261.69,85.57,258.68Z"/><path class="cls-1" d="M168.7,271.54a2.28,2.28,0,0,0-.08-2.81c-1.12-2.47-.92-5-.56-7.63,2.18-3.51.14-7.64,1.66-11.25h0c1.43-.93,2.35-.28,2.31,1.15-.19,7.17.91,14.37-.59,21.5C170.23,273,169.57,272,168.7,271.54Z"/><path class="cls-1" d="M326.5,271.75c-1.81,2.08-2.53.79-2.79-1a33.44,33.44,0,0,1-.11-4.48c0-8.66,2.5-10.46,11-7.67a4.7,4.7,0,0,0,2.88-.06c1.67.76,5.14-.69,4.08,3.37-1.92-2.27-3.77-.55-5.63.12l-.66-.08a4.41,4.41,0,0,1-2-1.85c-.21-.29-.34-.38-.3-.36-.2.09-.2.31,0,.69,0,.45-.19.64-.61.62-2.41-.87-4.2,0-5.56,2C325.17,265.13,325.11,267.43,326.5,271.75Z"/><path class="cls-1" d="M341.55,261.89c.17-3-3.41-1.41-4.08-3.37,4.92-1.69,6.89-.54,7.1,4.28.11,2.63,0,5.27,0,7.9,0,1.08-.43,1.95-1.72,1.85-1.05-.08-1.25-1-1.26-1.78C341.53,267.81,341.55,264.85,341.55,261.89Z"/><path class="cls-1" d="M460.5,257.65c4.62-.55,6.36,1.83,6.28,6.12,0,1.66.08,3.32,0,5-.08,1.34.83,3.58-1.3,3.63-2.42.06-1.61-2.37-1.81-3.87-.34-2.56.78-5.33-1.11-7.67C462.2,259.56,457.22,261.24,460.5,257.65Z"/><path class="cls-1" d="M427.93,266.28c-.77,1.68,1.89,5.83-1.3,5.82-3.61,0-1.22-4.26-1.78-6.57a14.09,14.09,0,0,1-.08-3.95c.08-1.34-.8-3.4,1.5-3.49s1.74,1.81,1.68,3.27S427.93,264.34,427.93,266.28Z"/><path class="cls-1" d="M391.71,265.53c-.75,1.88,1.62,6.73-1.43,6.65-3.36-.1-1.17-4.88-1.68-7.56a19.57,19.57,0,0,1-.06-4c0-1.28-.27-2.93,1.85-2.69,1.83.2,1.82,1.53,1.62,3S391.83,263.57,391.71,265.53Z"/><path class="cls-1" d="M460.5,257.65c-1.55,2.49,1.74,1.88,2,3.19l-4.9,1c-2,.72-2,.72-2.06,4.88.09-3.33.09-3.33,2.06-4.89,0,2.8,0,5.6-.06,8.39,0,1.46-.44,2.7-2.21,2.58-1.47-.1-1.78-1.22-1.78-2.48,0-1.81,0-3.62,0-5.43C453.59,258,453.59,258,460.5,257.65Z"/><path class="cls-1" d="M85.57,258.68c.78,1.82,3.14.57,4.08,2.09a7.88,7.88,0,0,0-4.73,1.16c-2.22.41-2.22.41-2.25,4.43.18-3.38.18-3.38,2.16-4.39,0,2.31,0,4.62-.14,6.93-.08,1.49.77,3.76-1.8,3.81-2.87.07-2.09-2.38-2.15-4-.09-2.47,0-4.94,0-7.42C80.57,257,82.11,256.05,85.57,258.68Z"/><path class="cls-1" d="M326.5,271.75c-3.27-1.08-1.53-3.81-1.8-5.79a47.71,47.71,0,0,1-.06-6.34c2.57.29,1.6,2.25,2.11,3.4C326.67,265.93,326.58,268.84,326.5,271.75Z"/><path class="cls-1" d="M335.92,262c-.05,2.78-.08,5.56-.17,8.33,0,1.2-.34,2.42-1.88,2.24-1.2-.13-1.37-1.23-1.39-2.25-.06-3.1-.11-6.2-.17-9.3l.35-.32c3.36,2.92.4,6.34,1.38,9,1.53-2-1.86-5.81,1.42-8C335.61,261.8,335.77,261.9,335.92,262Z"/><path class="cls-1" d="M445.52,129.72l.18,2.31c-.05,1.23-.1,2.45-.16,3.67-1,2.31-.2,4.76-.49,7.12-.14,1.13.68,2.71-1.28,3.11l-.42-.32c.08-4,.14-8,.24-11.92C443.63,132.09,443.19,130.22,445.52,129.72Z"/><path class="cls-1" d="M392.57,253.56c-.46,1.23-1.13,2.14-2.55,1.8a2.42,2.42,0,0,1-2.09-2.88,2.11,2.11,0,0,1,2.57-1.75A2.42,2.42,0,0,1,392.57,253.56Z"/><path class="cls-1" d="M312.49,71.73c4.41.27,5.32,2,3.18,6.15C313.3,76.5,314.86,73.1,312.49,71.73Z"/><path class="cls-1" d="M426.52,255.28c-1.43-.36-2.17-1.18-2-2.49a2.05,2.05,0,0,1,4.09.33C428.43,254.33,427.8,255.26,426.52,255.28Z"/><path class="cls-1" d="M169.72,249.85c-.23,4.06,1.18,8.3-1.35,12.11-.6-.93-1.12-.76-1.74-1.19a1.68,1.68,0,0,0,.89-1.77C170.32,256.44,167.21,252.47,169.72,249.85Z"/><path class="cls-1" d="M315.69,77.85c-.41,3.3,1.9,6.64-.11,9.92C316.19,84.47,312.78,81.13,315.69,77.85Z"/><path class="cls-1" d="M443.51,96l-3.74-.42c.32-3,3-2.31,4.7-3Z"/><path class="cls-1" d="M423.5,150.78c-1.9-.3-2.07-1.89-2.12-3.45-.39-11,.31-21.88,4-32.39,1.86-5.31,1.3-5.87-4.38-5-1.61.25-2.64,1.18-3.94,1.88-3.85,2.07-5.34,6.21-8.26,9.1-5.26,5.21-10.24,10.72-15.34,16.09-4.55,4.78-9.08,9.59-13.69,14.31-.77.79-1.82,1.79-3,1.27-1.56-.66-.35-2-.44-3.08a68.06,68.06,0,0,0-.64-7.44c-2.4-12.06,4.3-21.71,8.36-32.06.72-1.82,2.68-3.72,1.37-5.45-1.51-2-4.31-1.25-5.87.07-5.12,4.31-12,4.26-17.52,7.54-1.35.8-2.91.61-4.67-.22-4.31-2-8.8-5.44-13.44-4.5-6.44,1.3-12.82.73-19.18,1.45-3.59.41-6.51,2.52-5.77-4.1.86-7.66,2.12-15.25,3.41-22.8,1.37-8,4.77-15.47,8.07-22.9,1.16-2.6,2.67-5.84.38-7.93-2.56-2.33-5.11,1-7.7,1.74a2.3,2.3,0,0,0-1.24.81c-5.22,7.62-13.35,11.68-20.53,16.92-2.2,1.6-4.76,4-2.69,6.49s5.89,2.33,8.65.28c2-1.51,3.5-3.76,5.22-5.68,3.54.77,4.55,2.84,3.18,6.15l0,0c-2.06,3.29,1.93,6.64-.11,9.92-.87,6.17-1.5,12.39-2.68,18.51-1.54,8-4.28,15.8-3.38,24.3.42,4-.14,8.21-.32,12.3-.22,5-2.56,9.21-3.2,14-.73,5.52-4.85,10.25-8.35,14.74-.82,1.05-3.48,1.08-2.71,3.22.64,1.77,2.64.6,4,.8a4.11,4.11,0,0,0,3.58-1.36c4.13-4.09,9.25-6.85,13.8-10.29a180.22,180.22,0,0,0,36.32-37.31c2.7-3.68,4.19-9.13,10.73-7.18.55.16,1.39-.74,2.11-1.11.94-.49,1.63-2,3-1.05s.76,2.28.51,3.62c-1,5.54-2.29,11-2.45,16.7a7.21,7.21,0,0,1-1.23,3.74c-4.23,6-4.31,12.73-3.55,19.54.6,5.43,7.83,9.57,11.12,6.29,1.78-1.77,3.82-3.06,5.68-4.6,9.94-8.2,16.27-19.62,25.59-28.34,1.07-1,1.17-4,3.35-2.7a5.77,5.77,0,0,1,2.89,4.88c-.13,6.88,1.43,13.92-2.61,20.4a4.8,4.8,0,0,0,.71,6.05c1.62,1.45,3.3.12,5-.57,4.24-1.69,7.63-4.48,10.87-7.56C426.34,153,427.46,151.42,423.5,150.78Zm-83.44-17.67c-6.68,7.49-12.94,15.42-20.48,22.11-1,.89-1.62,3.12-3.36,2.25-1.48-.74-.56-2.69-.72-4.11a20.67,20.67,0,0,1,0-2.49c1.71-8.46.92-17,.95-25.53,0-1.84.25-3.54,3.59-3,4,.6,7.69-2.4,12.09-2.65s8.13.32,10.49,3.6C345.22,126.9,342.24,130.66,340.06,133.11Z"/><path class="cls-1" d="M585.81,156.67c-1.64-1.9-3-.93-4.46.64-3.19,3.34-6.59,6.5-10,9.6-4.33,3.91-5.39,3.47-7.62-1.82-4.37-10.38-3.53-21.48-4.76-32.29-.39-3.37-.27-6.54,3.61-8.2a3.33,3.33,0,0,0,2-3.25c-.07-1.33-1.07-1.54-2.1-1.61-13.52-1-26.73-.87-37,10a9.85,9.85,0,0,0-4.71,6.12c-2.77,9-6.9,17.61-8,27.1a12.39,12.39,0,0,1-1.19,5.3c-2,5.19-2.94,10.48-1.64,16.06,1,4.18,3.18,5.45,7,3.43a11.74,11.74,0,0,0,3.73-3.25q11.26-15.1,22.34-30.35c.82-1.13,1.42-2.43,3-2.09s1.14,1.77,1.37,2.89c1.72,8.52,2.58,17.23,8,24.67,4.34,5.9,7.6,6.49,11.74.44,5-7.28,12.62-11.93,18-18.85C586.32,159.51,587.26,158.35,585.81,156.67Zm-40.08-23c-1,3.95-1.39,8.4-3.54,11.66-6.18,9.39-13.1,18.3-19.75,27.38-.25.33-.77.47-1.53.91-1.37-5.68,1-10.63,2-15.61,1.76-8.64,6.8-16.08,9.71-24.34,1.59-4.51,8.49-6.09,12.11-3.16A3,3,0,0,1,545.73,133.68Z"/><path class="cls-1" d="M793.48,156.41c-1.48-1.59-2.81-.68-4.17.69-3.61,3.65-7.35,7.17-11.12,10.65-2.74,2.52-4.35,2.25-6.17-1.55-4.49-9.35-4-19.42-5.08-29.24-.52-4.77-1.73-10.16,4.23-13.43,2.06-1.13,1.92-3.44-1.31-3.94a29,29,0,0,0-9.61-.19c-2.14.18-3.46.32-4.79.41-6.51.41-12.52,1.63-17.65,6.4A35.4,35.4,0,0,0,728,140.67c-1.87,5.18-2.21,10.82-5.83,15.82-2.18,3-1.84,8.79-3.25,13.21-1.3,4.07-2.78,8.11-1.4,12.57.65,2.1-.32,5.16,2.23,6.06,2.84,1,5.51-.42,7.59-2.64,4.48-4.76,8.1-10.27,12.11-15.37s7.71-11,11.52-16.55c.69-1,1.46-2,2.81-1.56s.89,1.57,1.09,2.51c1.91,8.84,2.85,17.94,8.59,25.58,3.78,5,7.62,5.69,11.07.39,5-7.74,12.94-12.55,18.63-19.58C794.67,159.23,794.85,157.89,793.48,156.41Zm-39.88-22.3c-.53,3.59-1.25,7.67-3,10.34-6.43,10.12-13.85,19.62-20.9,29.35l-1.43-.72c.23-10.24,3.33-19.79,7.52-29a91.36,91.36,0,0,0,4.2-9.47,8.3,8.3,0,0,1,12.19-4.34C753.93,131.21,753.82,132.64,753.6,134.11Z"/><path class="cls-1" d="M191.3,146.69c-.91.72-1.83,1.42-2.72,2.15-4.77,3.87-5.53,3.52-8-1.93-4.6-10-3.4-20.84-4.5-31.34-.39-3.7-.47-7.3,3.8-9.22a3,3,0,0,0,1.64-3.37c-.45-1.94-2.16-.92-3.3-1.23-5.79-1.55-11.61-.22-17.27.39-10.57,1.14-18.88,7-22.33,17s-7.81,19.69-9.86,30.19c-1.1,5.64-3.49,10.93-1.94,17,1,4,2.37,5.35,6.26,3.87a11.46,11.46,0,0,0,5.26-4.45c5.78-8.45,12.49-16.21,18.22-24.7,1.69-2.5,3.06-7.73,6.14-6.59,2.77,1,2.8,6.31,2.94,9.77.34,8.12,4.66,14.35,8.84,20.71,1.27,1.93,2.66,2.31,5,.74,6.39-4.35,10.47-11,16.18-16A5.08,5.08,0,0,0,191.3,146.69Zm-28.59-31.07c-.88,3.85-1,8.24-3.09,11.36-6.44,9.78-13.61,19.08-20.5,28.56l-1.35-.49c-.86-5.63,1.33-11,2.49-16.3,1.78-8.31,6.67-15.45,9.56-23.39,1.56-4.29,8.23-5.66,11.88-2.88A2.88,2.88,0,0,1,162.71,115.62Z"/><path class="cls-1" d="M467.23,100.93l-.32-.14c-2.12-1-2.84,1-3.3,2.84A5.18,5.18,0,0,1,467.23,100.93Z"/><path class="cls-1" d="M461.06,118c.43-2.3.78-4.61,1.08-6.93Q461.56,114.56,461.06,118Z"/><path class="cls-1" d="M487,108.68c-5.45-3.44-11.85-4.62-17.78-6.93,3.19,2.78,7.59,2.49,10.67,5.37C481.73,108.88,484.47,108.33,487,108.68Z"/><path class="cls-1" d="M455.58,144.45c.07-.2.14-.39.2-.59C455.72,144.06,455.65,144.25,455.58,144.45Z"/><path class="cls-1" d="M456.22,142a13.5,13.5,0,0,1-.32,1.4,18.08,18.08,0,0,0,.49-2.54C456.33,141.27,456.28,141.65,456.22,142Z"/><path class="cls-1" d="M115,116.88c-7.6-1.21-14-6.15-21.67-7-3.73-.43-6.88-2-10.56-3.81,6.43-6.14,13.65-10.41,19.08-16.72,1.33-1.55,3.58-3,2.48-5.42-1.19-2.58-3-5-6.34-4.88a23.3,23.3,0,0,1-8.24-1.76,118.58,118.58,0,0,1-14.63-6.49c-6-3-12.87-1.13-19.17-3.74-8.82-3.66-9.82-2.78-15.17,5.22-1.59,2.37-1.64,3.28,1.66,4.29,4.37,1.33,8.68.31,13,.92,2.45.35,3,1.36,3.54,3.69,1.39,5.59-2.89,10.47-1.46,15.93.74,2.8.89,5.94-1,8-3.45,3.73-2.66,7.83-2.36,12.13.68,9.85-.67,19.45-5.18,28.31-1.58,3.12-3.06,5.91-3.26,9.62S44,162.52,42.54,166c-.68,1.64-2.55,3-.94,4.78,1.47,1.65,3.35.5,5.13.13,5.44-1.11,9.28-5.52,14.49-7a201.06,201.06,0,0,0,50.69-22.13c5-3,9-7.18,13.13-11.16,1.15-1.11,1.73-2.32.51-4.92C123.19,120.73,116.76,121.72,115,116.88Zm-50.22-16.6c1.46-4.4,2.39-9.92,4.78-15a3.6,3.6,0,0,1,4-2.22c5.78.56,11.34,1.83,15.87,5.9,1.71,1.54,1.76,2.66-.36,3.72C81.79,96.28,74.6,100,67.34,103.55,65,104.69,64.37,103.4,64.75,100.28Zm48.16,34.92c-10.08,6.19-20.1,12.39-31.69,15.71-6.47,1.85-12.58,4.88-19.28,6.23-5.08,1-6,.68-4.41-4.34,1.81-5.61,2.26-11.55,4.84-17,1.48-3.15.22-6.89-.51-10.27-1.11-5.13,1.8-6.34,6.29-7,12.39-.72,24.27,2.08,36,5.39,3.46,1,6.46,3.93,9.4,6.32C115.5,131.82,115,133.93,112.91,135.2Z"/><path class="cls-1" d="M516.19,126.44c-1.53-4.4-1.75-9.14-5.89-12.76-2.58-2.25-5.51-4.91-7.25-7.78-2.53-4.18-6-5.69-10.14-7.2-5.56-2-9.74-7-16-7.75-.49-.06-.67-1.1-1.1-1.61-4.4-2.8-9.45-3.93-14.34-5.44-2.48-.06-5-.06-7.44-.19-6.41-.33-9.88,2.83-9.56,8.82-.59,1-1.87,1.64-1.61,3.09,1.46,3.22,5.44,6,1.76,10.1-2,3.23.76,5.7,1.37,8.51,1.14,6,1.34,11.88-1.2,17.59a25,25,0,0,0-.2,4.24,125.12,125.12,0,0,1-1.68,23.51,12,12,0,0,0-.32,1.56c-.17,1.34-.36,2.78.51,3.86a6,6,0,0,0,3.87,1.83c1.17.17,1.6-1.2,1.49-2.15-.68-5.68,3-9.88,4.88-14.67a20.93,20.93,0,0,1,1.63-4.14,10.91,10.91,0,0,0,.61-1.41c.07-.2.14-.39.2-.59l.12-.43a13.5,13.5,0,0,0,.32-1.4c.06-.38.11-.76.17-1.14.4-3.15.22-6.43,1.11-9.52a40.72,40.72,0,0,1,1.95-6.09c.64-2.39,1.16-4.81,1.61-7.24s.69-4.63,1.08-6.93c.1-.74.2-1.48.29-2.21a14.29,14.29,0,0,1,1-4.85c.07-.14.14-.28.22-.42.46-1.87,1.18-3.82,3.3-2.84l.32.14a2.27,2.27,0,0,1,1.74.63l.22.19c5.93,2.31,12.33,3.49,17.78,6.93a6,6,0,0,1,2.79,1c4.93,1.26,8.07,5.11,11.81,8.11,1.85,2.55,3.84,5,5,8h0a30.4,30.4,0,0,1,1.81,5.15,14.91,14.91,0,0,0,1.09,1.74c1.24,1.19,2.77,2.6,4.24.94C515.42,131.7,517.19,129.32,516.19,126.44Z"/><path class="cls-1" d="M461.06,118c-.45,2.43-1,4.85-1.61,7.24a40.72,40.72,0,0,0-1.95,6.09c-.89,3.09-.71,6.37-1.11,9.52.93-6,1.69-12,4-17.76C460.59,121.43,460.82,119.73,461.06,118Z"/><path class="cls-1" d="M463.61,103.63c-.08.14-.15.28-.22.42a14.29,14.29,0,0,0-1,4.85c-.09.73-.19,1.47-.29,2.21.41-2.4.85-4.79,1.4-7.16C463.56,103.84,463.59,103.74,463.61,103.63Z"/><path class="cls-1" d="M469,101.56a2.27,2.27,0,0,0-1.74-.63c.65.29,1.3.56,2,.82Z"/><path class="cls-1" d="M455.58,144.45a10.91,10.91,0,0,1-.61,1.41,20.93,20.93,0,0,0-1.63,4.14c.24-.63.46-1.26.64-1.91A25.6,25.6,0,0,0,455.58,144.45Z"/><path class="cls-1" d="M455.78,143.86l.12-.43Z"/><path class="cls-1" d="M447.52,112.93c-3.42-.87-6.53,1.73-9.94.88,1.3-4,4.44-6.25,8-8C443.91,108.79,445.86,110.82,447.52,112.93Z"/><path class="cls-1" d="M443.77,145.93c1.57-3.24-.22-7.07,1.77-10.23-.13,8.4.95,16.91-2,25.09Q443.64,153.35,443.77,145.93Z"/><path class="cls-1" d="M226.76,265.77c-1.06,1.9,2.24,6.2-2,6.65-9.85,1.06-14-1.35-14.1-6.93a7.6,7.6,0,0,1,7.23-7.89C226.74,257.49,226.74,257.49,226.76,265.77Zm-3.07-.37c.28-3.08-1.53-4.6-4.45-4.76s-4.88,1.31-4.77,4.4c.09,2.73,1.37,4.76,5.65,4.94C222.36,270.29,223.44,268.13,223.69,265.4Z"/><path class="cls-1" d="M441.53,273.05c-3.92-.12-6.83-2.05-7.56-6.19s.85-7.44,4.75-8.85,7.29-.36,9.33,3.45c1.29,2.41,1.63,4.58-2.34,4.39a52.76,52.76,0,0,0-5.48.13c-1,.07-2.58-.48-2.64,1.32,0,1.33,1,2,2.19,2.35a6.91,6.91,0,0,0,4.87-.32c1.05-.46,2-1.59,2.71.16.54,1.25-.69,1.66-1.39,2.29C444.77,272.87,443.25,272.87,441.53,273.05Zm4-10.05c-3.92-3.15-4.42-3.15-7.9,0A16.88,16.88,0,0,0,445.49,263Z"/><path class="cls-1" d="M181.66,265.89c1.37,5.15,4.63,4.43,7.82,3.22,1.08-.4,2-.69,2.57.23.63,1.07-.4,1.77-1.23,2.36-3.29,2.35-8.95,1.44-11.2-1.82s-1.25-8.7,2.11-11.17c3.05-2.25,8.17-1.28,10.6,2,.9,1.22,1.79,2.56,1.08,4.11s-2.3,1-3.56,1C187.24,265.93,184.62,265.89,181.66,265.89Zm8.14-3.69c0-1.56-2.2-1.66-3.66-1.7-1.65,0-4,.13-3.94,1.95,0,2,2.37.81,3.69,1.23C187.24,263.17,189.72,264.62,189.8,262.2Z"/><path class="cls-1" d="M267.16,257.56a6.32,6.32,0,0,1,5.67,2.85c.89,1.34,2.14,2.88,1.38,4.55s-2.67.65-4,.91-2.65-.08-4,.07-3.14-.84-3.34,1,1.32,2.89,3.26,2.94c1.31,0,2.65.19,3.84-.63,1-.72,2.25-1.23,2.86.29s-.87,2-1.82,2.53c-3.26,1.84-6.44,1.28-9.26-.9-3.1-2.39-2.95-5.84-1.91-9.05S263.48,257.51,267.16,257.56Zm.78,3.11c-1.64-.22-3.29-.36-4.51,1.06-.25.29-.38,1.1-.2,1.27,1.23,1.12,2.77.47,4.18.53,1.06.05,2.33.37,3-1A2.61,2.61,0,0,0,267.94,260.67Z"/><path class="cls-1" d="M69.37,269.93c.4-.08,1-.18,1.69-.35,1.24-.34,2.9-2.17,3.51.22.42,1.67-1.65,2.24-3,2.73a7.86,7.86,0,0,1-10.11-4.6,8,8,0,0,1,4.21-10,7.71,7.71,0,0,1,10,4c1,2.24.92,3.92-2.23,3.84a26.34,26.34,0,0,0-5,.15c-1.31.21-3.81-1.25-3.64,1.49C65,269.64,67.21,269.88,69.37,269.93Zm3.5-7c-3-3.61-5.46-3.26-9.11.1C67.46,263.64,69.9,263.9,72.87,262.92Z"/><path class="cls-1" d="M139.76,265a7.74,7.74,0,0,1-7.32,7.92,7.49,7.49,0,0,1-8.13-7.46c-.06-4.7,3.06-7.91,7.67-7.89A7.7,7.7,0,0,1,139.76,265Zm-3.07.42c.16-3.09-1.73-4.65-4.51-4.79s-4.75,1.45-4.81,4.46,1.4,4.65,3.62,4.74C134.84,269.88,136.53,268.4,136.69,265.42Z"/><path class="cls-1" d="M357.55,257.68a7.73,7.73,0,0,1,7.87,7.81,7.93,7.93,0,0,1-15.85-.24C349.57,260.86,353,257.65,357.55,257.68Zm-.24,3c-2.81.07-4.72,1.58-4.64,4.59.08,3.2,2,4.71,5.15,4.56s4.21-2.11,4.56-4.89A4.63,4.63,0,0,0,357.31,260.68Z"/><path class="cls-1" d="M490.36,257.68a7.73,7.73,0,0,1,7.87,7.81,7.93,7.93,0,0,1-15.85-.24C482.38,260.86,485.76,257.65,490.36,257.68Zm-.25,3c-2.8.07-4.71,1.58-4.63,4.59.08,3.2,2,4.71,5.14,4.56s4.22-2.11,4.57-4.89A4.64,4.64,0,0,0,490.11,260.68Z"/><path class="cls-1" d="M168.68,268.57l-.06.16c-2.4,1.23-4.84,2.23-7.11-.13a4.51,4.51,0,0,1-1.15-5.35c1.31-3,3.87-2.45,6.27-2.48l.62.43c.72-.61,1.1-1.28.27-2.2-2.76-1.57-5.54-2.27-8.22.08a7.73,7.73,0,0,0-2.54,7.63c1,5.61,5.78,7.5,11.94,4.83C170.64,270.32,169.94,269.41,168.68,268.57Z"/><path class="cls-1" d="M172.3,249.86c0-1.15-1.69-1.38-2.59,0,1.79.09,2.07,1.25,2,2.74-.13,6.64-.22,13.28-.32,19.91C174.1,265.06,172.46,257.42,172.3,249.86Z"/><path class="cls-1" d="M335.46,261.71c-2,2.79-.07,6.18-1.33,9.35-1.49-3.5.78-7.24-1.47-10.35L330.35,259C333,258.31,334.41,259.67,335.46,261.71Z"/><path class="cls-1" d="M457.64,261.82c-2.49,2.8.1,6.49-2.31,10.58-1.21-4.82-.59-8.74-.52-12.6,0-.23.77-.68,1.1-.62,1.43.26,1.64,1.44,1.73,2.65Z"/><path class="cls-1" d="M84.83,262c-2.56,2.74.06,6.44-2.31,10.41-1.32-4.61-.58-8.43-.68-12.15a1,1,0,0,1,1.29-1c1.33.39,1.53,1.59,1.79,2.73Z"/><path class="cls-1" d="M441.36,163.73c-.44,2.91.68,4.71,4.08,5.23-2.88-7.4,3.75-12,5.12-18.12,2.18,6.07-.18,11.62-2,17.23-1,2.43-1.81,4.94-2.73,7.41-.42,1.14-1.77,2.42-.37,3.54,1.09.88,2.52.37,3.76-.19a13.25,13.25,0,0,0,1.73-1,19.44,19.44,0,0,1,6-2.21c5.88-.68,10.11-5,15.38-7a7.57,7.57,0,0,1,1.19-.64c3.06-1.18,6.27-2,8.84-4.24a6.44,6.44,0,0,1,1.12-.68,7.36,7.36,0,0,0,3.21-2.08,6.28,6.28,0,0,1,1.61-1.19c3.78-1.7,6.55-4.79,9.85-7.14.32-.32.66-.61,1-.9a23.42,23.42,0,0,0,5.2-6.75c.19-.41.42-.8.64-1.19,2.43-2.58,1.18-6.18,2.51-9.06,1.16.38,2.81,2.52,3.18,1.27.67-2.23,3.12-3.64,2.29-6.69-2.13-7.88-7.28-13.44-12.35-19.5a20.09,20.09,0,0,0-11.61-7.2c-2.24-.56-5-1.26-5.9-4.48-.63-2.34-3.12-1-4.78-1.39-2.35-.48-5.71.26-4.94-4,3.93-2,7-.37,9.82,2.35,9.46,4,16.63,11.08,24.15,17.7,2.93,4.51,7.41,8.16,7.88,14l.39,1.91c2.13,6.21-1,11.63-3,17-2.45,6.54-7.64,11.07-13.32,15l0-.06A84.21,84.21,0,0,1,481.92,172a111.05,111.05,0,0,1-12.49,4.74l-17.05,7.95c-2,1.86-4.79,1.75-7,3l0,0c-3.45.9-5.68,4-9.07,5-3.82,3.19-6.45,8.55-12.85,7-2.63-6.68-1.85-10.44,4.16-14.11,6.46-3.94,10.07-9.24,11-16.71C438.83,167.06,438.47,164.38,441.36,163.73Z"/></svg>